SplineFontDB: 3.0
FontName: JzuyinSerif-Heavy
FullName: Jzuyin Serif Heavy
FamilyName: Jzuyin Serif
Weight: Heavy
Copyright: Copyright (c) 2017, YUIJZEON
UComments: "2017-5-8: Created with FontForge (http://fontforge.org)"
Version: 001.000
ItalicAngle: 0
UnderlinePosition: -100
UnderlineWidth: 50
Ascent: 800
Descent: 200
InvalidEm: 0
LayerCount: 2
Layer: 0 0 "+gMxmbwAA" 1
Layer: 1 0 "+Uk1mbwAA" 0
XUID: [1021 719 821916804 8886817]
FSType: 0
OS2Version: 0
OS2_WeightWidthSlopeOnly: 0
OS2_UseTypoMetrics: 1
CreationTime: 1494186448
ModificationTime: 1494852494
PfmFamily: 17
TTFWeight: 800
TTFWidth: 5
LineGap: 90
VLineGap: 0
OS2TypoAscent: 0
OS2TypoAOffset: 1
OS2TypoDescent: 0
OS2TypoDOffset: 1
OS2TypoLinegap: 90
OS2WinAscent: 0
OS2WinAOffset: 1
OS2WinDescent: 0
OS2WinDOffset: 1
HheadAscent: 0
HheadAOffset: 1
HheadDescent: 0
HheadDOffset: 1
OS2Vendor: 'PfEd'
Lookup: 1 0 0 "'hwid' Halfwidth" { "'hwid' Halfwidth Bopomofo" ("hw") } ['hwid' ('DFLT' <'dflt' > 'bopo' <'dflt' > ) ]
Lookup: 4 0 0 "'liga' Ligature" { "'liga' Bopomofo Kanji"  } ['liga' ('DFLT' <'dflt' > 'bopo' <'dflt' > ) ]
MarkAttachClasses: 1
DEI: 91125
LangName: 1033
LangName: 1028 "" "+bOiX82YOmtQA"
Encoding: Custom
UnicodeInterp: tradchinese
NameList: AGL For New Fonts
DisplaySize: -48
AntiAlias: 1
FitToEm: 0
WinInfo: 32 16 10
BeginPrivate: 0
EndPrivate
TeXData: 1 0 0 1048576 524288 349525 572522 1048576 349525 783286 444596 497025 792723 393216 433062 380633 303038 157286 324010 404750 52429 2506097 1059062 262144
BeginChars: 179 178

StartChar: exclam
Encoding: 1 33 0
Width: 378
Flags: W
HStem: -16 188<128.953 257.188> 741 20G<157 221.333>
VStem: 94 190<18.5344 136.723 530.313 735.477> 173 32<261 297.615>
LayerCount: 2
Fore
SplineSet
122 11 m 0xe0
 103.333333333 29 94 51 94 77 c 0
 94 103.666666667 103.333333333 126 122 144 c 0
 140 162.666666667 162.333333333 172 189 172 c 0
 252.333333333 172 284 140.333333333 284 77 c 0
 284 15 252.333333333 -16 189 -16 c 0
 162.333333333 -16 140 -7 122 11 c 0xe0
286 665 m 0
 286 622.333333333 267.666666667 533 231 397 c 1
 205 261 l 1
 173 261 l 1xd0
 148 397 l 1
 111.333333333 536.333333333 93 625.666666667 93 665 c 0
 93 729 125 761 189 761 c 0
 253.666666667 761 286 729 286 665 c 0
EndSplineSet
EndChar

StartChar: quotedbl
Encoding: 2 34 1
Width: 482
Flags: W
VStem: 49 156<625.562 809.527> 276 157<625.562 809.527>
LayerCount: 2
Fore
SplineSet
205 746 m 0
 205 725.333333333 201.333333333 697.666666667 194 663 c 2
 144 459 l 1
 111 459 l 1
 61 664 l 2
 53 698.666666667 49 726 49 746 c 0
 49 801.333333333 75 829 127 829 c 256
 179 829 205 801.333333333 205 746 c 0
433 746 m 0
 433 725.333333333 429 697.666666667 421 663 c 2
 372 459 l 1
 339 459 l 1
 288 664 l 2
 280 698.666666667 276 726 276 746 c 0
 276 801.333333333 302.333333333 829 355 829 c 0
 407 829 433 801.333333333 433 746 c 0
EndSplineSet
EndChar

StartChar: numbersign
Encoding: 3 35 2
Width: 634
Flags: W
HStem: 0 21G<122 173.963 351 403.963> 189 108<22 150 215 379 445 577> 436 109<59 188 252 417 482 615>
LayerCount: 2
Fore
SplineSet
417 436 m 1
 236 436 l 1
 215 297 l 1
 396 297 l 1
 417 436 l 1
466 436 m 1
 445 297 l 1
 577 297 l 1
 577 189 l 1
 429 189 l 1
 401 0 l 1
 351 0 l 1
 379 189 l 1
 199 189 l 1
 171 0 l 1
 122 0 l 1
 150 189 l 1
 22 189 l 1
 22 297 l 1
 167 297 l 1
 188 436 l 1
 59 436 l 1
 59 545 l 1
 204 545 l 1
 232 730 l 1
 280 730 l 1
 252 545 l 1
 433 545 l 1
 461 730 l 1
 510 730 l 1
 482 545 l 1
 615 545 l 1
 615 436 l 1
 466 436 l 1
EndSplineSet
EndChar

StartChar: dollar
Encoding: 4 36 3
Width: 608
Flags: W
HStem: -15 40<201.221 286 332 374.844> 698 36<339 389.944>
VStem: 58 130<69.53 172.75> 68 131<507.47 623.312> 286 46<-130 -17 25 276> 291 48<454 693 732.766 838> 407 137<552.708 644.75> 425 136<104.596 218.474>
LayerCount: 2
Fore
SplineSet
332 25 m 1xc9
 394 42.3333333333 425 82.6666666667 425 146 c 0
 425 203.333333333 394 246.666666667 332 276 c 1
 332 25 l 1xc9
291 693 m 1xd4
 229.666666667 676.333333333 199 636.333333333 199 573 c 0
 199 521.666666667 229.666666667 482 291 454 c 1
 291 693 l 1xd4
351 429 m 2
 428.333333333 398.333333333 482.666666667 365.333333333 514 330 c 256
 545.333333333 294.666666667 561 249.666666667 561 195 c 0
 561 138.333333333 540.333333333 91 499 53 c 0
 457.666666667 14.3333333333 402 -8.33333333333 332 -15 c 1
 332 -130 l 1
 286 -130 l 1
 286 -17 l 1
 141.333333333 -15.6666666667 65.3333333333 37.3333333333 58 142 c 1
 68.6666666667 174 89.3333333333 190 120 190 c 0
 160 190 182.666666667 167 188 121 c 2
 200 30 l 1
 226 22.6666666667 254.666666667 19 286 19 c 1
 286 297 l 1xe9
 262 307 l 2
 196 334.333333333 148 364.333333333 118 397 c 0
 84.6666666667 433.666666667 68 479 68 533 c 0
 68 588.333333333 87.6666666667 634 127 670 c 0
 167.666666667 707.333333333 222.333333333 728.333333333 291 733 c 1
 291 838 l 1
 339 838 l 1
 339 734 l 1
 468.333333333 727.333333333 536.666666667 675.666666667 544 579 c 1
 537.333333333 544.333333333 518 527 486 527 c 0
 466 527 450 532.333333333 438 543 c 0
 422 556.333333333 411.666666667 578 407 608 c 2xd6
 391 692 l 1
 374.333333333 696 357 698 339 698 c 1
 339 434 l 1
 351 429 l 2
EndSplineSet
EndChar

StartChar: percent
Encoding: 5 37 4
Width: 989
Flags: W
HStem: -10 26<726.706 785.11> 272 26<204.292 263.556> 426 26<726.706 785.473> 708 26<204.292 263.926> 729 20G<727.36 769.696>
VStem: 66 101<374.591 631.409> 303 99<374.821 631.635> 588 101<92.1567 349.843> 825 100<93.047 349.409>
LayerCount: 2
Fore
SplineSet
222 -12 m 1xef80
 741 749 l 1
 774 726 l 1
 256 -35 l 1
 222 -12 l 1xef80
187 339 m 0
 197.666666667 311.666666667 213 298 233 298 c 0
 254.333333333 298 270.666666667 312 282 340 c 0
 296 374 303 428.333333333 303 503 c 0
 303 578.333333333 296 633 282 667 c 0
 270.666666667 694.333333333 254.333333333 708 233 708 c 0xf780
 213 708 197.666666667 694.333333333 187 667 c 0
 173.666666667 633 167 578.333333333 167 503 c 256
 167 427.666666667 173.666666667 373 187 339 c 0
351 680 m 0
 385 640 402 581 402 503 c 256
 402 425 385 366 351 326 c 0
 321 290 281.666666667 272 233 272 c 0
 185 272 146.333333333 290 117 326 c 0
 83 366.666666667 66 425.666666667 66 503 c 256
 66 580.333333333 83 639.333333333 117 680 c 0
 146.333333333 716 185 734 233 734 c 0
 281.666666667 734 321 716 351 680 c 0
709 57 m 0
 719.666666667 29.6666666667 735.333333333 16 756 16 c 256
 776.666666667 16 792.666666667 30 804 58 c 0
 818 92 825 146.333333333 825 221 c 0
 825 296.333333333 818 351 804 385 c 0
 792.666666667 412.333333333 776.666666667 426 756 426 c 256
 735.333333333 426 719.666666667 412.333333333 709 385 c 0
 695.666666667 351.666666667 689 297 689 221 c 256
 689 145 695.666666667 90.3333333333 709 57 c 0
874 398 m 0
 908 357.333333333 925 298.333333333 925 221 c 256
 925 143.666666667 908 84.6666666667 874 44 c 0
 844 8 804.666666667 -10 756 -10 c 256
 707.333333333 -10 668.333333333 8 639 44 c 0
 605 84 588 143 588 221 c 256
 588 299 605 358 639 398 c 0
 668.333333333 434 707.333333333 452 756 452 c 256
 804.666666667 452 844 434 874 398 c 0
EndSplineSet
EndChar

StartChar: ampersand
Encoding: 6 38 5
Width: 815
Flags: W
HStem: -17 84<248.578 370.29> 0 29<732 776> 452 28<542 591.538 737.167 785> 718 43<272.202 391.082>
VStem: 33 136<146.528 268.183> 128 121<546.567 670.989> 415 111<543.615 695.168>
LayerCount: 2
Fore
SplineSet
455 103 m 1xba
 437.666666667 121.666666667 417.666666667 144.666666667 395 172 c 2
 340 237 l 2
 285.333333333 303 247.333333333 349.333333333 226 376 c 1
 188 334 169 287 169 235 c 0
 169 184.333333333 184.666666667 143.666666667 216 113 c 0
 246.666666667 82.3333333333 286.666666667 67 336 67 c 0
 381.333333333 67 421 79 455 103 c 1xba
249 627 m 0x36
 249 590.333333333 263.333333333 551.333333333 292 510 c 0
 306.666666667 491.333333333 322.333333333 472.333333333 339 453 c 1
 389.666666667 509 415 565 415 621 c 0
 415 685.666666667 388 718 334 718 c 0
 277.333333333 718 249 687.666666667 249 627 c 0x36
703 440 m 1
 687.666666667 385.333333333 672 340.666666667 656 306 c 0
 638 267.333333333 613.666666667 228 583 188 c 1
 652 116 l 1
 732 35 l 1
 777 29 l 1
 776 0 l 1x76
 733.333333333 -10 699 -15 673 -15 c 0
 609.666666667 -15 558 3.33333333333 518 40 c 2
 475 82 l 1
 449.666666667 52.6666666667 420.666666667 29.6666666667 388 13 c 0
 349.333333333 -7 307.666666667 -17 263 -17 c 0
 191 -17 133.666666667 3 91 43 c 0
 52.3333333333 79.6666666667 33 126 33 182 c 0xba
 33 272 92 342.666666667 210 394 c 1
 196 411 l 2
 150.666666667 469 128 527 128 585 c 0
 128 638.333333333 147 681.333333333 185 714 c 0
 223 745.333333333 273 761 335 761 c 0
 462.333333333 761 526 712.333333333 526 615 c 0
 526 543.666666667 469.333333333 483.333333333 356 434 c 1
 563 209 l 1
 599 275.666666667 622.666666667 352.333333333 634 439 c 1
 542 452 l 1
 542 480 l 1
 785 480 l 1
 785 452 l 1
 703 440 l 1
EndSplineSet
EndChar

StartChar: quotesingle
Encoding: 7 39 6
Width: 254
Flags: W
VStem: 49 156<625.562 809.527>
LayerCount: 2
Fore
SplineSet
205 746 m 0
 205 725.333333333 201.333333333 697.666666667 194 663 c 2
 144 459 l 1
 111 459 l 1
 61 664 l 2
 53 698.666666667 49 726 49 746 c 0
 49 801.333333333 75 829 127 829 c 256
 179 829 205 801.333333333 205 746 c 0
EndSplineSet
EndChar

StartChar: parenleft
Encoding: 8 40 7
Width: 418
Flags: W
HStem: 805 20G<307.667 372.909>
VStem: 86 120<150.321 480.366>
LayerCount: 2
Fore
SplineSet
243 61 m 0
 269 -15.6666666667 313 -93.6666666667 375 -173 c 1
 352 -195 l 1
 262.666666667 -121.666666667 197 -45.6666666667 155 33 c 0
 109 117 86 211 86 315 c 256
 86 419 109 513.333333333 155 598 c 0
 197.666666667 676.666666667 263.333333333 752.333333333 352 825 c 1
 375 803 l 1
 311 723.666666667 266.333333333 645.333333333 241 568 c 0
 217.666666667 498 206 413.666666667 206 315 c 0
 206 218.333333333 218.333333333 133.666666667 243 61 c 0
EndSplineSet
EndChar

StartChar: parenright
Encoding: 9 41 8
Width: 418
Flags: W
HStem: 805 20G<45.0909 110.667>
VStem: 212 120<149.634 481.793>
LayerCount: 2
Fore
SplineSet
175 570 m 0
 149 646 105 723.666666667 43 803 c 1
 66 825 l 1
 155.333333333 751.666666667 221.333333333 675.666666667 264 597 c 0
 309.333333333 513 332 419 332 315 c 256
 332 211 309.333333333 116.666666667 264 32 c 0
 220.666666667 -47.3333333333 154.666666667 -123 66 -195 c 1
 43 -173 l 1
 107 -93.6666666667 151.666666667 -15.3333333333 177 62 c 0
 200.333333333 132 212 216.333333333 212 315 c 0
 212 411.666666667 199.666666667 496.666666667 175 570 c 0
EndSplineSet
EndChar

StartChar: asterisk
Encoding: 10 42 9
Width: 493
Flags: W
HStem: 606 103<41.627 127.899 368.312 436.048> 620 89<29.0354 127.521 368.312 462.446>
VStem: 93 89<415.554 483.22> 199 94<685.719 831.617>
LayerCount: 2
Fore
SplineSet
293 787 m 0xb0
 293 777 290.666666667 761.666666667 286 741 c 2
 274 692 l 2
 273.333333333 691.333333333 273 690 273 688 c 2
 253 615 l 1
 376 693 l 2
 396 704.333333333 411 710 421 710 c 0
 452.333333333 710 468 694.666666667 468 664 c 0
 468 643.333333333 457.666666667 629 437 621 c 0
 417 613.666666667 377 608.666666667 317 606 c 2
 257 603 l 1
 304 564 l 2
 369.333333333 512.666666667 402 477 402 457 c 0
 402 425.666666667 386.666666667 410 356 410 c 0
 329.333333333 410 300.333333333 452.666666667 269 538 c 2
 247 597 l 1
 224 538 l 2
 205.333333333 485.333333333 191.333333333 451.666666667 182 437 c 0
 170.666666667 419 156 410 138 410 c 0
 108 410 93 425.666666667 93 457 c 0
 93 473 101.333333333 489.333333333 118 506 c 2
 167 547 l 1
 237 603 l 1
 176 606 l 2xb0
 115.333333333 608.666666667 75.6666666667 613.333333333 57 620 c 0x70
 35 627.333333333 24 641.666666667 24 663 c 0
 24 693.666666667 40.6666666667 709 74 709 c 0
 85.3333333333 709 101 703 121 691 c 0
 128.333333333 687 138.666666667 680.666666667 152 672 c 2
 240 615 l 1
 224 674 l 2
 215.333333333 705.333333333 209.333333333 728 206 742 c 0
 201.333333333 762.666666667 199 777.666666667 199 787 c 0
 199 820.333333333 214.666666667 837 246 837 c 256
 277.333333333 837 293 820.333333333 293 787 c 0xb0
EndSplineSet
EndChar

StartChar: plus
Encoding: 11 43 10
Width: 615
Flags: W
HStem: 340 55<36 279 338 579>
VStem: 279 59<87 340 395 642>
LayerCount: 2
Fore
SplineSet
579 340 m 1
 338 340 l 1
 338 87 l 1
 279 87 l 1
 279 340 l 1
 36 340 l 1
 36 395 l 1
 279 395 l 1
 279 642 l 1
 338 642 l 1
 338 395 l 1
 579 395 l 1
 579 340 l 1
EndSplineSet
EndChar

StartChar: comma
Encoding: 12 44 11
Width: 340
Flags: W
VStem: 79 182<22.2383 135.749>
LayerCount: 2
Fore
SplineSet
138 -7 m 2
 98.6666666667 14.3333333333 79 42.3333333333 79 77 c 0
 79 135.666666667 109.333333333 165 170 165 c 0
 200.666666667 165 225.666666667 155.666666667 245 137 c 1
 255.666666667 110.333333333 261 82.3333333333 261 53 c 0
 261 -13.6666666667 238.333333333 -73.6666666667 193 -127 c 0
 153.666666667 -173 105.666666667 -205.666666667 49 -225 c 1
 37 -196 l 1
 118.333333333 -152.666666667 168.666666667 -98.6666666667 188 -34 c 1
 138 -7 l 2
EndSplineSet
EndChar

StartChar: hyphen
Encoding: 13 45 12
Width: 382
Flags: W
HStem: 250 73<45 336>
VStem: 45 291<250 323>
LayerCount: 2
Fore
SplineSet
45 323 m 1
 336 323 l 1
 336 250 l 1
 45 250 l 1
 45 323 l 1
EndSplineSet
EndChar

StartChar: period
Encoding: 14 46 13
Width: 340
Flags: W
HStem: -16 181<111.038 228.962>
VStem: 78 184<16.0259 131.974>
LayerCount: 2
Fore
SplineSet
105 10 m 0
 87 28 78 49.3333333333 78 74 c 256
 78 98.6666666667 87 120 105 138 c 256
 123 156 144.666666667 165 170 165 c 256
 195.333333333 165 217 156 235 138 c 256
 253 120 262 98.6666666667 262 74 c 256
 262 49.3333333333 253 28 235 10 c 0
 217 -7.33333333333 195.333333333 -16 170 -16 c 256
 144.666666667 -16 123 -7.33333333333 105 10 c 0
EndSplineSet
EndChar

StartChar: slash
Encoding: 15 47 14
Width: 425
Flags: W
LayerCount: 2
Fore
SplineSet
321 804 m 1
 407 804 l 1
 104 -181 l 1
 18 -181 l 1
 321 804 l 1
EndSplineSet
EndChar

StartChar: zero
Encoding: 16 48 15
Width: 608
Flags: W
HStem: -17 35<262.335 345.782> 729 35<262.335 345.782>
VStem: 44 152<196.281 552.204> 414 151<196.78 552.204>
LayerCount: 2
Fore
SplineSet
205 200 m 0
 210.333333333 155.333333333 218 119 228 91 c 0
 245.333333333 42.3333333333 270.666666667 18 304 18 c 256
 337.333333333 18 363 42.3333333333 381 91 c 0
 391.666666667 119.666666667 399.666666667 156.333333333 405 201 c 0
 411 249 414 307 414 375 c 0
 414 442.333333333 411 500 405 548 c 0
 399.666666667 592.666666667 391.666666667 629 381 657 c 0
 363 705 337.333333333 729 304 729 c 256
 270.666666667 729 245.333333333 705 228 657 c 0
 218 629 210.333333333 592.666666667 205 548 c 0
 199 500 196 442.333333333 196 375 c 0
 196 307 199 248.666666667 205 200 c 0
486 671 m 0
 511.333333333 638.333333333 530.666666667 598 544 550 c 0
 558 498.666666667 565 440.333333333 565 375 c 0
 565 309 558 250.333333333 544 199 c 0
 530.666666667 150.333333333 511.333333333 109.666666667 486 77 c 0
 439.333333333 14.3333333333 378.666666667 -17 304 -17 c 256
 229.333333333 -17 168.666666667 14.3333333333 122 77 c 0
 97.3333333333 109.666666667 78.3333333333 150.333333333 65 199 c 0
 51 250.333333333 44 309 44 375 c 0
 44 440.333333333 51 498.666666667 65 550 c 0
 78.3333333333 598 97.3333333333 638.333333333 122 671 c 0
 168.666666667 733 229.333333333 764 304 764 c 256
 378.666666667 764 439.333333333 733 486 671 c 0
EndSplineSet
EndChar

StartChar: one
Encoding: 17 49 16
Width: 608
Flags: W
HStem: 0 31<85 140.611 477.889 530> 661 37<112 143.098> 739 20G<294.148 398>
VStem: 228 168<49 672>
LayerCount: 2
Fore
SplineSet
530 31 m 1
 530 0 l 1
 85 0 l 1
 85 31 l 1
 228 49 l 1
 229 96 l 1
 230 672 l 1
 112 661 l 1
 112 698 l 1
 383 759 l 1
 398 749 l 1
 394 586 l 1
 395 96 l 1
 396 49 l 1
 530 31 l 1
EndSplineSet
EndChar

StartChar: two
Encoding: 18 50 17
Width: 608
Flags: W
HStem: 0 123<141 560> 730 34<217.391 321.981>
VStem: 56 140<570.035 656.06> 380 163<476.242 658.669>
LayerCount: 2
Fore
SplineSet
560 123 m 1
 560 0 l 1
 59 0 l 1
 59 90 l 1
 86.3333333333 119.333333333 114.666666667 150.666666667 144 184 c 0
 169.333333333 212 195.333333333 241.333333333 222 272 c 0
 252.666666667 306.666666667 276.333333333 334.333333333 293 355 c 0
 313.666666667 381 330 404.666666667 342 426 c 0
 367.333333333 470.666666667 380 518.333333333 380 569 c 0
 380 676.333333333 338.666666667 730 256 730 c 0
 242 730 229.333333333 728.666666667 218 726 c 1
 196 627 l 2
 190.666666667 596.333333333 180.666666667 574 166 560 c 0
 154 549.333333333 139 544 121 544 c 0
 91 544 69.3333333333 557.666666667 56 585 c 1
 60.6666666667 641 87.6666666667 685.333333333 137 718 c 0
 184.333333333 748.666666667 242.666666667 764 312 764 c 0
 388 764 446.333333333 744.666666667 487 706 c 0
 524.333333333 670 543 621 543 559 c 0
 543 509.666666667 519.666666667 459.333333333 473 408 c 0
 452.333333333 384.666666667 423.333333333 357.333333333 386 326 c 0
 370.666666667 312.666666667 352 297.333333333 330 280 c 2
 265 228 l 2
 245 212 226 196.333333333 208 181 c 0
 184 161 161.666666667 141.666666667 141 123 c 1
 560 123 l 1
EndSplineSet
EndChar

StartChar: three
Encoding: 19 51 18
Width: 608
Flags: W
HStem: -17 35<201.191 323.796> 369 39<203 317.642> 730 34<229.173 329.738>
VStem: 49 136<83.125 180.28> 80 131<582.337 665.737> 384 159<497.285 672.259> 399 166<98.3492 284.542>
LayerCount: 2
Fore
SplineSet
211 630 m 2xec
 203 584.666666667 178 562 136 562 c 0
 110.666666667 562 92 572.666666667 80 594 c 1
 81.3333333333 650.666666667 104.666666667 694 150 724 c 0
 190.666666667 750.666666667 243.666666667 764 309 764 c 0
 385.666666667 764 444.666666667 747.333333333 486 714 c 0
 524 683.333333333 543 641 543 587 c 0xec
 543 538.333333333 528.666666667 498.333333333 500 467 c 0
 468 431.666666667 418.666666667 407.333333333 352 394 c 1
 427.333333333 382.666666667 482.666666667 358.666666667 518 322 c 0
 549.333333333 288.666666667 565 244.333333333 565 189 c 0
 565 127 540.666666667 77.3333333333 492 40 c 0
 442 2 374.666666667 -17 290 -17 c 0
 138.666666667 -17 58.3333333333 42.3333333333 49 161 c 1
 58.3333333333 191 79 206 111 206 c 0
 152.333333333 206 177 177.333333333 185 120 c 2
 201 22 l 1
 211.666666667 19.3333333333 224 18 238 18 c 0
 345.333333333 18 399 74.6666666667 399 188 c 0xf2
 399 308.666666667 346.666666667 369 242 369 c 2
 203 369 l 1
 203 408 l 1
 237 408 l 2
 335 408 384 465.666666667 384 581 c 0
 384 680.333333333 343.666666667 730 263 730 c 0
 253 730 242 729 230 727 c 1
 211 630 l 2xec
EndSplineSet
EndChar

StartChar: four
Encoding: 20 52 19
Width: 608
Flags: W
HStem: 0 21G<327 469> 187 104<91 327 469 579> 730 20G<344.514 469>
VStem: 327 142<0 187 291 644>
LayerCount: 2
Fore
SplineSet
327 291 m 1
 327 644 l 1
 91 291 l 1
 327 291 l 1
579 187 m 1
 469 187 l 1
 469 0 l 1
 327 0 l 1
 327 187 l 1
 35 187 l 1
 35 271 l 1
 358 750 l 1
 469 750 l 1
 469 291 l 1
 579 291 l 1
 579 187 l 1
EndSplineSet
EndChar

StartChar: five
Encoding: 21 53 20
Width: 608
Flags: W
HStem: -17 35<196.413 325.84> 395 56<165.544 334.931> 623 124<178 545>
VStem: 45 136<78.9966 184.465> 401 171<119.494 323.976>
LayerCount: 2
Fore
SplineSet
164 433 m 1
 204 445 249 451 299 451 c 0
 384.333333333 451 451 431.333333333 499 392 c 0
 547.666666667 351.333333333 572 294.333333333 572 221 c 0
 572 145.666666667 544.333333333 86.6666666667 489 44 c 0
 435.666666667 3.33333333333 365.333333333 -17 278 -17 c 0
 131.333333333 -17 53.6666666667 42.3333333333 45 161 c 1
 57 191 78.6666666667 206 110 206 c 0
 150.666666667 206 174.333333333 179 181 125 c 2
 195 26 l 1
 209 20.6666666667 227.333333333 18 250 18 c 0
 350.666666667 18 401 83 401 213 c 0
 401 334.333333333 350.666666667 395 250 395 c 0
 212 395 176.333333333 389.333333333 143 378 c 1
 114 399 l 1
 138 747 l 1
 545 747 l 1
 545 623 l 1
 178 623 l 1
 164 433 l 1
EndSplineSet
EndChar

StartChar: six
Encoding: 22 54 21
Width: 608
Flags: W
HStem: -17 35<267.137 361.521> 401 58<262.42 398.667> 739 25<484.97 523.68>
VStem: 36 163<161.687 376.795> 411 160<122.829 344.928>
LayerCount: 2
Fore
SplineSet
411 215 m 0
 411 339 375.666666667 401 305 401 c 0
 262.333333333 401 227.666666667 389 201 365 c 1
 199 322 l 1
 199 119.333333333 237.333333333 18 314 18 c 0
 378.666666667 18 411 83.6666666667 411 215 c 0
528 739 m 1
 338 694.333333333 230 581 204 399 c 1
 248 439 302.333333333 459 367 459 c 0
 430.333333333 459 480.333333333 438 517 396 c 0
 553 355.333333333 571 301 571 233 c 0
 571 159 548.333333333 99 503 53 c 0
 455.666666667 6.33333333333 392.666666667 -17 314 -17 c 0
 228.666666667 -17 161 11 111 67 c 0
 61 123.666666667 36 201.333333333 36 300 c 0
 36 420.666666667 81 524.666666667 171 612 c 0
 262.333333333 700.666666667 379.333333333 751.333333333 522 764 c 1
 528 739 l 1
EndSplineSet
EndChar

StartChar: seven
Encoding: 23 55 22
Width: 608
Flags: W
HStem: 0 21G<136 285.761> 623 124<59 472>
LayerCount: 2
Fore
SplineSet
538 747 m 1
 538 670 l 1
 278 0 l 1
 146 0 l 1
 136 10 l 1
 472 623 l 1
 59 623 l 1
 59 747 l 1
 538 747 l 1
EndSplineSet
EndChar

StartChar: eight
Encoding: 24 56 23
Width: 608
Flags: W
HStem: -17 35<236.899 371.327> 729 35<248.643 366.327>
VStem: 51 131<73.7607 238.249> 66 133<537.031 652.185> 408 126<516.887 672.337> 415 144<99.4198 218.467>
LayerCount: 2
Fore
SplineSet
239 332 m 1xe4
 201 288 182 236 182 176 c 0
 182 70.6666666667 222.333333333 18 303 18 c 0
 377.666666667 18 415 57.6666666667 415 137 c 0
 415 176.333333333 402.666666667 210.666666667 378 240 c 0
 350.666666667 272.666666667 304.666666667 303 240 331 c 1
 239 332 l 1xe4
232 698 m 0
 210 676.666666667 199 649 199 615 c 0
 199 579.666666667 209.333333333 548.666666667 230 522 c 0
 256 488.666666667 300 458 362 430 c 1
 392.666666667 476.666666667 408 532 408 596 c 0xd8
 408 684.666666667 374 729 306 729 c 0
 276.666666667 729 252 718.666666667 232 698 c 0
559 197 m 0xc4
 559 131 536 79.3333333333 490 42 c 0
 442.666666667 2.66666666667 375.666666667 -17 289 -17 c 0
 211 -17 151.333333333 -0.333333333333 110 33 c 0
 70.6666666667 63.6666666667 51 105 51 157 c 0xe4
 51 241 106 302.666666667 216 342 c 1
 116 391.333333333 66 464 66 560 c 0
 66 621.333333333 89 671 135 709 c 0
 180.333333333 745.666666667 238.333333333 764 309 764 c 0
 381.666666667 764 438.333333333 746.666666667 479 712 c 0
 515.666666667 680.666666667 534 640.333333333 534 591 c 0xd8
 534 519.666666667 484 462.666666667 384 420 c 1
 500.666666667 364 559 289.666666667 559 197 c 0xc4
EndSplineSet
EndChar

StartChar: nine
Encoding: 25 57 24
Width: 608
Flags: W
HStem: -20 28<110.75 137.195> 290 46<254.48 364.275> 730 34<253.374 347.734>
VStem: 36 160<405.953 622.012> 408 163<336.178 589.662>
LayerCount: 2
Fore
SplineSet
402 361 m 1
 406 394.333333333 408 429.666666667 408 467 c 0
 408 561 398 629.666666667 378 673 c 0
 360 711 334 730 300 730 c 0
 270 730 245.666666667 714.333333333 227 683 c 0
 206.333333333 648.333333333 196 598.333333333 196 533 c 0
 196 401.666666667 239 336 325 336 c 0
 353.666666667 336 379.333333333 344.333333333 402 361 c 1
107 8 m 1
 272.333333333 65.3333333333 369 173 397 331 c 1
 360.333333333 303.666666667 315 290 261 290 c 0
 193.666666667 290 139.666666667 309.333333333 99 348 c 0
 57 388 36 442.666666667 36 512 c 0
 36.6666666667 592 63 655 115 701 c 0
 162.333333333 743 223.333333333 764 298 764 c 0
 384 764 451 736 499 680 c 256
 547 624 571 546 571 446 c 0
 571 327.333333333 529 225.666666667 445 141 c 0
 361.666666667 58.3333333333 250.666666667 4.66666666667 112 -20 c 1
 107 8 l 1
EndSplineSet
EndChar

StartChar: colon
Encoding: 26 58 25
Width: 340
Flags: W
HStem: -16 181<111.038 228.962> 385 181<111.038 228.962>
VStem: 78 184<16.0259 131.974 417.026 533.169>
LayerCount: 2
Fore
SplineSet
105 411 m 0
 87 429 78 450.333333333 78 475 c 0
 78 500.333333333 87 521.666666667 105 539 c 0
 123 557 144.666666667 566 170 566 c 256
 195.333333333 566 217 557 235 539 c 0
 253 521.666666667 262 500.333333333 262 475 c 0
 262 450.333333333 253 429 235 411 c 0
 217 393.666666667 195.333333333 385 170 385 c 256
 144.666666667 385 123 393.666666667 105 411 c 0
105 10 m 0
 87 28 78 49.3333333333 78 74 c 256
 78 98.6666666667 87 120 105 138 c 256
 123 156 144.666666667 165 170 165 c 256
 195.333333333 165 217 156 235 138 c 256
 253 120 262 98.6666666667 262 74 c 256
 262 49.3333333333 253 28 235 10 c 0
 217 -7.33333333333 195.333333333 -16 170 -16 c 256
 144.666666667 -16 123 -7.33333333333 105 10 c 0
EndSplineSet
EndChar

StartChar: semicolon
Encoding: 27 59 26
Width: 340
Flags: W
HStem: 385 181<111.038 228.962>
VStem: 79 182<22.2383 135.749 415.28 534.864>
LayerCount: 2
Fore
SplineSet
105 411 m 0
 87 429 78 450.333333333 78 475 c 0
 78 500.333333333 87 521.666666667 105 539 c 0
 123 557 144.666666667 566 170 566 c 256
 195.333333333 566 217 557 235 539 c 0
 253 521.666666667 262 500.333333333 262 475 c 0
 262 450.333333333 253 429 235 411 c 0
 217 393.666666667 195.333333333 385 170 385 c 256
 144.666666667 385 123 393.666666667 105 411 c 0
138 -7 m 2
 98.6666666667 14.3333333333 79 42.3333333333 79 77 c 0
 79 135.666666667 109.333333333 165 170 165 c 0
 200.666666667 165 225.666666667 155.666666667 245 137 c 1
 255.666666667 110.333333333 261 82.3333333333 261 53 c 0
 261 -13.6666666667 238.333333333 -73.6666666667 193 -127 c 0
 153.666666667 -173 105.666666667 -205.666666667 49 -225 c 1
 37 -196 l 1
 118.333333333 -152.666666667 168.666666667 -98.6666666667 188 -34 c 1
 138 -7 l 2
EndSplineSet
EndChar

StartChar: less
Encoding: 28 60 27
Width: 615
Flags: W
LayerCount: 2
Fore
SplineSet
110 368 m 1
 551 145 l 1
 526 96 l 1
 46 349 l 1
 46 389 l 1
 526 640 l 1
 551 593 l 1
 110 368 l 1
EndSplineSet
EndChar

StartChar: equal
Encoding: 29 61 28
Width: 615
Flags: W
HStem: 221 55<36 579> 459 55<36 579>
LayerCount: 2
Fore
SplineSet
36 221 m 1
 36 276 l 1
 579 276 l 1
 579 221 l 1
 36 221 l 1
36 459 m 1
 36 514 l 1
 579 514 l 1
 579 459 l 1
 36 459 l 1
EndSplineSet
EndChar

StartChar: greater
Encoding: 30 62 29
Width: 615
Flags: W
LayerCount: 2
Fore
SplineSet
569 389 m 1
 569 349 l 1
 90 97 l 1
 65 145 l 1
 505 369 l 1
 65 593 l 1
 90 641 l 1
 569 389 l 1
EndSplineSet
EndChar

StartChar: question
Encoding: 31 63 30
Width: 493
Flags: W
HStem: -16 188<128.188 251.781> 619 150<116.266 220>
VStem: 93 193<18.5344 137.047> 176 32<248 270.556> 375 54<519.033 593.514>
LayerCount: 2
Fore
SplineSet
259 144 m 0xe8
 277 126 286 103.666666667 286 77 c 0
 286 15 253.666666667 -16 189 -16 c 0
 162.333333333 -16 139.666666667 -7 121 11 c 256
 102.333333333 29 93 51 93 77 c 0
 93 103.666666667 102.333333333 126 121 144 c 0
 139.666666667 162.666666667 162.333333333 172 189 172 c 0
 217 172 240.333333333 162.666666667 259 144 c 0xe8
177 619 m 2
 119 627 90 652.333333333 90 695 c 0
 90 733 111.333333333 757.666666667 154 769 c 1
 183.333333333 761.666666667 212.666666667 751.333333333 242 738 c 0
 276 722.666666667 306 705.333333333 332 686 c 0
 362 663.333333333 385 639.333333333 401 614 c 0
 419.666666667 584.666666667 429 554 429 522 c 0
 429 446.666666667 392.666666667 394 320 364 c 2
 272 344 l 2
 233.333333333 328 213 309.333333333 211 288 c 2
 208 248 l 1
 176 248 l 1xd8
 149 335 l 2
 145 348.333333333 143 359.333333333 143 368 c 0
 143 408 172 439 230 461 c 2
 297 486 l 2
 349 507.333333333 375 532.333333333 375 561 c 0
 375 571 372.666666667 581.666666667 368 593 c 1
 177 619 l 2
EndSplineSet
EndChar

StartChar: at
Encoding: 32 64 31
Width: 999
Flags: W
HStem: -177 37<339.907 601.68> 46 72<357 483.881> 46 36<679.268 782.466> 491 53<491.873 594.227> 709 37<429.357 688.312>
VStem: 44 48<96.8008 385.178> 269 124<141.236 327.611> 912 42<244.193 499.613>
LayerCount: 2
Fore
SplineSet
599 464 m 1xdf
 587 482 570.666666667 491 550 491 c 0
 514.666666667 491 482.666666667 470 454 428 c 0
 413.333333333 366.666666667 393 299 393 225 c 0
 393 153.666666667 417.666666667 118 467 118 c 0
 493 118 520 135.333333333 548 170 c 1
 599 464 l 1xdf
675 203 m 2
 667 157 666.666666667 125 674 107 c 0
 681.333333333 90.3333333333 697 82 721 82 c 0
 766.333333333 82 808.333333333 108 847 160 c 0
 867 186.666666667 882.666666667 217.333333333 894 252 c 0
 906 290.666666667 912 332 912 376 c 0
 912 475.333333333 879.333333333 556 814 618 c 0
 749.333333333 678.666666667 666.333333333 709 565 709 c 0
 429 709 315.666666667 662.333333333 225 569 c 0
 136.333333333 478.333333333 92 368 92 238 c 0
 92 120 128.333333333 26.6666666667 201 -42 c 0
 269.666666667 -107.333333333 359.666666667 -140 471 -140 c 0
 557.666666667 -140 636 -121.666666667 706 -85 c 1
 721 -111 l 1
 642.333333333 -155 556 -177 462 -177 c 0
 338.666666667 -177 239.333333333 -142.666666667 164 -74 c 0
 84 -0.666666666667 44 100.666666667 44 230 c 0
 44 375.333333333 93.6666666667 497.333333333 193 596 c 0
 294.333333333 696 421 746 573 746 c 0
 689 746 782 711 852 641 c 0
 920 571.666666667 954 481.333333333 954 370 c 0
 954 318.666666667 946 271.333333333 930 228 c 0
 915.333333333 189.333333333 895 155.666666667 869 127 c 0
 819.666666667 73 764 46 702 46 c 0xbf
 622.666666667 46 573.666666667 78.6666666667 555 144 c 1
 537.666666667 110.666666667 514.666666667 85.6666666667 486 69 c 0
 460 53.6666666667 431.666666667 46 401 46 c 0
 313 46 269 100 269 208 c 0
 269 252 278 296.666666667 296 342 c 0
 312.666666667 384 335 421 363 453 c 0
 413.666666667 513.666666667 471.333333333 544 536 544 c 0
 572.666666667 544 599.333333333 526.333333333 616 491 c 1
 722 543 l 1
 734 534 l 1
 675 203 l 2
EndSplineSet
EndChar

StartChar: A
Encoding: 33 65 32
Width: 761
Flags: W
HStem: 0 34<16 64.4167 194.385 245 408 470.3 686.778 749> 237 35<216 425> 730 20G<318.58 435.789>
LayerCount: 2
Fore
SplineSet
425 272 m 1
 316 614 l 1
 216 272 l 1
 425 272 l 1
749 34 m 1
 749 0 l 1
 408 0 l 1
 408 34 l 1
 497 44 l 1
 436 237 l 1
 206 237 l 1
 151 47 l 1
 245 34 l 1
 245 0 l 1
 16 0 l 1
 16 34 l 1
 99 46 l 1
 325 750 l 1
 429 750 l 1
 669 43 l 1
 749 34 l 1
EndSplineSet
EndChar

StartChar: B
Encoding: 34 66 33
Width: 727
Flags: W
HStem: 0 37<41 101 302 445.634> 373 36<299 420.66> 709 38<63.5 131 302 433.313>
VStem: 134 165<43 373 409 705> 492 162<495.798 655.521> 525 173<122.354 293.844>
LayerCount: 2
Fore
SplineSet
353 37 m 2xf4
 467.666666667 37 525 93 525 205 c 256
 525 317 465.666666667 373 347 373 c 2
 299 373 l 1
 299 201 l 2
 299.666666667 139.666666667 300.666666667 85 302 37 c 1
 353 37 l 2xf4
302 709 m 1
 300.666666667 665.666666667 299.666666667 616.333333333 299 561 c 2
 299 409 l 1
 338 409 l 2
 440.666666667 409 492 461.333333333 492 566 c 0xf8
 492 661.333333333 444.333333333 709 349 709 c 2
 302 709 l 1
393 747 m 2
 484.333333333 747 552 730.333333333 596 697 c 0
 634.666666667 667.666666667 654 626 654 572 c 0xf8
 654 530 639.333333333 495.333333333 610 468 c 0
 574.666666667 435.333333333 519.666666667 412.333333333 445 399 c 1
 532.333333333 390.333333333 597 369.333333333 639 336 c 0
 678.333333333 304.666666667 698 262 698 208 c 0
 698 181.333333333 693 156.666666667 683 134 c 0
 671 108 653 85.6666666667 629 67 c 0
 601.666666667 46.3333333333 567 30.3333333333 525 19 c 0xf4
 478.333333333 6.33333333333 422.666666667 0 358 0 c 2
 41 0 l 1
 41 34 l 1
 131 43 l 1
 132.333333333 89.6666666667 133.333333333 142.666666667 134 202 c 2
 134 553 l 2
 133.333333333 609.666666667 132.333333333 660.333333333 131 705 c 1
 41 713 l 1
 41 747 l 1
 393 747 l 2
EndSplineSet
EndChar

StartChar: C
Encoding: 35 67 34
Width: 708
Flags: W
HStem: -20 39<377.512 551.499> 729 38<375.881 543.256>
VStem: 43 177<227.079 517.043> 598 59<528 552.309> 605 59<194.302 219>
LayerCount: 2
Fore
SplineSet
668 39 m 1xe8
 636 20.3333333333 602.333333333 6 567 -4 c 0
 527.666666667 -14.6666666667 485.666666667 -20 441 -20 c 0
 325 -20 231 12.6666666667 159 78 c 0
 81.6666666667 148.666666667 43 247.333333333 43 374 c 0
 43 438.666666667 54 496.666666667 76 548 c 0
 96.6666666667 596 126.333333333 637 165 671 c 0
 238.333333333 735 333 767 449 767 c 0
 489.666666667 767 527.666666667 762 563 752 c 0
 593.666666667 743.333333333 626.333333333 729.333333333 661 710 c 1
 657 528 l 1
 598 528 l 1xf0
 543 719 l 1
 521 725.666666667 496.666666667 729 470 729 c 0
 396 729 337 700.333333333 293 643 c 0
 244.333333333 580.333333333 220 490.333333333 220 373 c 0
 220 255 244.333333333 165 293 103 c 0
 337 47 397.333333333 19 474 19 c 0
 502 19 528 23.3333333333 552 32 c 1
 605 219 l 1
 664 219 l 1
 668 39 l 1xe8
EndSplineSet
EndChar

StartChar: D
Encoding: 36 68 35
Width: 799
Flags: W
HStem: 0 37<41 101 305 435.144> 709 38<63.5 131 305 444.845>
VStem: 134 169<43 705> 582 174<236.716 519.075>
LayerCount: 2
Fore
SplineSet
349 37 m 2
 423 37 480.333333333 66.6666666667 521 126 c 256
 561.666666667 185.333333333 582 268 582 374 c 0
 582 597.333333333 505.666666667 709 353 709 c 2
 305 709 l 1
 303 553 l 1
 303 196 l 1
 305 37 l 1
 349 37 l 2
369 747 m 2
 490.333333333 747 585.333333333 714 654 648 c 0
 722 582 756 491.333333333 756 376 c 0
 756 259.333333333 720 167.333333333 648 100 c 0
 576 33.3333333333 477 0 351 0 c 2
 41 0 l 1
 41 34 l 1
 131 43 l 1
 132.333333333 88.3333333333 133.333333333 139.666666667 134 197 c 2
 134 550 l 2
 133.333333333 607.333333333 132.333333333 659 131 705 c 1
 41 713 l 1
 41 747 l 1
 369 747 l 2
EndSplineSet
EndChar

StartChar: E
Encoding: 37 69 36
Width: 674
Flags: W
HStem: 0 39<41 86 305 530> 363 36<303 439> 548 21G<548.25 612.101> 708 39<41 101 305 508>
VStem: 134 169<43 363 399 705> 454 50<257 310 458.2 510> 554 58<548 572.348> 576 56<181.435 207>
LayerCount: 2
Fore
SplineSet
634 0 m 1xfd
 41 0 l 1
 41 34 l 1
 131 43 l 1
 132.333333333 87.6666666667 133.333333333 138.666666667 134 196 c 2
 134 550 l 2
 133.333333333 607.333333333 132.333333333 659 131 705 c 1
 41 713 l 1
 41 747 l 1
 613 747 l 1
 612 548 l 1
 554 548 l 1xfe
 508 708 l 1
 305 708 l 1
 303 556 l 1
 303 399 l 1
 439 399 l 1
 454 510 l 1
 504 510 l 1
 504 257 l 1
 454 257 l 1
 440 363 l 1
 303 363 l 1
 303 197 l 1
 305 39 l 1
 530 39 l 1
 576 207 l 1
 632 207 l 1
 634 0 l 1xfd
EndSplineSet
EndChar

StartChar: F
Encoding: 38 70 37
Width: 657
Flags: W
HStem: 0 34<41 111 343.909 412> 363 36<303 440> 548 21G<556.25 619.201> 708 39<41 101 305 516>
VStem: 134 169<45 363 399 705> 455 50<252 307.5 458.2 510> 562 57<548 572.348>
LayerCount: 2
Fore
SplineSet
619 548 m 1
 562 548 l 1
 516 708 l 1
 305 708 l 1
 303 556 l 1
 303 399 l 1
 440 399 l 1
 455 510 l 1
 505 510 l 1
 505 252 l 1
 455 252 l 1
 441 363 l 1
 303 363 l 1
 303 200 l 1
 305 45 l 1
 412 34 l 1
 412 0 l 1
 41 0 l 1
 41 34 l 1
 131 43 l 1
 132.333333333 87.6666666667 133.333333333 138.666666667 134 196 c 2
 134 550 l 2
 133.333333333 607.333333333 132.333333333 659 131 705 c 1
 41 713 l 1
 41 747 l 1
 621 747 l 1
 619 548 l 1
EndSplineSet
EndChar

StartChar: G
Encoding: 39 71 38
Width: 766
Flags: W
HStem: -20 38<376.398 525.282> 333 34<416 473.615 695.75 750> 729 38<377.716 545.79>
VStem: 43 177<227.965 518.788> 526 159<34.2051 320> 599 62<530 554.904>
LayerCount: 2
Fore
SplineSet
750 333 m 1xf8
 688 325 l 1
 686 252.333333333 685 175.666666667 685 95 c 2
 685 46 l 1xf8
 610.333333333 2 529 -20 441 -20 c 0
 321 -20 225 15 153 85 c 0
 79.6666666667 155.666666667 43 252.333333333 43 375 c 0
 43 495 80.3333333333 590.666666667 155 662 c 0
 229 732 326.666666667 767 448 767 c 0
 528.666666667 767 601 749 665 713 c 1
 661 530 l 1
 599 530 l 1xf4
 547 715 l 1
 524.333333333 724.333333333 498.666666667 729 470 729 c 0
 396 729 336.666666667 700 292 642 c 0
 244 578.666666667 220 489.333333333 220 374 c 0
 220 265.333333333 243.333333333 178 290 112 c 0
 334.666666667 49.3333333333 391.333333333 18 460 18 c 0
 484.666666667 18 506.666666667 20.3333333333 526 25 c 1
 526 100 l 2
 526 172 525 245.333333333 523 320 c 1
 416 333 l 1
 416 367 l 1
 750 367 l 1
 750 333 l 1xf8
EndSplineSet
EndChar

StartChar: H
Encoding: 40 72 39
Width: 870
Flags: W
HStem: 0 34<41 110.222 314.375 387 483 548.333 760.556 829> 361 38<301 570> 713 34<41 110.222 314.375 387 483 556.5 752 829>
VStem: 131 170<43 361 399 704> 570 169<43 361 399 705>
LayerCount: 2
Fore
SplineSet
741 705 m 1
 740.333333333 659.666666667 739.666666667 608.333333333 739 551 c 2
 739 197 l 1
 741 43 l 1
 829 34 l 1
 829 0 l 1
 483 0 l 1
 483 34 l 1
 567 43 l 1
 568.333333333 87 569.333333333 138 570 196 c 2
 570 361 l 1
 301 361 l 1
 301 197 l 2
 301.666666667 139 302.666666667 87.3333333333 304 42 c 1
 387 34 l 1
 387 0 l 1
 41 0 l 1
 41 34 l 1
 130 43 l 1
 130.666666667 87.6666666667 131 138.666666667 131 196 c 2
 131 550 l 2
 131 607.333333333 130.666666667 658.666666667 130 704 c 1
 41 713 l 1
 41 747 l 1
 387 747 l 1
 387 713 l 1
 304 705 l 1
 302.666666667 660.333333333 301.666666667 609.666666667 301 553 c 2
 301 399 l 1
 570 399 l 1
 570 552 l 2
 569.333333333 609.333333333 568.333333333 660.333333333 567 705 c 1
 483 713 l 1
 483 747 l 1
 829 747 l 1
 829 713 l 1
 741 705 l 1
EndSplineSet
EndChar

StartChar: I
Encoding: 41 73 40
Width: 436
Flags: W
HStem: 0 34<41 111 324.778 394> 713 34<41 119.75 316.125 394>
VStem: 134 169<43 705>
LayerCount: 2
Fore
SplineSet
305 705 m 1
 304.333333333 659.666666667 303.666666667 608.333333333 303 551 c 2
 303 198 l 1
 305 43 l 1
 394 34 l 1
 394 0 l 1
 41 0 l 1
 41 34 l 1
 131 43 l 1
 132.333333333 87.6666666667 133.333333333 138.666666667 134 196 c 2
 134 550 l 2
 133.333333333 607.333333333 132.333333333 659 131 705 c 1
 41 713 l 1
 41 747 l 1
 394 747 l 1
 394 713 l 1
 305 705 l 1
EndSplineSet
EndChar

StartChar: J
Encoding: 42 74 41
Width: 442
Flags: W
HStem: -191 139<-50.8362 46.6436> 713 34<44 121.778 330.25 409>
VStem: 144 172<140.5 704> 152 164<50.1084 623.5>
LayerCount: 2
Fore
SplineSet
409 713 m 1xe0
 319 705 l 1
 317.666666667 661.666666667 316.666666667 612 316 556 c 2
 316 281 l 2xe0
 316 141 301 40.6666666667 271 -20 c 1
 229 -134 150.666666667 -191 36 -191 c 0
 -24.6666666667 -191 -67 -169.666666667 -91 -127 c 1
 -89.6666666667 -77 -62 -52 -8 -52 c 0
 22.6666666667 -52 52.6666666667 -71.3333333333 82 -110 c 2
 112 -149 l 1
 138.666666667 -116.333333333 152 -46.6666666667 152 60 c 2xd0
 144 704 l 1
 44 713 l 1
 44 747 l 1
 409 747 l 1
 409 713 l 1xe0
EndSplineSet
EndChar

StartChar: K
Encoding: 43 75 42
Width: 785
Flags: W
HStem: 0 34<41 111 314.556 376 469 539 724 794> 713 34<41 119.75 317 387 484 534 692.5 744>
VStem: 134 162<43 281 332 704>
LayerCount: 2
Fore
SplineSet
794 34 m 1
 794 0 l 1
 469 0 l 1
 469 34 l 1
 539 41 l 1
 368 368 l 1
 296 281 l 1
 296 165 l 2
 296 120.333333333 296.333333333 79.6666666667 297 43 c 1
 376 34 l 1
 376 0 l 1
 41 0 l 1
 41 34 l 1
 131 43 l 1
 132.333333333 87.6666666667 133.333333333 138.666666667 134 196 c 2
 134 550 l 2
 133.333333333 607.333333333 132.333333333 659 131 705 c 1
 41 713 l 1
 41 747 l 1
 387 747 l 1
 387 713 l 1
 297 704 l 1
 296.333333333 659.333333333 296 608.333333333 296 551 c 2
 296 332 l 1
 584 699 l 1
 484 713 l 1
 484 747 l 1
 744 747 l 1
 744 713 l 1
 641 699 l 1
 476 499 l 1
 724 41 l 1
 794 34 l 1
EndSplineSet
EndChar

StartChar: L
Encoding: 44 76 43
Width: 651
Flags: W
HStem: 0 39<42 86.5 305 513> 713 34<41 119.75 326.778 403>
VStem: 134 169<43 704> 563 54<198.1 224>
LayerCount: 2
Fore
SplineSet
619 0 m 1
 41 0 l 1
 42 34 l 1
 131 43 l 1
 132.333333333 87 133.333333333 136.333333333 134 191 c 2
 134 550 l 2
 133.333333333 607.333333333 132.333333333 659 131 705 c 1
 41 713 l 1
 41 747 l 1
 403 747 l 1
 403 713 l 1
 305 704 l 1
 303 553 l 1
 303 194 l 1
 305 39 l 1
 513 39 l 1
 563 224 l 1
 617 224 l 1
 619 0 l 1
EndSplineSet
EndChar

StartChar: M
Encoding: 45 77 44
Width: 1014
Flags: W
HStem: 0 34<23 78 241.2 293 621 689.444 902.778 972> 713 34<31 88.0769 894.25 973>
VStem: 137 44<49 644> 710 170<44.0645 649>
LayerCount: 2
Fore
SplineSet
883 705 m 1
 881.666666667 659 880.666666667 607.333333333 880 550 c 2
 880 196 l 2
 880.666666667 138.666666667 881.666666667 87.6666666667 883 43 c 1
 972 34 l 1
 972 0 l 1
 621 0 l 1
 621 34 l 1
 709 43 l 1
 709.666666667 65.6666666667 710 91 710 119 c 0
 710.666666667 138.333333333 711 163 711 193 c 2
 716 649 l 1
 477 0 l 1
 424 0 l 1
 178 644 l 1
 181 481 l 1
 182 49 l 1
 293 34 l 1
 293 0 l 1
 23 0 l 1
 23 34 l 1
 133 48 l 1
 137 700 l 1
 31 713 l 1
 31 747 l 1
 307 747 l 1
 511 216 l 1
 709 747 l 1
 973 747 l 1
 973 713 l 1
 883 705 l 1
EndSplineSet
EndChar

StartChar: N
Encoding: 46 78 45
Width: 825
Flags: W
HStem: 0 34<26 72 241.467 304> 713 34<34 96.125 516 582.5 742.462 792>
VStem: 118 52<49 620> 649 51<223 699> 654 39<223 699>
LayerCount: 2
Fore
SplineSet
792 713 m 1xf0
 700 700 l 1xf0
 693 -2 l 1
 605 -2 l 1
 164 620 l 1
 170 49 l 1
 304 34 l 1
 304 0 l 1
 26 0 l 1
 26 34 l 1
 118 48 l 1
 124 677 l 1
 105 705 l 1
 34 713 l 1
 34 747 l 1
 275 747 l 1
 654 223 l 1xe8
 649 699 l 1
 516 713 l 1
 516 747 l 1
 792 747 l 1
 792 713 l 1xf0
EndSplineSet
EndChar

StartChar: O
Encoding: 47 79 46
Width: 795
Flags: W
HStem: -20 38<330.552 465.204> 729 38<330.731 465.025>
VStem: 43 177<224.647 522.111> 576 176<221.153 525.96>
LayerCount: 2
Fore
SplineSet
263 119 m 0
 293.666666667 51.6666666667 338.666666667 18 398 18 c 0
 456.666666667 18 501.666666667 51.6666666667 533 119 c 0
 561.666666667 181 576 266 576 374 c 0
 576 480.666666667 561.666666667 565.333333333 533 628 c 0
 501.666666667 695.333333333 456.666666667 729 398 729 c 0
 338.666666667 729 293.666666667 695.333333333 263 628 c 0
 234.333333333 566 220 481.333333333 220 374 c 0
 220 266 234.333333333 181 263 119 c 0
646 668 m 0
 716.666666667 596 752 498 752 374 c 0
 752 249.333333333 716.666666667 151.333333333 646 80 c 0
 580.666666667 13.3333333333 498 -20 398 -20 c 256
 298 -20 215.333333333 13 150 79 c 0
 116 113 90 154 72 202 c 0
 52.6666666667 253.333333333 43 310.666666667 43 374 c 0
 43 436.666666667 52.6666666667 493.333333333 72 544 c 0
 90.6666666667 592 116.666666667 633 150 667 c 0
 216 733.666666667 298.666666667 767 398 767 c 256
 497.333333333 767 580 734 646 668 c 0
EndSplineSet
EndChar

StartChar: P
Encoding: 48 80 47
Width: 690
Flags: W
HStem: 0 34<41 111 343.909 412> 299 37<303 419.687> 709 38<63.5 131 305 430.484>
VStem: 134 169<45 299 336 705> 508 156<426.196 625.982>
LayerCount: 2
Fore
SplineSet
305 709 m 1
 304.333333333 663 303.666666667 611 303 553 c 2
 303 336 l 1
 336 336 l 2
 392 336 435.333333333 353.666666667 466 389 c 0
 494 422.333333333 508 468 508 526 c 0
 508 648 453.333333333 709 344 709 c 2
 305 709 l 1
303 299 m 1
 303 178 l 1
 305 45 l 1
 412 34 l 1
 412 0 l 1
 41 0 l 1
 41 34 l 1
 131 43 l 1
 132.333333333 87.6666666667 133.333333333 138.666666667 134 196 c 2
 134 550 l 2
 133.333333333 607.333333333 132.333333333 659 131 705 c 1
 41 713 l 1
 41 747 l 1
 346 747 l 2
 456.666666667 747 538 727.666666667 590 689 c 0
 639.333333333 652.333333333 664 597.666666667 664 525 c 0
 664 457 640 403.666666667 592 365 c 0
 536.666666667 321 453 299 341 299 c 2
 303 299 l 1
EndSplineSet
EndChar

StartChar: Q
Encoding: 49 81 48
Width: 795
Flags: W
HStem: -230 50<535.824 673.506> 729 38<330.731 465.025>
VStem: 43 177<224.968 522.111> 576 176<221.853 525.96>
LayerCount: 2
Fore
SplineSet
263 119 m 0
 293.666666667 51.6666666667 338.666666667 18 398 18 c 0
 456.666666667 18 501.666666667 51.6666666667 533 119 c 0
 561.666666667 181 576 266 576 374 c 0
 576 480.666666667 561.666666667 565.333333333 533 628 c 0
 501.666666667 695.333333333 456.666666667 729 398 729 c 0
 338.666666667 729 293.666666667 695.333333333 263 628 c 0
 234.333333333 566 220 481.333333333 220 374 c 0
 220 266 234.333333333 181 263 119 c 0
707 -190 m 1
 667 -216.666666667 618 -230 560 -230 c 0
 483.333333333 -230 423.333333333 -209.333333333 380 -168 c 0
 338.666666667 -128.666666667 316.666666667 -76.3333333333 314 -11 c 1
 234 7 170 47.6666666667 122 111 c 0
 69.3333333333 180.333333333 43 268 43 374 c 0
 43 436.666666667 52.6666666667 493.333333333 72 544 c 0
 90.6666666667 592 116.666666667 633 150 667 c 0
 216 733.666666667 298.666666667 767 398 767 c 256
 497.333333333 767 580 734 646 668 c 0
 716.666666667 596 752 498 752 374 c 0
 752 266 725 177.333333333 671 108 c 0
 621 44 555 3.66666666667 473 -13 c 1
 470.333333333 -63.6666666667 482.333333333 -104.333333333 509 -135 c 0
 535 -165 570.666666667 -180 616 -180 c 0
 644 -180 670.333333333 -174.333333333 695 -163 c 1
 707 -190 l 1
EndSplineSet
EndChar

StartChar: R
Encoding: 50 82 49
Width: 770
Flags: W
HStem: 0 34<41 111 322.444 394 675 764> 353 37<299 415.916> 709 38<63.5 131 302 441.84>
VStem: 134 165<43 353 390 705> 513 160<478.751 647.422>
LayerCount: 2
Fore
SplineSet
358 390 m 2
 410.666666667 390 450.666666667 406.333333333 478 439 c 0
 501.333333333 467.666666667 513 506.666666667 513 556 c 0
 513 658 461.666666667 709 359 709 c 2
 302 709 l 1
 300.666666667 663.666666667 299.666666667 612.333333333 299 555 c 2
 299 390 l 1
 358 390 l 2
764 34 m 1
 764 0 l 1
 723.333333333 -10 683.666666667 -15 645 -15 c 0
 551.666666667 -15 500.666666667 21 492 93 c 1
 463 231 l 2
 455.666666667 274.333333333 444.333333333 305 429 323 c 0
 411.666666667 343 384.666666667 353 348 353 c 2
 299 353 l 1
 299 197 l 2
 299.666666667 139.666666667 300.666666667 88.3333333333 302 43 c 1
 394 34 l 1
 394 0 l 1
 41 0 l 1
 41 34 l 1
 131 43 l 1
 132.333333333 87.6666666667 133.333333333 138.666666667 134 196 c 2
 134 550 l 2
 133.333333333 607.333333333 132.333333333 659 131 705 c 1
 41 713 l 1
 41 747 l 1
 401 747 l 2
 582.333333333 747 673 684.333333333 673 559 c 0
 673 514.333333333 657 476.666666667 625 446 c 0
 589 410.666666667 534 387.333333333 460 376 c 1
 522 367.333333333 566.666666667 348.666666667 594 320 c 0
 616.666666667 296 632.666666667 257.333333333 642 204 c 2
 675 39 l 1
 764 34 l 1
EndSplineSet
EndChar

StartChar: S
Encoding: 51 83 50
Width: 612
Flags: W
HStem: -20 43<170.145 367.352> 547 21G<460.855 526.104> 725 42<258.447 416.177>
VStem: 58 58<189.019 212> 59 149<536.042 649.274> 421 152<106.499 219.436> 467 58<547 569.784>
LayerCount: 2
Fore
SplineSet
369 444 m 2xea
 444.333333333 410 497 375.666666667 527 341 c 0
 557.666666667 305.666666667 573 260 573 204 c 0
 573 136 548.333333333 82 499 42 c 0
 447.666666667 0.666666666667 376 -20 284 -20 c 0
 190 -20 112.333333333 0 51 40 c 1
 58 212 l 1
 116 212 l 1
 169 38 l 1
 196.333333333 28 229 23 267 23 c 0
 369.666666667 23 421 64.6666666667 421 148 c 0xf4
 421 208.666666667 384.666666667 255 312 287 c 2
 264 308 l 2
 194 339.333333333 143 373 111 409 c 0
 76.3333333333 448.333333333 59 497 59 555 c 0
 59 621.666666667 84 674 134 712 c 0
 182.666666667 748.666666667 248.333333333 767 331 767 c 0
 408.333333333 767 476 748 534 710 c 1
 525 547 l 1
 467 547 l 1
 416 713 l 1
 398 721 376.333333333 725 351 725 c 0
 255.666666667 725 208 685.333333333 208 606 c 0
 208 546.666666667 244 500.666666667 316 468 c 2
 369 444 l 2xea
EndSplineSet
EndChar

StartChar: T
Encoding: 52 84 51
Width: 714
Flags: W
HStem: 0 34<169 239.7 473.6 545> 708 39<132 270 443 582>
VStem: 23 59<533 557.5> 272 169<44 708> 633 58<533 557.02>
LayerCount: 2
Fore
SplineSet
443 708 m 1
 442.333333333 662 441.666666667 610.333333333 441 553 c 2
 441 198 l 1
 443 44 l 1
 545 34 l 1
 545 0 l 1
 169 0 l 1
 169 34 l 1
 270 44 l 1
 272 196 l 1
 272 552 l 1
 270 708 l 1
 132 708 l 1
 82 533 l 1
 23 533 l 1
 27 747 l 1
 687 747 l 1
 691 533 l 1
 633 533 l 1
 582 708 l 1
 443 708 l 1
EndSplineSet
EndChar

StartChar: U
Encoding: 53 85 52
Width: 829
Flags: W
HStem: -20 82<378.106 537.08> 713 34<36 111.25 317.333 392 533 586.2 753.933 802>
VStem: 125 168<163.156 704> 651 44<167.875 698>
LayerCount: 2
Fore
SplineSet
802 713 m 1
 699 698 l 1
 695 314 l 2
 692.333333333 91.3333333333 599.666666667 -20 417 -20 c 0
 325 -20 255 3.33333333333 207 50 c 0
 152.333333333 102.666666667 125 185 125 297 c 2
 125 555 l 2
 124.333333333 610.333333333 123.333333333 660.333333333 122 705 c 1
 36 713 l 1
 36 747 l 1
 392 747 l 1
 392 713 l 1
 296 704 l 1
 294.666666667 660.666666667 293.666666667 611 293 555 c 2
 293 312 l 2
 293 223.333333333 308 158.666666667 338 118 c 0
 366.666666667 80.6666666667 410.666666667 62 470 62 c 0
 592.666666667 62 653 146.666666667 651 316 c 2
 647 698 l 1
 533 713 l 1
 533 747 l 1
 802 747 l 1
 802 713 l 1
EndSplineSet
EndChar

StartChar: V
Encoding: 54 86 53
Width: 744
Flags: W
HStem: 716 31<6 47.4 307 359 494 536 704 740>
LayerCount: 2
Fore
SplineSet
740 717 m 1
 656 702 l 1
 420 -2 l 1
 329 -2 l 1
 75 706 l 1
 6 713 l 1
 6 747 l 1
 359 747 l 1
 359 716 l 1
 255 704 l 1
 438 161 l 1
 599 701 l 1
 494 716 l 1
 494 747 l 1
 740 747 l 1
 740 717 l 1
EndSplineSet
EndChar

StartChar: W
Encoding: 55 87 54
Width: 1111
Flags: W
HStem: 713 34<9 77 273.889 347 446 505.818 711.167 773 858 908.615 1050 1099>
LayerCount: 2
Fore
SplineSet
1099 713 m 1
 1008 700 l 1
 806 -2 l 1
 713 -2 l 1
 545 558 l 1
 377 -2 l 1
 286 -2 l 1
 77 706 l 1
 9 713 l 1
 9 747 l 1
 347 747 l 1
 347 713 l 1
 253 704 l 1
 390 174 l 1
 540 702 l 1
 446 713 l 1
 446 747 l 1
 773 747 l 1
 773 713 l 1
 667 701 l 1
 815 172 l 1
 952 700 l 1
 858 713 l 1
 858 747 l 1
 1099 747 l 1
 1099 713 l 1
EndSplineSet
EndChar

StartChar: X
Encoding: 56 88 55
Width: 739
Flags: W
HStem: 0 34<25 62.2857 216.923 258 366 426.667 667.667 723> 713 34<19 92.5 306.222 377 457 507.75 641.615 696>
LayerCount: 2
Fore
SplineSet
723 34 m 1
 723 0 l 1
 366 0 l 1
 366 34 l 1
 457 43 l 1
 316 306 l 1
 169 47 l 1
 258 33 l 1
 258 0 l 1
 25 0 l 1
 25 34 l 1
 112 48 l 1
 298 340 l 1
 103 705 l 1
 19 713 l 1
 19 747 l 1
 377 747 l 1
 377 713 l 1
 286 704 l 1
 411 471 l 1
 544 701 l 1
 457 713 l 1
 457 747 l 1
 696 747 l 1
 696 713 l 1
 595 700 l 1
 429 438 l 1
 640 43 l 1
 723 34 l 1
EndSplineSet
EndChar

StartChar: Y
Encoding: 57 89 56
Width: 708
Flags: W
HStem: 0 34<169 239.7 473.6 545> 713 34<14 69 291.7 361 475 527.769 661.167 709>
VStem: 272 169<44 293>
LayerCount: 2
Fore
SplineSet
441 321 m 1
 441 160 l 1
 443 44 l 1
 545 34 l 1
 545 0 l 1
 169 0 l 1
 169 34 l 1
 270 44 l 1
 272 151 l 1
 272 293 l 1
 69 708 l 1
 14 713 l 1
 14 747 l 1
 361 747 l 1
 361 713 l 1
 262 703 l 1
 419 362 l 1
 573 700 l 1
 475 713 l 1
 475 747 l 1
 709 747 l 1
 709 713 l 1
 627 701 l 1
 441 321 l 1
EndSplineSet
EndChar

StartChar: Z
Encoding: 58 90 57
Width: 638
Flags: W
HStem: 0 39<208 497> 708 39<153 419>
VStem: 40 61<533 556.558> 553 54<200 223>
LayerCount: 2
Fore
SplineSet
607 223 m 1
 604 0 l 1
 25 0 l 1
 25 48 l 1
 419 708 l 1
 153 708 l 1
 101 533 l 1
 40 533 l 1
 51 747 l 1
 600 747 l 1
 600 700 l 1
 208 39 l 1
 497 39 l 1
 553 223 l 1
 607 223 l 1
EndSplineSet
EndChar

StartChar: bracketleft
Encoding: 59 91 58
Width: 387
Flags: W
HStem: -180 38<285.091 364> 772 38<285.091 364>
VStem: 117 121<-131 761>
LayerCount: 2
Fore
SplineSet
240 761 m 1
 239.333333333 715.666666667 238.666666667 664.333333333 238 607 c 2
 238 24 l 1
 240 -131 l 1
 364 -142 l 1
 364 -180 l 1
 113 -180 l 1
 115 -128 116.333333333 -68.6666666667 117 -2 c 2
 117 631 l 1
 113 810 l 1
 364 810 l 1
 364 772 l 1
 240 761 l 1
EndSplineSet
EndChar

StartChar: backslash
Encoding: 60 92 59
Width: 425
Flags: W
LayerCount: 2
Fore
SplineSet
320 -181 m 1
 17 804 l 1
 103 804 l 1
 407 -181 l 1
 320 -181 l 1
EndSplineSet
EndChar

StartChar: bracketright
Encoding: 61 93 60
Width: 387
Flags: W
HStem: -180 38<24 102.273> 772 38<24 102.273>
VStem: 150 121<-131 761>
LayerCount: 2
Fore
SplineSet
271 0 m 1
 274 -180 l 1
 24 -180 l 1
 24 -142 l 1
 147 -131 l 1
 148.333333333 -85.6666666667 149.333333333 -34.3333333333 150 23 c 2
 150 606 l 2
 149.333333333 663.333333333 148.333333333 715 147 761 c 1
 24 772 l 1
 24 810 l 1
 274 810 l 1
 272.666666667 758 271.666666667 698.666666667 271 632 c 2
 271 0 l 1
EndSplineSet
EndChar

StartChar: asciicircum
Encoding: 62 94 61
Width: 615
Flags: W
LayerCount: 2
Fore
SplineSet
487 218 m 1
 307 507 l 1
 129 218 l 1
 83 249 l 1
 283 572 l 1
 331 572 l 1
 534 249 l 1
 487 218 l 1
EndSplineSet
EndChar

StartChar: underscore
Encoding: 63 95 62
Width: 608
Flags: W
HStem: -87 72<45 563>
LayerCount: 2
Fore
SplineSet
45 -15 m 1
 563 -15 l 1
 563 -87 l 1
 45 -87 l 1
 45 -15 l 1
EndSplineSet
EndChar

StartChar: grave
Encoding: 64 96 63
Width: 453
Flags: W
HStem: 637 237
VStem: 101 222
LayerCount: 2
Fore
SplineSet
301 637 m 1
 279.666666667 654.333333333 236.666666667 685 172 729 c 0
 124.666666667 759.666666667 101 789 101 817 c 0
 101 855 119.333333333 874 156 874 c 0
 188 874 216 851.666666667 240 807 c 2
 288 715 l 1
 323 654 l 1
 301 637 l 1
EndSplineSet
EndChar

StartChar: a
Encoding: 65 97 64
Width: 599
Flags: W
HStem: -17 68<136.333 277.733> -17 54<440.667 552.446> 305 27<323.615 350> 528 35<208.418 315.435>
VStem: 39 149<71.5586 199.654> 350 156<79.0762 305 332 469.867>
LayerCount: 2
Fore
SplineSet
350 305 m 1xbc
 324.666666667 298.333333333 306.333333333 292.666666667 295 288 c 0
 223.666666667 258.666666667 188 209 188 139 c 0
 188 80.3333333333 213 51 263 51 c 0
 286.333333333 51 315.333333333 66.3333333333 350 97 c 1
 350 305 l 1xbc
152 510 m 1
 136 504 l 1
 152 510 l 1
599 61 m 1
 575.666666667 9 533.333333333 -17 472 -17 c 0x7c
 409.333333333 -17 370 12 354 70 c 1
 325.333333333 38.6666666667 300.666666667 17.3333333333 280 6 c 0
 254 -9.33333333333 222.333333333 -17 185 -17 c 0xbc
 87.6666666667 -17 39 28.3333333333 39 119 c 0
 39 165 54.3333333333 201.666666667 85 229 c 0
 116.333333333 257 172 282.666666667 252 306 c 2
 350 332 l 1
 350 393 l 2
 350 445 343 480.666666667 329 500 c 0
 314.333333333 518.666666667 288 528 250 528 c 0
 235.333333333 528 221.333333333 526.666666667 208 524 c 1
 201 453 l 1
 198.333333333 389.666666667 173.333333333 358 126 358 c 0
 88 358 65 375 57 409 c 1
 65.6666666667 511.666666667 149 563 307 563 c 0
 439.666666667 563 506 494.333333333 506 357 c 2
 506 88 l 2
 506 54 516.333333333 37 537 37 c 0x7c
 551 37 566 49.6666666667 582 75 c 1
 599 61 l 1
EndSplineSet
EndChar

StartChar: b
Encoding: 66 98 65
Width: 689
Flags: W
HStem: -17 71<323.661 454.889> 0 31<36 102> 494 69<332.232 464.333> 757 26<31 66.9767> 806 20G<149.209 266>
VStem: 104 161<68.4648 478.502 493 750> 482 172<144.11 413.432>
LayerCount: 2
Fore
SplineSet
265 82 m 1xbe
 289 63.3333333333 317 54 349 54 c 0
 389.666666667 54 420.666666667 68.6666666667 442 98 c 0
 468.666666667 134.666666667 482 195 482 279 c 0
 482 353 469.666666667 408.333333333 445 445 c 0
 423 477.666666667 392 494 352 494 c 0
 317.333333333 494 288.333333333 484 265 464 c 1
 265 82 l 1xbe
263 493 m 1
 310.333333333 539.666666667 366.666666667 563 432 563 c 0
 496.666666667 563 549.333333333 538.333333333 590 489 c 0
 632.666666667 437 654 365.666666667 654 275 c 0
 654 191 632.666666667 121.666666667 590 67 c 0
 546 11 489.333333333 -17 420 -17 c 0
 355.333333333 -17 302.333333333 6.66666666667 261 54 c 1xbe
 240 -15 l 1
 36 0 l 1
 36 31 l 1x7e
 102 37 l 1
 102.666666667 68.3333333333 103 102 103 138 c 2
 104 238 l 1
 104 750 l 1
 31 757 l 1
 31 783 l 1
 252 826 l 1
 266 817 l 1
 263 656 l 1
 263 493 l 1
EndSplineSet
EndChar

StartChar: c
Encoding: 67 99 66
Width: 579
Flags: W
HStem: -17 71<299.45 427.775> 528 35<295.229 386.906>
VStem: 35 170<164.23 390.441>
LayerCount: 2
Fore
SplineSet
387 526 m 1
 373.666666667 527.333333333 364.333333333 528 359 528 c 0
 313.666666667 528 277 507 249 465 c 0
 219.666666667 421.666666667 205 362.666666667 205 288 c 0
 205 214.666666667 221.666666667 157 255 115 c 0
 287 74.3333333333 330.333333333 54 385 54 c 0
 438.333333333 54 484 77.6666666667 522 125 c 1
 542 112 l 1
 494.666666667 26 418.666666667 -17 314 -17 c 0
 234.666666667 -17 169.333333333 8 118 58 c 0
 62.6666666667 110.666666667 35 182 35 272 c 256
 35 362 64.6666666667 433.666666667 124 487 c 0
 180 537.666666667 251.333333333 563 338 563 c 0
 393.333333333 563 440.333333333 547.666666667 479 517 c 0
 515.666666667 487.666666667 537.333333333 450 544 404 c 1
 534 368.666666667 512 351 478 351 c 0
 427.333333333 351 400.333333333 383.666666667 397 449 c 1
 387 526 l 1
EndSplineSet
EndChar

StartChar: d
Encoding: 68 100 67
Width: 673
Flags: W
HStem: -17 71<235.333 361.895> 0 31<581 646> 494 69<272.832 370.463> 757 26<344 380.953> 806 20G<465.419 585>
VStem: 35 172<137.126 401.214> 420 161<66.2891 481.711 495 749>
LayerCount: 2
Fore
SplineSet
420 468 m 1xbe
 398 485.333333333 373.333333333 494 346 494 c 0
 304 494 271.333333333 478.666666667 248 448 c 0
 220.666666667 411.333333333 207 353.666666667 207 275 c 0
 207 197.666666667 220 140.333333333 246 103 c 0
 268.666666667 70.3333333333 300.666666667 54 342 54 c 0
 372 54 398 62.6666666667 420 80 c 1
 420 468 l 1xbe
646 31 m 1x7e
 646 0 l 1x7e
 432 -12 l 1
 424 50 l 1
 379.333333333 5.33333333333 327.666666667 -17 269 -17 c 0xbe
 201.666666667 -17 146.333333333 8 103 58 c 0
 57.6666666667 110.666666667 35 181 35 269 c 0
 35 360.333333333 59.3333333333 433 108 487 c 0
 153.333333333 537.666666667 211.666666667 563 283 563 c 0
 339.666666667 563 387.333333333 540.333333333 426 495 c 1
 426 749 l 1
 344 757 l 1
 344 783 l 1
 571 826 l 1
 585 817 l 1
 581 657 l 1
 581 35 l 1
 646 31 l 1x7e
EndSplineSet
EndChar

StartChar: e
Encoding: 69 101 68
Width: 586
Flags: W
HStem: -17 71<297.418 432.541> 274 37<206 384.349> 528 35<265.185 363.518>
VStem: 35 171<159.307 274 311 392.378> 401 151<323.231 441.244>
LayerCount: 2
Fore
SplineSet
342 310 m 2
 381.333333333 310 401 338.333333333 401 395 c 0
 401 483.666666667 370.666666667 528 310 528 c 0
 280.666666667 528 257 511.333333333 239 478 c 0
 219 440 208 384.333333333 206 311 c 1
 342 310 l 2
545 118 m 1
 502.333333333 28 428 -17 322 -17 c 0
 237.333333333 -17 169 8.33333333333 117 59 c 0
 62.3333333333 111.666666667 35 183.666666667 35 275 c 0
 35 364.333333333 64.6666666667 436 124 490 c 0
 178.666666667 538.666666667 244.333333333 563 321 563 c 0
 393.666666667 563 451 541 493 497 c 0
 532.333333333 455 552 401 552 335 c 0
 552 309.666666667 550 289.333333333 546 274 c 1
 206 274 l 1
 208.666666667 200 226.666666667 144 260 106 c 0
 290 71.3333333333 330 54 380 54 c 0
 440.666666667 54 489.333333333 79.3333333333 526 130 c 1
 545 118 l 1
EndSplineSet
EndChar

StartChar: f
Encoding: 70 102 69
Width: 409
Flags: W
HStem: 0 31<33 102 280.375 360> 505 41<266 394> 505 32<26 88.2222> 695 142<380.306 470.17>
VStem: 104 162<39 505>
LayerCount: 2
Fore
SplineSet
106 546 m 1xd8
 111.333333333 599.333333333 123 644.666666667 141 682 c 0
 155 713.333333333 174.333333333 741 199 765 c 0
 251.666666667 813 312.333333333 837 381 837 c 0
 413.666666667 837 441 831.333333333 463 820 c 0
 487.666666667 807.333333333 503 788.333333333 509 763 c 1
 509 717.666666667 485 695 437 695 c 0
 397 695 365.333333333 720 342 770 c 2
 326 801 l 1
 315.333333333 795 307.666666667 788 303 780 c 0
 273 736 260 658 264 546 c 1
 394 546 l 1
 394 505 l 1
 266 505 l 1xd8
 266 238 l 2
 266 172.666666667 267 106.333333333 269 39 c 1
 360 31 l 1
 360 0 l 1
 33 0 l 1
 33 31 l 1
 102 37 l 1
 104 238 l 1
 104 505 l 1
 26 505 l 1
 26 537 l 1xb8
 106 546 l 1xd8
EndSplineSet
EndChar

StartChar: g
Encoding: 71 103 70
Width: 611
Flags: W
HStem: -259 44<164.01 403.326> -35 134<151.022 436.973> 190 31<232.062 324.771> 533 30<234.669 324.137>
VStem: 23 94<-170.838 -64.7657> 46 145<288.283 466.813> 50 89<61 164.667> 367 142<288.856 467.253> 459 126<-134.6 -29>
LayerCount: 2
Fore
SplineSet
367 378 m 0xf5
 367 481.333333333 337.666666667 533 279 533 c 256
 220.333333333 533 191 481.333333333 191 378 c 0
 191 273.333333333 220 221 278 221 c 0
 337.333333333 221 367 273.333333333 367 378 c 0xf5
261 -35 m 2
 207.666666667 -35 168 -31.3333333333 142 -24 c 1
 125.333333333 -45.3333333333 117 -71 117 -101 c 0
 117 -177 165.666666667 -215 263 -215 c 0
 393.666666667 -215 459 -182 459 -116 c 0xf880
 459 -62 430 -35 372 -35 c 2
 261 -35 l 2
596 474 m 1
 475 487 l 1
 497.666666667 457.666666667 509 421.333333333 509 378 c 0
 509 322.666666667 490 278.333333333 452 245 c 0
 410.666666667 208.333333333 352.666666667 190 278 190 c 0
 231.333333333 190 190.666666667 197.333333333 156 212 c 1
 144.666666667 193.333333333 139 174.333333333 139 155 c 0xf3
 139 117.666666667 165.333333333 99 218 99 c 2
 365 99 l 2
 441.666666667 99 498.333333333 85 535 57 c 0
 568.333333333 31.6666666667 585 -5 585 -53 c 0
 585 -111.666666667 557.666666667 -160 503 -198 c 0
 444.333333333 -238.666666667 364.666666667 -259 264 -259 c 0
 178.666666667 -259 115.666666667 -245.333333333 75 -218 c 0
 40.3333333333 -195.333333333 23 -163.666666667 23 -123 c 0xf880
 23 -76.3333333333 56.3333333333 -40 123 -14 c 1
 74.3333333333 8 50 40 50 82 c 0xf2
 50 124.666666667 78.6666666667 171.333333333 136 222 c 1
 76 254.666666667 46 306.666666667 46 378 c 0xf4
 46 434 65 478.333333333 103 511 c 0
 144.333333333 545.666666667 203 563 279 563 c 0
 352.333333333 563 409.333333333 546 450 512 c 1
 578 563 l 1
 596 552 l 1
 596 474 l 1
EndSplineSet
EndChar

StartChar: h
Encoding: 72 104 71
Width: 700
Flags: W
HStem: 0 31<36 102 267 325 384 448 614 674> 488 75<359.821 503.333> 757 26<31 66.9767> 806 20G<149.209 266>
VStem: 104 162<37 452.352 462 750> 450 162<37 462.263>
LayerCount: 2
Fore
SplineSet
674 31 m 1
 674 0 l 1
 384 0 l 1
 384 31 l 1
 448 37 l 1
 448.666666667 69 449 102.666666667 449 138 c 0
 449.666666667 177.333333333 450 210.666666667 450 238 c 2
 450 382 l 2
 450 452.666666667 425.666666667 488 377 488 c 0
 342.333333333 488 305 470 265 434 c 1
 266 138 l 2
 266 102 266.333333333 68 267 36 c 1
 325 31 l 1
 325 0 l 1
 36 0 l 1
 36 31 l 1
 102 37 l 1
 102.666666667 69 103 103 103 139 c 0
 103.666666667 178.333333333 104 211.333333333 104 238 c 2
 104 750 l 1
 31 757 l 1
 31 783 l 1
 252 826 l 1
 266 817 l 1
 263 656 l 1
 263 462 l 1
 319.666666667 529.333333333 381.666666667 563 449 563 c 0
 557.666666667 563 612 498 612 368 c 2
 612 238 l 2
 612 210 612.333333333 176.333333333 613 137 c 0
 613 101.666666667 613.333333333 68 614 36 c 1
 674 31 l 1
EndSplineSet
EndChar

StartChar: i
Encoding: 73 105 72
Width: 358
Flags: W
HStem: 0 31<37 103 268 329> 478 24<27 53.7167> 542 20G<179.667 270> 662 163<116.177 248.588>
VStem: 96 173<682.25 804.5> 105 162<37 470>
LayerCount: 2
Fore
SplineSet
96 743 m 0xf8
 96 797.666666667 124.666666667 825 182 825 c 0
 240 825 269 797.666666667 269 743 c 0
 269 689 240 662 182 662 c 0
 124.666666667 662 96 689 96 743 c 0xf8
329 31 m 1
 329 0 l 1
 37 0 l 1
 37 31 l 1
 103 37 l 1
 103.666666667 69 104 103 104 139 c 0
 104.666666667 178.333333333 105 211.333333333 105 238 c 2
 105 318 l 2
 105 348 104.666666667 375 104 399 c 0
 104 419 103.333333333 442.666666667 102 470 c 1
 27 478 l 1
 27 502 l 1
 256 562 l 1
 270 552 l 1
 266 392 l 1
 267 138 l 2xf4
 267 102 267.333333333 68.3333333333 268 37 c 1
 329 31 l 1
EndSplineSet
EndChar

StartChar: j
Encoding: 74 106 73
Width: 347
Flags: W
HStem: -271 144<-79.6375 23.5718> 478 24<24 50.7167> 542 20G<176.667 265> 662 163<112.177 243.823>
VStem: 92 172<682.25 804.5> 101 161<-115.552 470>
LayerCount: 2
Fore
SplineSet
92 743 m 0xf8
 92 797.666666667 120.666666667 825 178 825 c 256
 235.333333333 825 264 797.666666667 264 743 c 0
 264 689 235.333333333 662 178 662 c 256
 120.666666667 662 92 689 92 743 c 0xf8
265 552 m 1
 262 392 l 1
 262 73 l 2
 262 -1.66666666667 256.666666667 -58.3333333333 246 -97 c 0
 236 -133.666666667 217.666666667 -166.333333333 191 -195 c 0
 164.333333333 -223 136.333333333 -243 107 -255 c 0
 81 -265.666666667 51.6666666667 -271 19 -271 c 0
 -21 -271 -53.6666666667 -264 -79 -250 c 0
 -99.6666666667 -238.666666667 -115 -223 -125 -203 c 1
 -119.666666667 -152.333333333 -91.3333333333 -127 -40 -127 c 0
 2.66666666667 -127 34 -147.333333333 54 -188 c 2
 73 -226 l 1
 81 -217.333333333 86.6666666667 -207 90 -195 c 0
 97.3333333333 -173 101.333333333 -133.333333333 102 -76 c 2
 102 30 l 2
 101.333333333 38.6666666667 101 46 101 52 c 2
 101 313 l 2xf4
 101 375.666666667 99.6666666667 428 97 470 c 1
 24 478 l 1
 24 502 l 1
 253 562 l 1
 265 552 l 1
EndSplineSet
EndChar

StartChar: k
Encoding: 75 107 74
Width: 673
Flags: W
HStem: 0 31<35 102 267 330 613.125 670> 516 30<380 438.917 572.4 641> 757 26<31 67.4651> 806 20G<150.814 269>
VStem: 104 161<37 253 295 750>
LayerCount: 2
Fore
SplineSet
670 31 m 1
 670 0 l 1
 452 0 l 1
 310 294 l 1
 265 253 l 1
 266 141 l 2
 266 102.333333333 266.333333333 67.6666666667 267 37 c 1
 330 31 l 1
 330 0 l 1
 35 0 l 1
 35 31 l 1
 102 37 l 1
 102.666666667 67.6666666667 103 102 103 140 c 2
 104 238 l 1
 104 750 l 1
 31 757 l 1
 31 783 l 1
 255 826 l 1
 269 817 l 1
 265 656 l 1
 265 295 l 1
 481 504 l 1
 380 516 l 1
 380 546 l 1
 641 546 l 1
 641 516 l 1
 543 506 l 1
 423 396 l 1
 605 39 l 1
 670 31 l 1
EndSplineSet
EndChar

StartChar: l
Encoding: 76 108 75
Width: 366
Flags: W
HStem: 0 31<33 102 268 336> 757 26<31 67.4651> 806 20G<150.814 269>
VStem: 104 161<37 750>
LayerCount: 2
Fore
SplineSet
336 31 m 1
 336 0 l 1
 33 0 l 1
 33 31 l 1
 102 37 l 1
 104 238 l 1
 104 750 l 1
 31 757 l 1
 31 783 l 1
 255 826 l 1
 269 817 l 1
 265 656 l 1
 265 238 l 2
 265 169.333333333 266 102.333333333 268 37 c 1
 336 31 l 1
EndSplineSet
EndChar

StartChar: m
Encoding: 77 109 76
Width: 1025
Flags: W
HStem: 0 31<33 100 265 322 376 440 603 659 716 776 939 999> 476 23<24 48.1111> 487 76<355.077 480.667 686.834 828.333>
VStem: 102 162<37 448.711> 442 158<37 427.248> 778 159<37 463.593>
LayerCount: 2
Fore
SplineSet
999 31 m 1xbc
 999 0 l 1
 716 0 l 1
 716 31 l 1
 776 37 l 1
 776.666666667 69 777 102.666666667 777 138 c 0
 777.666666667 177.333333333 778 210.666666667 778 238 c 2
 778 373 l 2
 778 449 754.666666667 487 708 487 c 0
 672.666666667 487 635.333333333 467.333333333 596 428 c 1
 598.666666667 412 600 392.666666667 600 370 c 2
 600 238 l 2
 600 206 600.333333333 172.333333333 601 137 c 2
 603 36 l 1
 659 31 l 1
 659 0 l 1
 376 0 l 1
 376 31 l 1
 440 37 l 1
 440.666666667 69 441 102.666666667 441 138 c 0
 441.666666667 177.333333333 442 210.666666667 442 238 c 2
 442 373 l 2
 442 449 419 487 373 487 c 0xbc
 339.666666667 487 303 467.666666667 263 429 c 1
 264 138 l 2
 264 102 264.333333333 68 265 36 c 1
 322 31 l 1
 322 0 l 1
 33 0 l 1
 33 31 l 1
 100 37 l 1
 100.666666667 69 101 103 101 139 c 0
 101.666666667 178.333333333 102 211.333333333 102 238 c 2
 102 321 l 2
 102 351.666666667 101.666666667 378.333333333 101 401 c 0
 101 418.333333333 100.333333333 440.666666667 99 468 c 1
 24 476 l 1
 24 499 l 1xdc
 241 562 l 1
 255 552 l 1
 262 463 l 1
 318 529.666666667 378 563 442 563 c 0
 519.333333333 563 568.333333333 528.333333333 589 459 c 1
 647 528.333333333 708.666666667 563 774 563 c 0
 882.666666667 563 937 496.666666667 937 364 c 2
 937 238 l 2
 937 210 937.333333333 176.333333333 938 137 c 0
 938 101.666666667 938.333333333 68.3333333333 939 37 c 1
 999 31 l 1xbc
EndSplineSet
EndChar

StartChar: n
Encoding: 78 110 77
Width: 697
Flags: W
HStem: 0 31<33 100 265 322 381 444 611 671> 475 24<24 48.1111> 488 75<353.357 501.333>
VStem: 102 162<37 448.91> 446 162<37 467.584>
LayerCount: 2
Fore
SplineSet
671 31 m 1xb8
 671 0 l 1
 381 0 l 1
 381 31 l 1
 444 37 l 1
 444.666666667 69 445 102.666666667 445 138 c 0
 445.666666667 177.333333333 446 210.666666667 446 238 c 2
 446 382 l 2
 446 452.666666667 423 488 377 488 c 0xb8
 344.333333333 488 306.333333333 469 263 431 c 1
 264 138 l 2
 264 102 264.333333333 68 265 36 c 1
 322 31 l 1
 322 0 l 1
 33 0 l 1
 33 31 l 1
 100 37 l 1
 100.666666667 69 101 103 101 139 c 0
 101.666666667 178.333333333 102 211.333333333 102 238 c 2
 102 321 l 2
 102 351.666666667 101.666666667 378 101 400 c 0
 101 418.666666667 100.333333333 441 99 467 c 1
 24 475 l 1
 24 499 l 1xd8
 241 562 l 1
 255 552 l 1
 261 464 l 1
 293 500.666666667 324.333333333 526.666666667 355 542 c 0
 382.333333333 556 413.333333333 563 448 563 c 0
 554.666666667 563 608 498.666666667 608 370 c 2
 608 238 l 2
 608 206 608.333333333 172.333333333 609 137 c 2
 611 36 l 1
 671 31 l 1xb8
EndSplineSet
EndChar

StartChar: o
Encoding: 79 111 78
Width: 637
Flags: W
HStem: -17 35<268.531 367.25> 528 35<268.036 366.175>
VStem: 35 171<150.338 392.258> 429 173<151.21 395.517>
LayerCount: 2
Fore
SplineSet
112 64 m 0
 60.6666666667 117.333333333 35 188 35 276 c 0
 35 362.666666667 62.6666666667 432.666666667 118 486 c 0
 170.666666667 537.333333333 237.333333333 563 318 563 c 0
 399.333333333 563 466.333333333 537.666666667 519 487 c 0
 574.333333333 433.666666667 602 363.333333333 602 276 c 0
 602 186.666666667 576 115.333333333 524 62 c 0
 472 9.33333333333 403.333333333 -17 318 -17 c 256
 232.666666667 -17 164 10 112 64 c 0
429 274 m 0
 429 443.333333333 392 528 318 528 c 0
 243.333333333 528 206 443.333333333 206 274 c 0
 206 103.333333333 243.333333333 18 318 18 c 0
 392 18 429 103.333333333 429 274 c 0
EndSplineSet
EndChar

StartChar: p
Encoding: 80 112 79
Width: 689
Flags: W
HStem: -259 29<35 102 282.111 342> -17 71<320.076 419.802> 475 24<27 50.7778> 494 69<332.913 465.667>
VStem: 104 162<-221 52 65.8164 467> 482 171<146.295 412.711>
LayerCount: 2
Fore
SplineSet
266 79 m 1xdc
 286.666666667 62.3333333333 314.333333333 54 349 54 c 0
 391 54 423 70 445 102 c 0
 469.666666667 138 482 195.666666667 482 275 c 0
 482 353 470.666666667 410 448 446 c 0
 427.333333333 478 396.333333333 494 355 494 c 0
 321.666666667 494 292 482.333333333 266 459 c 1
 266 79 l 1xdc
262 488 m 1
 307.333333333 538 364.666666667 563 434 563 c 0xdc
 497.333333333 563 549 538.333333333 589 489 c 0
 631.666666667 436.333333333 653 365.333333333 653 276 c 0
 653 187.333333333 629 115.666666667 581 61 c 0
 535 9 478 -17 410 -17 c 0
 351.333333333 -17 302.333333333 6 263 52 c 1
 265 -221 l 1
 342 -230 l 1
 342 -259 l 1
 35 -259 l 1
 35 -230 l 1
 102 -223 l 1
 104 320 l 2
 104 350.666666667 103.666666667 377.333333333 103 400 c 0
 103 418.666666667 102.333333333 441 101 467 c 1
 27 475 l 1
 27 499 l 1xec
 241 562 l 1
 255 552 l 1
 262 488 l 1
EndSplineSet
EndChar

StartChar: q
Encoding: 81 113 80
Width: 656
Flags: W
HStem: -259 29<344 403.889 585 646> -17 71<228 357.915> 494 69<271.926 375.464>
VStem: 35 172<132.118 398.016> 420 162<-221 53 65.8652 480.157>
LayerCount: 2
Fore
SplineSet
420 466 m 1
 396.666666667 484.666666667 370.666666667 494 342 494 c 0
 300 494 267.666666667 477.333333333 245 444 c 0
 219.666666667 406 207 348 207 270 c 0
 207 193.333333333 219.666666667 137 245 101 c 0
 267.666666667 69.6666666667 300.333333333 54 343 54 c 0
 371 54 396.666666667 62 420 78 c 1
 420 466 l 1
646 -230 m 1
 646 -259 l 1
 344 -259 l 1
 344 -230 l 1
 421 -221 l 1
 423 -155 424 -88.6666666667 424 -22 c 2
 424 53 l 1
 379.333333333 6.33333333333 325 -17 261 -17 c 0
 195 -17 141.333333333 7.66666666667 100 57 c 0
 56.6666666667 109 35 179 35 267 c 0
 35 356.333333333 59.3333333333 428.666666667 108 484 c 0
 155.333333333 536.666666667 215.666666667 563 289 563 c 0
 349 563 398 537.666666667 436 487 c 1
 572 561 l 1
 586 552 l 1
 582 398 l 1
 582 -22 l 2
 582 -88.6666666667 583 -155.666666667 585 -223 c 1
 646 -230 l 1
EndSplineSet
EndChar

StartChar: r
Encoding: 82 114 81
Width: 520
Flags: W
HStem: 0 31<32 100 285.444 357> 403 160<391.586 488.748> 475 24<24 48.1111>
VStem: 102 161<40 384.766>
LayerCount: 2
Fore
SplineSet
263 409 m 1xb0
 277 457.666666667 299.666666667 496 331 524 c 0
 359 550 389 563 421 563 c 0
 477 563 509.333333333 536.666666667 518 484 c 1
 513.333333333 430 488.666666667 403 444 403 c 0xd0
 414.666666667 403 385 423 355 463 c 2
 346 475 l 1
 308 439.666666667 280.333333333 388.333333333 263 321 c 1
 263 238 l 2
 263 212 263.333333333 179.666666667 264 141 c 0
 264 105.666666667 264.333333333 72 265 40 c 1
 357 31 l 1
 357 0 l 1
 32 0 l 1
 32 31 l 1
 100 38 l 1
 100.666666667 69.3333333333 101 103 101 139 c 0
 101.666666667 178.333333333 102 211.333333333 102 238 c 2
 102 321 l 2
 102 351.666666667 101.666666667 378 101 400 c 0
 101 418.666666667 100.333333333 441 99 467 c 1
 24 475 l 1
 24 499 l 1
 241 562 l 1
 255 552 l 1
 263 409 l 1xb0
EndSplineSet
EndChar

StartChar: s
Encoding: 83 115 82
Width: 511
Flags: W
HStem: -17 39<143.757 311.106> 525 38<202.845 346.872>
VStem: 43 131<342 468.085> 48 64<139.194 169> 343 139<79.9091 208.333> 385 56<392 413.737>
LayerCount: 2
Fore
SplineSet
331 336 m 2xe4
 431.666666667 306 482 249.666666667 482 167 c 0
 482 109 460.333333333 64 417 32 c 0
 373.666666667 -0.666666666667 314 -17 238 -17 c 0
 165.333333333 -17 99.3333333333 -0.333333333333 40 33 c 1
 48 169 l 1
 112 169 l 1
 143 37 l 1
 168.333333333 27 195.666666667 22 225 22 c 0
 303.666666667 22 343 49.3333333333 343 104 c 0xd8
 343 126.666666667 336.666666667 145 324 159 c 0
 308.666666667 175 282 189 244 201 c 2
 186 218 l 2
 90.6666666667 247.333333333 43 302 43 382 c 0
 43 436 62.6666666667 479.333333333 102 512 c 0
 143.333333333 546 200 563 272 563 c 0
 328.666666667 563 387.666666667 548 449 518 c 1
 441 392 l 1
 385 392 l 1
 347 510 l 1
 326.333333333 520 302.333333333 525 275 525 c 0
 207.666666667 525 174 498 174 444 c 0
 174 424 180.666666667 407.333333333 194 394 c 0
 209.333333333 378 235.333333333 364.333333333 272 353 c 2
 331 336 l 2xe4
EndSplineSet
EndChar

StartChar: t
Encoding: 84 116 83
Width: 404
Flags: W
HStem: -17 67<197.667 345.704> 505 41<256 380> 505 32<14 76.3>
VStem: 95 161<64.7383 505>
LayerCount: 2
Fore
SplineSet
407 66 m 1xd0
 376.333333333 10.6666666667 324 -17 250 -17 c 0
 145.333333333 -17 93.3333333333 35.3333333333 94 140 c 2
 95 193 l 1
 95 505 l 1
 14 505 l 1
 14 537 l 1xb0
 103 547 l 1
 155 707 l 1
 258 707 l 1
 256 546 l 1
 380 546 l 1
 380 505 l 1
 256 505 l 1
 256 127 l 2
 256 75.6666666667 278 50 322 50 c 0
 342 50 364.666666667 60.6666666667 390 82 c 1
 407 66 l 1xd0
EndSplineSet
EndChar

StartChar: u
Encoding: 85 117 84
Width: 691
Flags: W
HStem: -17 86<226.667 340.443> -1 30<600 663> 500 27<26 40.8 374 388.467> 537 20G<100 261 467 604>
VStem: 92 163<94.5 486> 443 157<34 86 103.172 487>
LayerCount: 2
Fore
SplineSet
663 29 m 1x7c
 663 -1 l 1x7c
 443 -14 l 1
 438 86 l 1
 413.333333333 55.3333333333 386 31 356 13 c 0
 322 -7 287.666666667 -17 253 -17 c 0xbc
 200.333333333 -17 160.666666667 -1.66666666667 134 29 c 0x7c
 105.333333333 63 91.3333333333 116.333333333 92 189 c 2
 96 486 l 1
 26 500 l 1
 26 527 l 1
 248 557 l 1
 261 547 l 1
 255 384 l 1
 255 174 l 2
 255 104 281.333333333 69 334 69 c 0xbc
 370.666666667 69 405 85 437 117 c 1
 441 487 l 1
 374 500 l 1
 374 522 l 1
 591 557 l 1
 604 547 l 1
 600 384 l 1
 600 34 l 1
 663 29 l 1x7c
EndSplineSet
EndChar

StartChar: v
Encoding: 86 118 85
Width: 593
Flags: W
HStem: 516 30<-10 44.25 234 297 392 446.6 541.818 587>
LayerCount: 2
Fore
SplineSet
587 516 m 1
 516 505 l 1
 322 -2 l 1
 253 -2 l 1
 52 508 l 1
 -10 516 l 1
 -10 546 l 1
 297 546 l 1
 297 516 l 1
 225 508 l 1
 350 150 l 1
 470 506 l 1
 392 516 l 1
 392 546 l 1
 587 546 l 1
 587 516 l 1
EndSplineSet
EndChar

StartChar: w
Encoding: 87 119 86
Width: 893
Flags: W
HStem: 516 30<-9 45 208 286 360 428.25 561.111 621 682 745 839.7 888>
LayerCount: 2
Fore
SplineSet
888 516 m 1
 819 506 l 1
 642 -2 l 1
 574 -2 l 1
 499.333333333 204.666666667 453.666666667 336.666666667 437 394 c 1
 296 -2 l 1
 228 -2 l 1
 45 510 l 1
 -9 516 l 1
 -9 546 l 1
 286 546 l 1
 286 516 l 1
 208 509 l 1
 320 144 l 1
 438 508 l 1
 360 516 l 1
 360 546 l 1
 621 546 l 1
 621 516 l 1
 544 507 l 1
 666 150 l 1
 772 506 l 1
 682 516 l 1
 682 546 l 1
 888 546 l 1
 888 516 l 1
EndSplineSet
EndChar

StartChar: x
Encoding: 88 120 87
Width: 617
Flags: W
HStem: 0 31<7 68.4444 156.778 212 295 368 557 606> 516 30<16 68 254 323 399 453.444 544.1 591>
LayerCount: 2
Fore
SplineSet
606 31 m 1
 606 0 l 1
 295 0 l 1
 293 31 l 1
 368 36 l 1
 253 219 l 1
 141 40 l 1
 212 31 l 1
 212 0 l 1
 7 0 l 1
 7 31 l 1
 86 40 l 1
 235 247 l 1
 68 510 l 1
 16 516 l 1
 16 546 l 1
 323 546 l 1
 323 516 l 1
 254 509 l 1
 363 338 l 1
 469 507 l 1
 399 516 l 1
 399 546 l 1
 591 546 l 1
 591 516 l 1
 524 506 l 1
 381 310 l 1
 557 35 l 1
 606 31 l 1
EndSplineSet
EndChar

StartChar: y
Encoding: 89 121 88
Width: 598
Flags: W
HStem: -271 142<32.625 143.115> 516 30<-7 51 234.125 298 393 456.7 546.889 599>
LayerCount: 2
Fore
SplineSet
599 516 m 1
 532 507 l 1
 316 -68 l 2
 289.333333333 -139.333333333 255 -192.666666667 213 -228 c 0
 179 -256.666666667 144 -271 108 -271 c 0
 79.3333333333 -271 54 -263.666666667 32 -249 c 0
 9.33333333333 -233.666666667 -2.33333333333 -215 -3 -193 c 1
 4.33333333333 -150.333333333 33 -129 83 -129 c 0
 117 -129 148.333333333 -147.333333333 177 -184 c 2
 193 -205 l 1
 227.666666667 -175.666666667 259.333333333 -125.333333333 288 -54 c 1
 51 510 l 1
 -7 516 l 1
 -7 546 l 1
 298 546 l 1
 298 516 l 1
 225 508 l 1
 361 130 l 1
 484 506 l 1
 393 516 l 1
 393 546 l 1
 599 546 l 1
 599 516 l 1
EndSplineSet
EndChar

StartChar: z
Encoding: 90 122 89
Width: 526
Flags: W
HStem: 0 35<202 401> 511 35<133 327>
VStem: 33 55<378 395.311> 449 56<162.271 184>
LayerCount: 2
Fore
SplineSet
505 184 m 1
 495 0 l 1
 27 0 l 1
 27 31 l 1
 327 511 l 1
 133 511 l 1
 88 374 l 1
 33 378 l 1
 41 546 l 1
 493 546 l 1
 493 514 l 1
 202 35 l 1
 401 35 l 1
 449 184 l 1
 505 184 l 1
EndSplineSet
EndChar

StartChar: braceleft
Encoding: 91 123 90
Width: 383
Flags: W
HStem: -180 38<316 349> 296 38<45 103.428> 772 38<316 349>
VStem: 105 123<-109.16 59.8481 569.148 738.235> 169 95<108.541 250.598 379.395 522.061>
CounterMasks: 1 e0
LayerCount: 2
Fore
SplineSet
316 769 m 2xf0
 257.333333333 764.333333333 228 730.666666667 228 668 c 0xf0
 228 652.666666667 230 635.333333333 234 616 c 0
 236 604.666666667 240 587.333333333 246 564 c 0
 252 541.333333333 256 524.333333333 258 513 c 0
 262 493.666666667 264 476.666666667 264 462 c 0
 264 422.666666667 254 391.333333333 234 368 c 0
 210 341.333333333 172 323.666666667 120 315 c 1
 172 306.333333333 210 288.666666667 234 262 c 0
 254 238.666666667 264 207.333333333 264 168 c 0xe8
 264 153.333333333 262 136.333333333 258 117 c 0
 256 106.333333333 252 89.3333333333 246 66 c 256
 240 42.6666666667 236 25 234 13 c 0
 230 -6.33333333333 228 -23.6666666667 228 -39 c 0
 228 -101 257.333333333 -134.333333333 316 -139 c 2
 349 -142 l 1
 349 -180 l 1
 313 -180 l 2
 174.333333333 -180 105 -131.333333333 105 -34 c 0xf0
 105 -14.6666666667 108.333333333 6 115 28 c 0
 119.666666667 42 127 61 137 85 c 0
 137.666666667 85.6666666667 138.666666667 87.6666666667 140 91 c 2
 159 138 l 2
 165.666666667 158 169 175.666666667 169 191 c 0
 169 219 161 241 145 257 c 0
 125 276.333333333 91.6666666667 289.333333333 45 296 c 1
 45 334 l 1
 91.6666666667 340.666666667 125 353.666666667 145 373 c 0
 161 389 169 410.666666667 169 438 c 0xe8
 169 454 165.666666667 471.666666667 159 491 c 0
 156.333333333 499 153 508 149 518 c 2
 137 545 l 2
 126.333333333 569 119 588 115 602 c 0
 108.333333333 624 105 644.666666667 105 664 c 0
 105 761.333333333 174.333333333 810 313 810 c 2
 349 810 l 1
 349 772 l 1
 316 769 l 2xf0
EndSplineSet
EndChar

StartChar: bar
Encoding: 92 124 91
Width: 304
Flags: W
VStem: 110 83<-283 850>
LayerCount: 2
Fore
SplineSet
110 850 m 1
 193 850 l 1
 193 -283 l 1
 110 -283 l 1
 110 850 l 1
EndSplineSet
EndChar

StartChar: braceright
Encoding: 93 125 92
Width: 383
Flags: W
HStem: -180 38<34 67> 296 38<269.329 338> 772 38<34 67>
VStem: 119 95<108.541 250.598 379.395 522.061> 155 123<-108.368 59.8481 569.148 739.035>
CounterMasks: 1 e0
LayerCount: 2
Fore
SplineSet
338 296 m 1xf0
 291.333333333 289.333333333 258.333333333 276.333333333 239 257 c 0
 222.333333333 241 214 219 214 191 c 0xf0
 214 175.666666667 217.333333333 158 224 138 c 2
 243 91 l 2
 244.333333333 87.6666666667 245.333333333 85.6666666667 246 85 c 0
 256 61 263.333333333 42 268 28 c 0
 274.666666667 6 278 -14.6666666667 278 -34 c 0
 278 -131.333333333 208.666666667 -180 70 -180 c 2
 34 -180 l 1
 34 -142 l 1
 67 -139 l 2
 125.666666667 -134.333333333 155 -101 155 -39 c 0xe8
 155 -23.6666666667 153 -6.33333333333 149 13 c 0
 147 25 143 42.6666666667 137 66 c 256
 131 89.3333333333 127 106.333333333 125 117 c 0
 121 136.333333333 119 153.333333333 119 168 c 0
 119 207.333333333 129 238.666666667 149 262 c 0
 173 288.666666667 211 306.333333333 263 315 c 1
 211 323.666666667 173 341.333333333 149 368 c 0
 129 391.333333333 119 422.666666667 119 462 c 0xf0
 119 476.666666667 121 493.666666667 125 513 c 0
 127 524.333333333 131 541.333333333 137 564 c 0
 143 587.333333333 147 604.666666667 149 616 c 0
 153 635.333333333 155 652.666666667 155 668 c 0
 155 730.666666667 125.666666667 764.333333333 67 769 c 2
 34 772 l 1
 34 810 l 1
 70 810 l 2
 208.666666667 810 278 761.333333333 278 664 c 0xe8
 278 644.666666667 274.666666667 624 268 602 c 0
 264 588 256.666666667 569 246 545 c 2
 234 518 l 2
 230 508 226.666666667 499 224 491 c 0
 217.333333333 471.666666667 214 454 214 438 c 0
 214 410.666666667 222.333333333 389 239 373 c 0
 258.333333333 353.666666667 291.333333333 340.666666667 338 334 c 1
 338 296 l 1xf0
EndSplineSet
EndChar

StartChar: asciitilde
Encoding: 94 126 93
Width: 615
Flags: W
HStem: 304 54<371.965 482.995> 423 55<135.905 245.604>
VStem: 49 52<304 383.766> 516 52<395.138 477>
LayerCount: 2
Fore
SplineSet
382 374 m 0
 400.666666667 363.333333333 418.666666667 358 436 358 c 0
 482 358 508.666666667 399.333333333 516 482 c 1
 568 477 l 1
 566.666666667 417.666666667 552.666666667 373.333333333 526 344 c 0
 502 317.333333333 469.333333333 304 428 304 c 0
 403.333333333 304 380.666666667 309.333333333 360 320 c 0
 343.333333333 328 320.666666667 343.666666667 292 367 c 0
 247.333333333 404.333333333 212 423 186 423 c 0
 136.666666667 423 108.333333333 381.666666667 101 299 c 1
 49 304 l 1
 49.6666666667 363.333333333 63.6666666667 408 91 438 c 0
 115.666666667 464.666666667 148.333333333 478 189 478 c 0
 213 478 236 472.333333333 258 461 c 0
 273.333333333 453 295.666666667 437.333333333 325 414 c 0
 349 394.666666667 368 381.333333333 382 374 c 0
EndSplineSet
EndChar

StartChar: uni02C9
Encoding: 95 713 94
Width: 1000
Flags: W
HStem: 526 81<308 666>
LayerCount: 2
Fore
SplineSet
308 526 m 1
 308 607 l 1
 666 607 l 1
 666 526 l 1
 308 526 l 1
EndSplineSet
EndChar

StartChar: uni02CA
Encoding: 96 714 95
Width: 1000
Flags: W
LayerCount: 2
Fore
SplineSet
278 477 m 1
 308 501 l 1
 562 707 l 2
 604 741 638.666666667 742.333333333 666 711 c 0
 694 679 687 650.333333333 645 625 c 2
 308 433 l 1
 278 477 l 1
EndSplineSet
EndChar

StartChar: caron
Encoding: 97 711 96
Width: 1000
Flags: W
HStem: 737 20G<306.556 365.327 634.038 688>
LayerCount: 2
Fore
SplineSet
351 757 m 1
 500 549 l 1
 648 761 l 1
 710 730 l 1
 499 363 l 1
 291 730 l 1
 351 757 l 1
EndSplineSet
EndChar

StartChar: uni02CB
Encoding: 98 715 97
Width: 1000
Flags: W
LayerCount: 2
Fore
SplineSet
689 427 m 1
 676 434 l 1
 352 619 l 2
 310 644.333333333 302.666666667 673 330 705 c 0
 357.333333333 736.333333333 392 735 434 701 c 2
 718 470 l 1
 689 427 l 1
EndSplineSet
EndChar

StartChar: dotaccent
Encoding: 99 729 98
Width: 1000
Flags: W
HStem: 275 217<436.457 564.375>
VStem: 393 212<318.295 449.723>
LayerCount: 2
Fore
SplineSet
424 307 m 0
 403.333333333 328.333333333 393 353 393 381 c 0
 393 411.666666667 402.666666667 437.666666667 422 459 c 0
 442 481 468 492 500 492 c 256
 532 492 557.666666667 481 577 459 c 0
 595.666666667 438.333333333 605 412.333333333 605 381 c 0
 605 311.666666667 570.333333333 276.333333333 501 275 c 0
 471 275.666666667 445.333333333 286.333333333 424 307 c 0
EndSplineSet
EndChar

StartChar: uni3105
Encoding: 100 12549 99
Width: 1000
Flags: W
HStem: 31.4775 75.9541<455.833 505.827> 499.634 88.0273<350.521 589.467>
LayerCount: 2
Fore
SplineSet
745.0234375 608.682617188 m 1
 777.109375 606.676757812 823.235351562 599.658203125 842.287109375 592.639648438 c 0
 850.30859375 589.631835938 855.322265625 580.60546875 855.322265625 571.581054688 c 0
 851.149414062 377.29296875 752.428710938 166.328125 639.506835938 9.951171875 c 0
 619.665039062 -14.1591796875 602.015625 -33.17578125 591.01171875 -43.3251953125 c 0
 512.03515625 -97.98828125 532.03515625 22.01171875 481.97265625 31.4775390625 c 0
 380.788085938 54.154296875 368.752929688 89.3662109375 407.268554688 107.431640625 c 1
 515.91796875 104.102539062 546.112304688 114.768554688 572.227539062 147.548828125 c 0
 641.146484375 246.626953125 705.078125 383.260742188 717.831054688 506.361328125 c 1
 689.485351562 513.486328125 455.127929688 505.018554688 338.801757812 499.633789062 c 0
 307.466796875 498.18359375 286.715820312 484.834960938 278.842773438 484.196289062 c 0
 213.259765625 489.231445312 134.923828125 486.97265625 148.788085938 573.557617188 c 1
 165.358398438 580.0703125 181.869140625 586.702148438 193.17578125 603.743164062 c 0
 225.077148438 649.8828125 280.536132812 725.908203125 296.4140625 809.439453125 c 1
 310.6484375 853.930664062 293.762695312 872.9609375 300.247070312 885.95703125 c 0
 308.038085938 901.571289062 319.766601562 899.333007812 342.490234375 891.3046875 c 0
 440.053710938 850.858398438 433.509765625 824.918945312 443.90625 794.727539062 c 1
 434.892578125 742.01171875 398.366210938 688.708007812 350.520507812 587.661132812 c 1
 388.596679688 588.63671875 689.610351562 591.28515625 709.9296875 592.639648438 c 1
 745.0234375 608.682617188 l 1
EndSplineSet
Substitution2: "'hwid' Halfwidth Bopomofo" uni3105.hw
EndChar

StartChar: uni3106
Encoding: 101 12550 100
Width: 1000
Flags: W
HStem: 381.819 48.9902<262.295 285.033> 502.128 88.0254<340.313 681.738>
VStem: 286.208 147.492<743.732 846.007>
LayerCount: 2
Fore
SplineSet
306.850585938 900.028320312 m 0
 313.397460938 900.051757812 321.6328125 897.561523438 332.284179688 893.797851562 c 0
 429.84765625 853.3515625 423.303710938 827.412109375 433.700195312 797.221679688 c 1
 424.686523438 744.505859375 388.159179688 691.200195312 340.313476562 590.153320312 c 1
 377.899414062 591.116210938 671.501953125 593.708984375 698.606445312 595.079101562 c 1
 730.334960938 616.891601562 l 1
 760.416015625 617.893554688 803.53125 615.888671875 822.583007812 611.877929688 c 0
 836.62109375 608.869140625 842.190429688 598.09765625 846.649414062 585.807617188 c 0
 855.194335938 562.252929688 861.90625 528.123046875 857.473632812 516.071289062 c 0
 849.002929688 493.044921875 839.340820312 484.838867188 828.896484375 460.711914062 c 0
 787.580078125 365.264648438 711.876953125 254.805664062 638.856445312 181.370117188 c 0
 581.139648438 123.326171875 497.142578125 60 332.408203125 -19.5380859375 c 0
 284.12109375 -45.3857421875 145.66015625 -67.37109375 151.725585938 -35.3251953125 c 0
 153.94921875 -23.5771484375 196.657226562 6.05078125 220.955078125 27.447265625 c 1
 311.70703125 69.37109375 415.391601562 157.504882812 504.651367188 252.78515625 c 0
 579.02734375 332.178710938 643.388671875 413.041015625 681.91015625 508.854492188 c 1
 681.91015625 508.854492188 444.921875 507.512695312 328.594726562 502.127929688 c 0
 297.259765625 500.676757812 276.508789062 487.328125 268.635742188 486.690429688 c 0
 203.053710938 491.725585938 124.717773438 489.467773438 138.581054688 576.051757812 c 1
 155.151367188 582.563476562 171.663085938 589.196289062 182.969726562 606.237304688 c 0
 214.87109375 652.376953125 270.331054688 728.401367188 286.208007812 811.932617188 c 1
 300.443359375 856.423828125 283.5546875 875.453125 290.040039062 888.450195312 c 0
 294.178710938 896.745117188 299.430664062 900.000976562 306.850585938 900.028320312 c 0
264.287109375 381.819335938 m 1
 252.879882812 418.844726562 253.42578125 437.826171875 292.52734375 430.809570312 c 0
 374.301757812 407.861328125 475.83203125 346.147460938 593.302734375 260.850585938 c 0
 694.071289062 187.681640625 823.811523438 122.975585938 852.04296875 80.8271484375 c 1
 877.911132812 -19.97265625 828.549804688 -96.5595703125 734.80078125 -20.39453125 c 1
 648.340820312 37.3505859375 611.904296875 80.59375 541.815429688 147.055664062 c 0
 429.727539062 253.342773438 353.755859375 294.083007812 264.287109375 381.819335938 c 1
EndSplineSet
Substitution2: "'hwid' Halfwidth Bopomofo" uni3106.hw
EndChar

StartChar: uni3107
Encoding: 102 12551 101
Width: 1000
Flags: W
HStem: 691.596 80.2168<320.193 578.383> 694.76 85.0762<500.647 725.879>
VStem: 175.725 139.377<20.5061 689.348> 732.866 139.377<20.5057 687.114>
LayerCount: 2
Fore
SplineSet
175.724609375 659.223632812 m 2x30
 175.724609375 706.336914062 134.095703125 749.504882812 143.21875 767.014648438 c 0
 148.384765625 776.928710938 145.0703125 796.63671875 198.442382812 787.845703125 c 0
 238.799804688 781.159179688 280.138671875 770.84765625 304.072265625 760.141601562 c 0
 315.1015625 755.127929688 320.115234375 745.1015625 319.11328125 730.061523438 c 2
 315.1015625 666.889648438 l 1
 315.1015625 208.18359375 l 2
 315.1015625 125.961914062 298.0546875 6.638671875 268.9765625 -57.53515625 c 1
 191.768554688 -57.53515625 l 1
 181.7421875 -20.4345703125 175.724609375 115.934570312 175.724609375 169.078125 c 2
 175.724609375 659.223632812 l 2x30
786.924804688 795.87890625 m 1
 819.01171875 793.874023438 847.994140625 786.85546875 867.045898438 779.8359375 c 0
 880.100585938 774.500976562 881.422851562 747.541992188 882.213867188 735.408203125 c 0
 884.209960938 704.806640625 878.318359375 676.446289062 872.243164062 649.717773438 c 1
 872.243164062 208.18359375 l 2
 872.243164062 125.9609375 855.197265625 6.6376953125 826.118164062 -57.53515625 c 1
 748.911132812 -57.53515625 l 1
 738.883789062 -20.435546875 732.866210938 115.934570312 732.866210938 169.078125 c 2
 732.866210938 643.522460938 l 1
 737.924804688 673.888671875 707.754882812 696.64453125 683.776367188 694.759765625 c 0x70
 596.075195312 693.240234375 420.5390625 693.879882812 392.375976562 691.595703125 c 0
 371.319335938 690.59375 333.21484375 683.57421875 313.161132812 678.560546875 c 1
 280.071289062 696.609375 245.98046875 725.689453125 223.920898438 751.759765625 c 0
 219.91015625 755.770507812 219.909179688 760.784179688 221.915039062 764.794921875 c 2
 229.936523438 780.837890625 l 1
 264.028320312 774.822265625 310.15234375 771.8125 337.225585938 771.8125 c 0xb0
 380.341796875 770.810546875 706.708984375 776.828125 751.831054688 779.8359375 c 1x70
 786.924804688 795.87890625 l 1
EndSplineSet
Substitution2: "'hwid' Halfwidth Bopomofo" uni3107.hw
EndChar

StartChar: uni3108
Encoding: 103 12552 102
Width: 1000
Flags: W
HStem: -21.25 82.2227<308.689 689.949> -17.2383 105.285<734.068 846.18> 673.444 80.2168<310.892 563.835> 681.467 80.2168<502.364 722.035 758.643 859.484>
VStem: 166.385 139.377<63.5314 668.663>
LayerCount: 2
Fore
SplineSet
133.87890625 763.325195312 m 0x88
 144.701171875 785.55859375 164.591796875 789.454101562 189.103515625 784.155273438 c 0
 229.461914062 777.469726562 270.799804688 767.159179688 294.732421875 756.452148438 c 0
 305.762695312 751.438476562 310.776367188 741.412109375 309.7734375 726.372070312 c 2
 305.76171875 663.200195312 l 1
 305.76171875 230.20703125 l 2
 305.76171875 197.866210938 310.81640625 130.935546875 308.607421875 82.376953125 c 0
 310.28125 67.87890625 316.577148438 60.97265625 332.34375 60.97265625 c 0x88
 387.493164062 59.9697265625 632.794921875 61.9755859375 689.94921875 63.98046875 c 1
 734.068359375 88.046875 l 1
 770.166015625 89.0498046875 822.307617188 85.0380859375 847.375 79.021484375 c 0
 860.41015625 76.013671875 867.427734375 66.990234375 867.427734375 54.95703125 c 0
 867.427734375 21.8681640625 857.400390625 -2.197265625 849.37890625 -10.21875 c 0
 844.365234375 -15.232421875 836.344726562 -17.23828125 827.3203125 -17.23828125 c 2x48
 280.203125 -21.25 l 2
 198.983398438 -20.2470703125 166.896484375 11.8408203125 166.896484375 75.01171875 c 0
 166.924804688 112.890625 168.118164062 150.057617188 166.384765625 191.1015625 c 2
 166.384765625 655.534179688 l 2
 166.384765625 702.646484375 124.755859375 745.815429688 133.87890625 763.325195312 c 0x88
757.12890625 777.7265625 m 1
 789.215820312 775.721679688 835.340820312 768.703125 854.392578125 761.68359375 c 0
 862.4140625 758.67578125 867.427734375 749.649414062 867.427734375 740.625976562 c 0
 867.427734375 712.549804688 853.389648438 686.48046875 842.359375 679.4609375 c 1
 824.310546875 681.466796875 770.165039062 681.466796875 746.099609375 681.466796875 c 0x18
 708.999023438 681.466796875 417.109375 676.452148438 380.009765625 673.444335938 c 0
 358.952148438 672.44140625 320.848632812 665.421875 300.794921875 660.408203125 c 1
 267.705078125 678.45703125 233.614257812 707.537109375 211.5546875 733.607421875 c 0
 207.543945312 737.619140625 207.54296875 742.631835938 209.548828125 746.643554688 c 2
 217.5703125 762.685546875 l 1
 251.662109375 756.669921875 297.786132812 753.661132812 324.859375 753.661132812 c 0x28
 367.975585938 752.658203125 676.913085938 758.67578125 722.03515625 761.68359375 c 1x18
 757.12890625 777.7265625 l 1
EndSplineSet
Substitution2: "'hwid' Halfwidth Bopomofo" uni3108.hw
EndChar

StartChar: uni3109
Encoding: 104 12553 103
Width: 1000
Flags: W
HStem: 36.4775 75.9541<561.168 612.711> 494.634 88.0273<358.713 597.659>
VStem: 380.521 143.659<388.449 474.37> 726.023 137.49<267.744 503.339>
LayerCount: 2
Fore
SplineSet
753.21484375 603.682617188 m 1
 785.301757812 601.676757812 831.427734375 594.658203125 850.478515625 587.639648438 c 0
 858.500976562 584.631835938 863.513671875 575.60546875 863.513671875 566.581054688 c 0
 859.341796875 372.29296875 857.763671875 171.328125 744.841796875 14.951171875 c 0
 725 -9.1591796875 707.350585938 -28.17578125 696.346679688 -38.3251953125 c 0
 617.370117188 -92.98828125 637.370117188 27.01171875 587.307617188 36.4775390625 c 0
 486.123046875 59.154296875 474.087890625 94.3662109375 512.603515625 112.431640625 c 1
 621.252929688 109.102539062 648.590820312 136.912109375 674.705078125 169.692382812 c 1
 735.052734375 303.055664062 724.69921875 401.1171875 726.0234375 501.361328125 c 1
 697.677734375 508.486328125 463.3203125 500.018554688 346.993164062 494.633789062 c 0
 315.658203125 493.18359375 294.908203125 479.834960938 287.03515625 479.196289062 c 0
 221.452148438 484.231445312 143.116210938 481.97265625 156.98046875 568.557617188 c 1
 173.55078125 575.0703125 190.061523438 581.702148438 201.3671875 598.743164062 c 0
 233.26953125 644.8828125 288.728515625 720.908203125 304.606445312 804.439453125 c 1
 318.840820312 848.930664062 301.954101562 867.9609375 308.439453125 880.95703125 c 0
 316.23046875 896.571289062 327.958984375 894.333007812 350.682617188 886.3046875 c 0
 448.24609375 845.858398438 441.702148438 819.918945312 452.098632812 789.727539062 c 1
 443.084960938 737.01171875 406.55859375 683.708007812 358.712890625 582.661132812 c 1
 396.7890625 583.63671875 697.802734375 586.28515625 718.12109375 587.639648438 c 1
 753.21484375 603.682617188 l 1
436.793945312 202.517578125 m 1
 393.755859375 133.001953125 347.669921875 46.7060546875 269.759765625 -8.8466796875 c 0
 237.53125 -36.720703125 179.40234375 -54.2236328125 140.08984375 -37.951171875 c 1
 121.224609375 -21.0625 181.723632812 32.544921875 199.021484375 58.6591796875 c 0
 236.479492188 106.326171875 265.469726562 168.5078125 291.194335938 211.772460938 c 0
 333.203125 282.427734375 349.032226562 368.34765625 376.6875 440.295898438 c 0
 390.921875 484.787109375 374.036132812 503.817382812 380.520507812 516.813476562 c 0
 388.311523438 532.427734375 400.040039062 530.189453125 422.763671875 522.161132812 c 0
 520.327148438 481.71484375 513.783203125 455.775390625 524.1796875 425.583984375 c 1
 515.166015625 372.868164062 484.639648438 303.564453125 436.793945312 202.517578125 c 1
EndSplineSet
Substitution2: "'hwid' Halfwidth Bopomofo" uni3109.hw
EndChar

StartChar: uni310A
Encoding: 105 12554 104
Width: 1000
Flags: W
HStem: 497.412 80.2168<196.204 352.861> 505.436 80.2168<546.971 751.92 788.528 889.369>
VStem: 428.236 163.492<698.976 821.318>
LayerCount: 2
Fore
SplineSet
787.013671875 601.6953125 m 1x60
 819.100585938 599.690429688 865.225585938 592.671875 884.27734375 585.65234375 c 0
 892.298828125 582.64453125 897.3125 573.618164062 897.3125 564.59375 c 0
 897.3125 536.518554688 883.274414062 510.44921875 872.244140625 503.4296875 c 1
 854.1953125 505.435546875 800.049804688 505.435546875 775.984375 505.435546875 c 0x60
 738.883789062 505.435546875 311.565429688 500.420898438 274.465820312 497.412109375 c 0
 253.408203125 496.409179688 215.3046875 489.390625 195.250976562 484.376953125 c 1
 162.161132812 502.42578125 128.0703125 531.505859375 106.010742188 557.576171875 c 0
 102 561.586914062 101.999023438 566.600585938 104.004882812 570.611328125 c 2
 112.026367188 586.654296875 l 1
 146.118164062 580.638671875 192.2421875 577.62890625 219.315429688 577.62890625 c 0xa0
 262.431640625 576.625976562 706.797851562 582.64453125 751.919921875 585.65234375 c 1
 787.013671875 601.6953125 l 1x60
448.87890625 890.80078125 m 0
 455.42578125 890.82421875 463.662109375 888.33203125 474.314453125 884.568359375 c 0
 571.876953125 844.123046875 581.33203125 806.18359375 591.728515625 775.9921875 c 1
 582.71484375 723.276367188 554.26953125 585.16015625 494.302734375 423.50390625 c 0
 478.075195312 370.051757812 415.403320312 190.282226562 366.024414062 85.0908203125 c 0
 353.735351562 57.3037109375 394.71484375 68.8642578125 392.805664062 65.4013671875 c 1
 476.286132812 73.6220703125 591.534179688 87.2578125 623.564453125 91.837890625 c 1
 657.349609375 110.482421875 l 1
 689.49609375 110.90234375 736.017578125 107.380859375 755.544921875 101.818359375 c 0
 763.770507812 99.423828125 769.450195312 90.8017578125 770.130859375 81.802734375 c 0
 772.247070312 53.806640625 760.21484375 26.7529296875 749.74609375 18.921875 c 1
 731.596679688 19.560546875 677.60546875 15.478515625 653.609375 13.6640625 c 0
 616.614257812 10.8671875 416.025390625 -10.9951171875 379.2578125 -16.79296875 c 0
 362.190429688 -18.9033203125 334.24609375 -25.845703125 313.830078125 -31.873046875 c 0
 255.364257812 -57.8173828125 147.147460938 -25.6318359375 138.3828125 55.412109375 c 0
 134.77734375 67.94921875 167.249023438 83.5927734375 185.59765625 97.818359375 c 1
 223.055664062 145.485351562 297.986328125 353.581054688 316.37890625 400.435546875 c 0
 358.387695312 507.456054688 404.622070312 670.146484375 428.236328125 802.703125 c 1
 442.470703125 847.1953125 425.584960938 866.2265625 432.0703125 879.22265625 c 0
 436.208984375 887.517578125 441.458984375 890.774414062 448.87890625 890.80078125 c 0
687.0078125 283.931640625 m 1
 741.08984375 230.62890625 784.603515625 180.459960938 838.931640625 106.75 c 0
 862.74609375 74.3271484375 867.770507812 41.2333984375 855.244140625 7.5390625 c 0
 828.509765625 -46.9248046875 776.467773438 -76.607421875 724.794921875 -21.138671875 c 1
 690.80859375 4.8359375 684.763671875 51.4140625 659.208984375 111.318359375 c 0
 650.206054688 137.065429688 630.528320312 248.439453125 633.068359375 282.05078125 c 1
 642.162109375 325.942382812 687.0078125 283.931640625 687.0078125 283.931640625 c 1
EndSplineSet
Substitution2: "'hwid' Halfwidth Bopomofo" uni310A.hw
EndChar

StartChar: uni310B
Encoding: 106 12555 105
Width: 1000
Flags: W
HStem: 41.4775 75.9531<469.45 521.324> 448.204 88.0273<495.566 705.356> 457.617 83.5928<498.688 706.404> 537.253 20G<706.404 757.542> 737.464 80.2168<241.719 461.582> 743.235 82.4688<294.635 464.701 630.905 678.181>
LayerCount: 2
Fore
SplineSet
577.384765625 841.747070312 m 1x84
 609.471679688 839.7421875 655.59765625 832.723632812 674.6484375 825.704101562 c 0
 682.670898438 822.696289062 687.68359375 813.669921875 687.68359375 804.645507812 c 0
 687.421875 790.392578125 678.541992188 743.077148438 653.701171875 744.172851562 c 1
 643.99609375 735.725585938 632.623046875 726.75390625 629.552734375 721.454101562 c 0
 602.669921875 675.053710938 535.29296875 620.130859375 495.56640625 536.231445312 c 1xc4
 533.642578125 537.208007812 686.0859375 539.85546875 706.404296875 541.209960938 c 1xa0
 741.498046875 557.252929688 l 1x90
 773.584960938 555.248046875 819.7109375 548.229492188 838.76171875 541.209960938 c 0
 846.784179688 538.202148438 851.796875 529.17578125 851.796875 520.151367188 c 0
 847.624023438 325.86328125 766.044921875 176.327148438 653.123046875 19.9501953125 c 0
 633.282226562 -4.16015625 615.633789062 -23.17578125 604.62890625 -33.3251953125 c 0
 525.653320312 -87.98828125 545.65234375 32.01171875 495.58984375 41.4775390625 c 0
 394.405273438 64.154296875 382.369140625 99.3662109375 420.884765625 117.430664062 c 1
 483.6015625 115.509765625 519.225585938 123.962890625 543.159179688 137.7578125 c 0
 626.728515625 187.088867188 670.603515625 316.250976562 706.03515625 428.611328125 c 0
 713.5390625 452.412109375 715.163085938 459.133789062 684.182617188 457.6171875 c 0xa0
 641.381835938 458.231445312 567.001953125 452.318359375 478.1328125 448.204101562 c 0
 446.797851562 446.75390625 426.046875 433.405273438 418.173828125 432.766601562 c 0
 352.590820312 437.801757812 274.254882812 435.54296875 288.119140625 522.127929688 c 1
 304.689453125 528.640625 321.202148438 535.2734375 332.5078125 552.313476562 c 0
 361.794921875 594.670898438 439.8203125 667.030273438 464.701171875 743.235351562 c 1xc4
 405.850585938 741.517578125 341.110351562 739.177734375 319.98046875 737.463867188 c 0
 298.923828125 736.4609375 260.8203125 729.442382812 240.765625 724.428710938 c 1
 207.676757812 742.477539062 173.584960938 771.557617188 151.525390625 797.627929688 c 0
 147.514648438 801.638671875 147.514648438 806.65234375 149.51953125 810.663085938 c 2
 157.541015625 826.706054688 l 1
 191.633789062 820.690429688 237.756835938 817.680664062 264.830078125 817.680664062 c 0x88
 307.947265625 816.677734375 497.168945312 822.696289062 542.291015625 825.704101562 c 1
 577.384765625 841.747070312 l 1x84
EndSplineSet
Substitution2: "'hwid' Halfwidth Bopomofo" uni310B.hw
EndChar

StartChar: uni310C
Encoding: 107 12556 106
Width: 1000
Flags: W
HStem: 38.2031 75.9531<561.168 612.711> 457.974 88.0264<358.713 451.306>
VStem: 266.013 143.659<678.153 801.853> 563.378 143.658<748.932 836.788> 726.023 137.49<251.175 466.678>
LayerCount: 2
Fore
SplineSet
753.21484375 567.021484375 m 1
 785.301757812 565.016601562 831.427734375 557.998046875 850.478515625 550.978515625 c 0
 858.500976562 547.970703125 863.513671875 538.944335938 863.513671875 529.919921875 c 0
 859.341796875 335.631835938 857.763671875 173.052734375 744.841796875 16.6767578125 c 0
 725 -7.43359375 707.350585938 -26.4501953125 696.346679688 -36.599609375 c 0
 617.370117188 -91.2626953125 637.370117188 28.7373046875 587.307617188 38.203125 c 0
 486.123046875 60.87890625 474.087890625 96.091796875 512.603515625 114.15625 c 1
 621.252929688 110.828125 648.590820312 138.63671875 674.705078125 171.416992188 c 1
 735.052734375 304.780273438 724.69921875 364.45703125 726.0234375 464.701171875 c 1
 697.677734375 471.825195312 463.3203125 463.358398438 346.993164062 457.973632812 c 0
 315.658203125 456.522460938 294.908203125 443.173828125 287.03515625 442.53515625 c 0
 221.452148438 447.571289062 143.116210938 445.3125 156.98046875 531.897460938 c 1
 173.55078125 538.409179688 190.061523438 545.041992188 201.3671875 562.08203125 c 0
 233.26953125 608.221679688 246.302734375 684.248046875 262.1796875 767.778320312 c 1
 276.415039062 812.270507812 259.528320312 831.299804688 266.012695312 844.295898438 c 0
 273.803710938 859.91015625 285.533203125 857.672851562 308.255859375 849.643554688 c 0
 405.819335938 809.198242188 399.275390625 783.2578125 409.671875 753.067382812 c 1
 400.658203125 700.3515625 406.55859375 647.046875 358.712890625 546 c 1
 396.7890625 546.9765625 697.802734375 549.624023438 718.12109375 550.978515625 c 1
 753.21484375 567.021484375 l 1
707.036132812 788.002929688 m 1
 670.34765625 601.370117188 590.28515625 384.890625 463.399414062 207.021484375 c 0
 412.498046875 140.999023438 331.44921875 49.8173828125 269.759765625 -7.12109375 c 0
 237.53125 -34.9951171875 179.40234375 -52.498046875 140.08984375 -36.2265625 c 1
 121.224609375 -19.3369140625 181.723632812 34.26953125 199.021484375 60.3837890625 c 0
 248.897460938 124.180664062 307.174804688 214.114257812 349.017578125 276.959960938 c 0
 449.612304688 430.243164062 503.442382812 610.287109375 559.543945312 802.713867188 c 0
 573.779296875 847.205078125 556.892578125 866.235351562 563.377929688 879.231445312 c 0
 571.168945312 894.845703125 582.897460938 892.608398438 605.62109375 884.579101562 c 0
 703.184570312 844.133789062 696.640625 818.193359375 707.036132812 788.002929688 c 1
EndSplineSet
Substitution2: "'hwid' Halfwidth Bopomofo" uni310C.hw
EndChar

StartChar: uni310D
Encoding: 108 12557 107
Width: 1000
Flags: W
VStem: 354.521 147.492<732.835 834.731> 681.812 147.492<732.835 834.731>
LayerCount: 2
Fore
SplineSet
375.1640625 888.752929688 m 0
 381.7109375 888.776367188 389.946289062 886.286132812 400.59765625 882.522460938 c 0
 498.161132812 842.076171875 491.618164062 816.13671875 502.013671875 785.946289062 c 1
 473.154296875 643.864257812 391.760742188 503.87109375 302.361328125 402.848632812 c 0
 278.418945312 375.83984375 273.489257812 370.35546875 303.462890625 337.528320312 c 1
 365.853515625 252.26953125 428.0078125 196.909179688 486.6015625 112.333984375 c 0
 497.1171875 97.1552734375 507.196289062 81.357421875 516.703125 64.7158203125 c 1
 542.970703125 -33.419921875 415.797851562 -91.6044921875 366.9375 -10.1513671875 c 0
 304.001953125 101.081054688 261.3203125 237.393554688 179.83203125 344.555664062 c 1
 159.521484375 356.497070312 148.0390625 377.358398438 154.083984375 415.110351562 c 1
 170.654296875 421.622070312 187.165039062 428.254882812 198.470703125 445.295898438 c 0
 230.373046875 491.435546875 338.64453125 717.125976562 354.521484375 800.657226562 c 1
 368.756835938 845.1484375 351.869140625 864.178710938 358.353515625 877.174804688 c 0
 362.493164062 885.469726562 367.745117188 888.725585938 375.1640625 888.752929688 c 0
702.454101562 888.752929688 m 0
 709.000976562 888.776367188 717.236328125 886.286132812 727.887695312 882.522460938 c 0
 825.451171875 842.076171875 818.907226562 816.13671875 829.303710938 785.946289062 c 1
 800.443359375 643.864257812 719.05078125 503.87109375 629.650390625 402.848632812 c 0
 605.708007812 375.83984375 600.779296875 370.35546875 630.751953125 337.528320312 c 1
 693.142578125 252.26953125 755.296875 196.909179688 813.890625 112.333984375 c 0
 824.40625 97.1552734375 834.485351562 81.357421875 843.993164062 64.7158203125 c 1
 870.260742188 -33.419921875 743.086914062 -91.6044921875 694.227539062 -10.1513671875 c 0
 631.291992188 101.081054688 588.609375 237.393554688 507.122070312 344.555664062 c 1
 486.810546875 356.497070312 475.329101562 377.358398438 481.374023438 415.110351562 c 1
 497.944335938 421.622070312 514.454101562 428.254882812 525.760742188 445.295898438 c 0
 557.662109375 491.435546875 665.934570312 717.125976562 681.811523438 800.657226562 c 1
 696.046875 845.1484375 679.158203125 864.178710938 685.643554688 877.174804688 c 0
 689.782226562 885.469726562 695.034179688 888.725585938 702.454101562 888.752929688 c 0
EndSplineSet
Substitution2: "'hwid' Halfwidth Bopomofo" uni310D.hw
EndChar

StartChar: uni310E
Encoding: 109 12558 108
Width: 1000
Flags: W
HStem: 31.4775 75.9531<404.356 456.229> 438.204 88.0273<430.472 640.261> 447.617 83.5928<433.593 641.31> 527.253 20G<641.31 692.447> 732.513 80.2168<209.168 379.383> 740.536 80.2168<555.981 738.956 775.564 876.405>
LayerCount: 2
Fore
SplineSet
774.049804688 836.795898438 m 1x84
 806.13671875 834.790039062 852.26171875 827.771484375 871.313476562 820.752929688 c 0
 879.334960938 817.745117188 884.348632812 808.71875 884.348632812 799.694335938 c 0
 884.348632812 771.618164062 870.310546875 745.548828125 859.280273438 738.530273438 c 1
 841.231445312 740.53515625 787.0859375 740.536132812 763.020507812 740.536132812 c 0x84
 725.919921875 740.536132812 324.529296875 735.520507812 287.428710938 732.512695312 c 0
 266.372070312 731.509765625 228.268554688 724.491210938 208.21484375 719.477539062 c 1
 175.125 737.526367188 141.034179688 766.606445312 118.973632812 792.676757812 c 0
 114.962890625 796.6875 114.962890625 801.701171875 116.96875 805.711914062 c 2
 124.990234375 821.754882812 l 1
 159.08203125 815.73828125 205.206054688 812.729492188 232.278320312 812.729492188 c 0x88
 275.395507812 811.7265625 693.833984375 817.745117188 738.956054688 820.752929688 c 1
 774.049804688 836.795898438 l 1x84
355.606445312 733.235351562 m 1
 432.801757812 804.236328125 568.778320312 830.39453125 544.606445312 734.172851562 c 1
 534.900390625 725.725585938 523.528320312 716.75390625 520.458007812 711.454101562 c 0
 493.57421875 665.053710938 470.197265625 610.130859375 430.471679688 526.231445312 c 1xc0
 468.547851562 527.208007812 620.991210938 529.85546875 641.309570312 531.209960938 c 1xa0
 676.403320312 547.252929688 l 1x90
 708.490234375 545.248046875 754.615234375 538.229492188 773.666992188 531.209960938 c 0
 781.688476562 528.202148438 786.702148438 519.17578125 786.702148438 510.151367188 c 0
 782.529296875 315.86328125 700.950195312 166.327148438 588.028320312 9.9501953125 c 0
 568.186523438 -14.16015625 550.538085938 -33.17578125 539.534179688 -43.3251953125 c 0
 460.557617188 -97.98828125 480.557617188 22.01171875 430.495117188 31.4775390625 c 0
 329.310546875 54.154296875 317.2734375 89.3662109375 355.790039062 107.430664062 c 1
 418.505859375 105.509765625 454.129882812 113.962890625 478.064453125 127.7578125 c 0
 561.6328125 177.088867188 605.5078125 306.250976562 640.940429688 418.611328125 c 0
 648.443359375 442.412109375 650.067382812 449.133789062 619.086914062 447.6171875 c 0xa0
 576.286132812 448.231445312 501.90625 442.318359375 413.038085938 438.204101562 c 0xc0
 381.703125 436.75390625 360.952148438 423.405273438 353.079101562 422.766601562 c 0
 287.49609375 427.801757812 209.16015625 425.54296875 223.024414062 512.127929688 c 1
 239.594726562 518.640625 256.106445312 525.272460938 267.413085938 542.313476562 c 0
 296.69921875 584.670898438 330.724609375 657.030273438 355.606445312 733.235351562 c 1
EndSplineSet
Substitution2: "'hwid' Halfwidth Bopomofo" uni310E.hw
EndChar

StartChar: uni310F
Encoding: 110 12559 109
Width: 1000
Flags: W
HStem: 720.126 80.2168<264.885 532.575> 728.149 80.2168<503.247 725.212 761.82 862.66>
VStem: 264.957 141.777<436.534 684.736>
LayerCount: 2
Fore
SplineSet
760.305664062 824.409179688 m 1x60
 792.391601562 822.403320312 838.517578125 815.384765625 857.569335938 808.366210938 c 0
 865.590820312 805.357421875 870.604492188 796.33203125 870.604492188 787.307617188 c 0
 870.604492188 759.231445312 856.565429688 733.162109375 845.536132812 726.143554688 c 1
 827.487304688 728.1484375 773.340820312 728.149414062 749.276367188 728.149414062 c 0x60
 712.17578125 728.149414062 380.247070312 723.133789062 343.146484375 720.125976562 c 0
 322.08984375 719.123046875 283.986328125 712.104492188 263.931640625 707.090820312 c 1
 230.841796875 725.139648438 194.750976562 754.21875 172.69140625 780.290039062 c 0
 168.680664062 784.30078125 168.6796875 789.314453125 170.685546875 793.325195312 c 2
 178.70703125 809.368164062 l 1
 212.798828125 803.3515625 258.922851562 800.342773438 285.99609375 800.342773438 c 0xa0
 329.112304688 799.33984375 680.08984375 805.357421875 725.211914062 808.366210938 c 1
 760.305664062 824.409179688 l 1x60
406.734375 635.950195312 m 1
 380.037109375 332.745117188 341.877929688 108.651367188 263.650390625 20.9375 c 1
 231.422851562 -6.9365234375 173.293945312 -60.8046875 133.98046875 -44.533203125 c 1
 115.115234375 -27.6435546875 159.452148438 66.20703125 176.75 92.3212890625 c 1
 240 336 245.713867188 460 264.95703125 630.661132812 c 1
 279.19140625 675.153320312 256.590820312 714.182617188 263.075195312 727.178710938 c 0
 270.8671875 742.79296875 282.595703125 740.555664062 305.319335938 732.526367188 c 0
 402.881835938 692.081054688 396.338867188 666.140625 406.734375 635.950195312 c 1
EndSplineSet
Substitution2: "'hwid' Halfwidth Bopomofo" uni310F.hw
EndChar

StartChar: uni3110
Encoding: 111 12560 110
Width: 1000
Flags: W
VStem: 215.779 136.789<326.009 766.768> 678.637 136.789<18.699 297.616 377.724 804.184>
LayerCount: 2
Fore
SplineSet
181.21484375 809.834960938 m 0
 192.450195312 832.91796875 212.489257812 835.567382812 236.439453125 830.665039062 c 0
 276.797851562 823.978515625 318.135742188 813.66796875 342.068359375 802.961914062 c 0
 353.098632812 797.948242188 358.112304688 787.921875 357.109375 772.881835938 c 2
 353.09765625 709.709960938 l 1
 353.09765625 607.224609375 352.568359375 493.928710938 352.568359375 421.114257812 c 0
 351.295898438 389.340820312 345.936523438 359.833984375 349.669921875 324.919921875 c 1
 442.487304688 339.456054688 573.461914062 340.323242188 688.616210938 377.723632812 c 1
 690.478515625 297.616210938 l 1
 582.380859375 250.928710938 487.668945312 235.549804688 371.34765625 200.518554688 c 0
 353.803710938 194.969726562 318.591796875 170.969726562 317.25390625 170.604492188 c 0
 256.247070312 163.93359375 206.137695312 153.259765625 197.02734375 222.483398438 c 0
 194.990234375 238.241210938 201.734375 244.80859375 210.013671875 259.489257812 c 0
 216.799804688 278.943359375 217.416992188 308.357421875 215.779296875 331.551757812 c 0
 216.471679688 423.430664062 213.720703125 575.778320312 213.720703125 702.043945312 c 0
 213.720703125 749.15625 172.091796875 792.325195312 181.21484375 809.834960938 c 0
644.072265625 846.977539062 m 0
 655.307617188 870.061523438 675.345703125 872.7109375 699.296875 867.807617188 c 0
 739.654296875 861.122070312 780.993164062 850.811523438 804.92578125 840.104492188 c 0
 815.955078125 835.090820312 820.969726562 825.065429688 819.966796875 810.024414062 c 2
 815.955078125 746.852539062 l 1
 815.955078125 644.368164062 815.42578125 254.706054688 815.42578125 181.891601562 c 0
 812.342773438 102.131835938 795.934570312 0.0751953125 769.830078125 -57.53515625 c 1
 692.623046875 -57.53515625 l 1
 686.03515625 -33.1591796875 681.193359375 34.0087890625 678.63671875 92.330078125 c 0
 679.328125 184.208984375 676.578125 612.920898438 676.578125 739.186523438 c 0
 676.578125 786.299804688 634.948242188 829.46875 644.072265625 846.977539062 c 0
EndSplineSet
Substitution2: "'hwid' Halfwidth Bopomofo" uni3110.hw
EndChar

StartChar: uni3111
Encoding: 112 12561 111
Width: 1000
Flags: W
LayerCount: 2
Fore
SplineSet
587.237304688 902.38671875 m 0
 593.784179688 902.411132812 602.01953125 899.919921875 612.670898438 896.15625 c 0
 710.234375 855.7109375 719.853515625 801.487304688 730.25 771.295898438 c 1
 701.389648438 629.213867188 472.413085938 523.627929688 383.012695312 422.604492188 c 0
 359.0703125 395.595703125 354.141601562 387.94921875 384.115234375 355.122070312 c 0
 502.779296875 238.694335938 729.4296875 173.2265625 745.268554688 93.1259765625 c 0
 764.103515625 -2.1279296875 710.353515625 -124.30078125 611.665039062 -26.1875 c 0
 512.9765625 71.9248046875 347.802734375 221.377929688 238.362304688 358.189453125 c 1
 218.051757812 370.130859375 206.569335938 390.993164062 212.614257812 428.744140625 c 1
 229.184570312 435.256835938 245.6953125 441.889648438 257.000976562 458.9296875 c 0
 288.903320312 505.0703125 550.717773438 730.760742188 566.594726562 814.291015625 c 1
 580.830078125 858.783203125 563.942382812 877.8125 570.426757812 890.80859375 c 0
 574.56640625 899.103515625 579.818359375 902.360351562 587.237304688 902.38671875 c 0
EndSplineSet
Substitution2: "'hwid' Halfwidth Bopomofo" uni3111.hw
EndChar

StartChar: uni3112
Encoding: 113 12562 112
Width: 1000
Flags: W
HStem: 718.906 80.2168<205.127 473.839> 726.93 80.2168<525.225 742.997 779.605 880.446>
VStem: 443.104 136.788<40.354 673.92>
LayerCount: 2
Fore
SplineSet
441.78515625 739.739257812 m 0x20
 441.78515625 733.74609375 455.0078125 738.986328125 463.763671875 737.543945312 c 0
 504.122070312 730.858398438 545.459960938 720.547851562 569.392578125 709.840820312 c 0
 580.422851562 704.827148438 585.436523438 694.801757812 584.434570312 679.760742188 c 2
 580.421875 616.588867188 l 1
 580.421875 485.533203125 581.870117188 330.641601562 579.892578125 203.546875 c 0
 576.809570312 123.787109375 560.40234375 21.73046875 534.296875 -35.880859375 c 1
 457.08984375 -35.880859375 l 1
 450.501953125 -11.5048828125 445.661132812 55.6630859375 443.104492188 113.984375 c 0
 444.268554688 268.674804688 445.8046875 454.262695312 441.045898438 608.922851562 c 0
 441.045898438 656.036132812 399.416015625 699.204101562 408.5390625 716.713867188 c 0
 412.737304688 724.76953125 411.336914062 739.2890625 439.291992188 739.735351562 c 0
 440.09765625 739.749023438 440.9296875 739.750976562 441.78515625 739.739257812 c 0x20
778.090820312 823.189453125 m 1
 810.177734375 821.184570312 856.302734375 814.166015625 875.354492188 807.146484375 c 0
 883.375976562 804.138671875 888.389648438 795.112304688 888.389648438 786.087890625 c 0
 888.389648438 758.012695312 874.350585938 731.943359375 863.321289062 724.923828125 c 1
 845.272460938 726.9296875 791.125976562 726.9296875 767.061523438 726.9296875 c 0x60
 729.9609375 726.9296875 320.489257812 721.915039062 283.388671875 718.90625 c 0
 262.33203125 717.904296875 224.227539062 710.884765625 204.173828125 705.87109375 c 1
 171.083984375 723.919921875 136.993164062 753 114.93359375 779.0703125 c 0
 110.922851562 783.081054688 110.921875 788.094726562 112.927734375 792.10546875 c 2
 120.94921875 808.1484375 l 1
 155.041015625 802.1328125 201.165039062 799.123046875 228.23828125 799.123046875 c 0xa0
 271.354492188 798.12109375 697.875 804.138671875 742.997070312 807.146484375 c 1x60
 778.090820312 823.189453125 l 1
EndSplineSet
Substitution2: "'hwid' Halfwidth Bopomofo" uni3112.hw
EndChar

StartChar: uni3113
Encoding: 114 12563 113
Width: 1000
Flags: W
HStem: -14.2871 80.2168<203.943 454.149> -6.26367 80.2168<565.277 749.895 786.502 887.343> 239.353 80.2168<331.943 649.916 763.222 770.24>
VStem: 201.568 136.789<312.673 699.501> 450.065 136.789<82.0965 801.496> 698.562 136.789<335.585 699.5>
LayerCount: 2
Fore
SplineSet
784.98828125 89.99609375 m 1x7c
 817.075195312 87.990234375 863.200195312 80.9716796875 882.251953125 73.953125 c 0
 890.2734375 70.9443359375 895.287109375 61.91796875 895.287109375 52.89453125 c 0
 895.287109375 24.818359375 881.249023438 -1.2509765625 870.21875 -8.26953125 c 1
 852.169921875 -6.2646484375 798.024414062 -6.263671875 773.958984375 -6.263671875 c 0x7c
 736.858398438 -6.263671875 319.305664062 -11.279296875 282.205078125 -14.287109375 c 0
 261.1484375 -15.2900390625 223.044921875 -22.3095703125 202.990234375 -27.322265625 c 1
 169.900390625 -9.2744140625 135.809570312 19.8056640625 113.75 45.876953125 c 0
 109.739257812 49.8876953125 109.739257812 54.900390625 111.744140625 58.912109375 c 2
 119.765625 74.955078125 l 1
 153.857421875 68.9384765625 199.981445312 65.9296875 227.0546875 65.9296875 c 0xbc
 270.170898438 64.9267578125 704.772460938 70.9443359375 749.89453125 73.953125 c 1
 784.98828125 89.99609375 l 1x7c
415.500976562 844.290039062 m 0
 428.188476562 870.357421875 450.247070312 868.383789062 470.725585938 865.120117188 c 0
 511.083007812 858.434570312 552.421875 848.124023438 576.354492188 837.416992188 c 0
 587.383789062 832.403320312 592.3984375 822.377929688 591.395507812 807.336914062 c 2
 587.383789062 744.165039062 l 1
 587.383789062 613.108398438 588.83203125 372.384765625 586.854492188 245.2890625 c 0
 583.771484375 165.529296875 567.36328125 63.47265625 541.258789062 5.8623046875 c 1
 464.051757812 5.8623046875 l 1
 457.463867188 30.23828125 452.622070312 97.40625 450.065429688 155.727539062 c 0
 451.229492188 310.416992188 452.765625 581.838867188 448.006835938 736.499023438 c 0
 448.006835938 783.612304688 406.376953125 826.780273438 415.500976562 844.290039062 c 0
663.998046875 742.294921875 m 0
 676.686523438 768.362304688 698.744140625 766.387695312 719.22265625 763.125 c 0
 759.580078125 756.438476562 800.918945312 746.127929688 824.8515625 735.421875 c 0
 835.881835938 730.408203125 840.895507812 720.381835938 839.892578125 705.341796875 c 2
 835.880859375 642.169921875 l 1
 835.880859375 511.11328125 837.329101562 554.211914062 835.3515625 427.1171875 c 0
 832.268554688 347.357421875 815.861328125 245.30078125 789.755859375 187.689453125 c 1
 712.548828125 187.689453125 l 1
 705.9609375 212.065429688 701.119140625 279.233398438 698.5625 337.5546875 c 0
 699.727539062 492.245117188 701.263671875 479.842773438 696.50390625 634.50390625 c 0
 696.50390625 681.616210938 654.875 724.78515625 663.998046875 742.294921875 c 0
167.00390625 742.295898438 m 0
 179.69140625 768.36328125 201.750976562 766.387695312 222.228515625 763.125976562 c 0
 262.5859375 756.439453125 303.924804688 746.12890625 327.857421875 735.422851562 c 0
 338.88671875 730.409179688 343.900390625 720.3828125 342.8984375 705.342773438 c 2
 338.88671875 642.170898438 l 1
 338.88671875 511.114257812 340.334960938 578.455078125 338.357421875 451.360351562 c 0
 336.846679688 412.287109375 334.989257812 380.728515625 331.793945312 338.802734375 c 0
 328.74609375 321.75 332.2421875 312.21484375 349.919921875 312.590820312 c 0
 466.813476562 314.318359375 620.23828125 317.590820312 649.916015625 319.569335938 c 1
 685.009765625 335.612304688 l 1
 717.096679688 333.606445312 763.221679688 326.587890625 782.2734375 319.569335938 c 0
 790.294921875 316.560546875 795.30859375 307.53515625 795.30859375 298.510742188 c 0
 795.30859375 270.434570312 781.26953125 244.365234375 770.240234375 237.346679688 c 1
 752.19140625 239.3515625 698.044921875 239.352539062 673.98046875 239.352539062 c 0
 641.458984375 239.352539062 460.8515625 235.499023438 373.793945312 232.522460938 c 0
 327.864257812 233.13671875 312.860351562 191.713867188 283.981445312 196.602539062 c 0
 254.193359375 203.59375 217.521484375 214.57421875 206.942382812 228.923828125 c 0
 184.228515625 259.732421875 196.181640625 306.071289062 201.568359375 361.799804688 c 1
 202.732421875 516.489257812 204.268554688 479.84375 199.509765625 634.504882812 c 0
 199.509765625 681.6171875 157.879882812 724.786132812 167.00390625 742.295898438 c 0
EndSplineSet
Substitution2: "'hwid' Halfwidth Bopomofo" uni3113.hw
EndChar

StartChar: uni3114
Encoding: 115 12564 114
Width: 1000
Flags: W
VStem: 489.684 143.659<781.252 850.909> 517.035 139.377<2.16495 295.21> 705.985 129.876<673.424 754.224>
LayerCount: 2
Fore
SplineSet
633.342773438 802.123046875 m 1xa0
 615.56640625 722.677734375 544.540039062 657.471679688 475.469726562 579.758789062 c 0
 438.40234375 539.061523438 377.79296875 500.517578125 310.6875 469.219726562 c 0
 270.951171875 450.686523438 245.443359375 453.5859375 205.787109375 462.747070312 c 1
 195.286132812 474.702148438 252.828125 523.143554688 290.044921875 566.764648438 c 0
 350.512695312 636.103515625 438.758789062 703.572265625 485.850585938 816.834960938 c 0
 500.084960938 861.326171875 483.19921875 880.356445312 489.68359375 893.352539062 c 0
 497.474609375 908.966796875 509.203125 906.728515625 531.926757812 898.69921875 c 0
 629.490234375 858.25390625 622.946289062 832.314453125 633.342773438 802.123046875 c 1xa0
835.861328125 704.306640625 m 1
 821.317382812 624.206054688 771.194335938 557.118164062 584.543945312 383.299804688 c 1
 523.578125 337.23828125 411.681640625 247.96875 345.8984375 213.978515625 c 0
 306.946289062 193.8515625 205.040039062 180.490234375 165.044921875 188.038085938 c 1
 154.069335938 199.55859375 245.5625 264.86328125 290.266601562 300.76953125 c 0
 356.381835938 353.875 461.58203125 445.94140625 532.038085938 504.530273438 c 1
 603.307617188 570.596679688 679.079101562 650.185546875 705.254882812 708.016601562 c 1
 717.67578125 753.048828125 700.032226562 771.37890625 705.985351562 784.626953125 c 0
 713.137695312 800.543945312 724.948242188 798.783203125 747.977539062 791.680664062 c 0
 786.857421875 777.639648438 835.98046875 753.290039062 835.861328125 704.306640625 c 1
522.75 242.081054688 m 2
 524.612304688 289.15625 481.12109375 332.361328125 490.244140625 349.87109375 c 0
 495.41015625 359.78515625 492.096679688 379.493164062 545.467773438 370.702148438 c 0
 585.826171875 364.016601562 627.165039062 353.705078125 651.09765625 342.998046875 c 0
 662.126953125 337.984375 667.141601562 327.958984375 666.138671875 312.91796875 c 2
 662.126953125 249.74609375 l 1
 656.412109375 136.754882812 l 1
 656.412109375 54.5322265625 639.366210938 6.6376953125 610.287109375 -57.53515625 c 1
 533.080078125 -57.53515625 l 1
 523.053710938 -20.435546875 514.934570312 44.546875 517.03515625 97.6494140625 c 2x60
 522.75 242.081054688 l 2
EndSplineSet
Substitution2: "'hwid' Halfwidth Bopomofo" uni3114.hw
EndChar

StartChar: uni3115
Encoding: 116 12565 115
Width: 1000
Flags: W
HStem: 424.143 80.2168<440.693 689.34> 432.166 80.2168<489.566 712.087> 746.147 80.2168<292.917 557.186> 749.312 85.0762<479.45 704.682>
VStem: 711.669 139.377<530.42 741.665>
LayerCount: 2
Fore
SplineSet
765.727539062 850.430664062 m 1x18
 797.814453125 848.424804688 826.796875 841.40625 845.848632812 834.387695312 c 0
 858.903320312 829.052734375 860.224609375 802.09375 861.016601562 789.958984375 c 0
 863.012695312 759.358398438 857.12109375 730.997070312 851.045898438 704.268554688 c 1
 851.045898438 602.145507812 l 2
 851.045898438 519.923828125 833.999023438 453.12890625 804.920898438 388.955078125 c 1
 727.713867188 388.955078125 l 1
 717.686523438 426.055664062 711.668945312 509.896484375 711.668945312 563.040039062 c 2
 711.668945312 698.073242188 l 1
 716.727539062 728.440429688 686.557617188 751.196289062 662.578125 749.311523438 c 0x18
 574.877929688 747.791015625 399.340820312 748.430664062 371.178710938 746.147460938 c 0
 350.12109375 745.14453125 312.017578125 738.125976562 291.963867188 733.112304688 c 1
 258.874023438 751.161132812 224.783203125 780.241210938 202.723632812 806.311523438 c 0
 198.712890625 810.322265625 198.711914062 815.3359375 200.717773438 819.346679688 c 2
 208.739257812 835.389648438 l 1
 242.831054688 829.373046875 288.955078125 826.364257812 316.028320312 826.364257812 c 0x28
 359.14453125 825.361328125 685.51171875 831.379882812 730.633789062 834.387695312 c 1
 765.727539062 850.430664062 l 1x18
747.180664062 528.42578125 m 1
 779.267578125 526.420898438 796.821289062 519.40234375 815.873046875 512.3828125 c 0
 823.89453125 509.375 828.908203125 500.348632812 828.908203125 491.32421875 c 0
 828.908203125 463.248046875 814.869140625 437.1796875 803.83984375 430.16015625 c 1
 785.791015625 432.166015625 760.215820312 432.166015625 736.151367188 432.166015625 c 0x48
 699.05078125 432.166015625 535.29296875 427.151367188 498.192382812 424.142578125 c 0
 477.135742188 423.139648438 439.032226562 416.12109375 418.977539062 411.107421875 c 1
 385.888671875 429.15625 351.796875 458.236328125 329.737304688 484.306640625 c 0
 325.7265625 488.317382812 325.7265625 493.331054688 327.731445312 497.341796875 c 2
 335.752929688 513.384765625 l 1
 369.845703125 507.369140625 415.96875 504.359375 443.041992188 504.359375 c 0x88
 486.159179688 503.356445312 666.96484375 509.375 712.086914062 512.3828125 c 1x48
 747.180664062 528.42578125 l 1
393.595703125 210.3515625 m 1
 363.478515625 134.340820312 333.318359375 64.1318359375 266.415039062 -4.279296875 c 0
 239.602539062 -37.3955078125 185.466796875 -64.8662109375 143.90234375 -55.775390625 c 1
 122.356445312 -42.474609375 172.463867188 20.953125 184.889648438 49.70703125 c 0
 213.36328125 103.227539062 230.944335938 146.6875 248.642578125 193.80859375 c 0
 277.545898438 270.758789062 277.989257812 358.124023438 292.534179688 433.819335938 c 0
 298.708007812 480.123046875 278.732421875 495.879882812 282.826171875 509.815429688 c 0
 287.744140625 526.557617188 299.68359375 526.421875 323.465820312 522.522460938 c 0
 426.62890625 499.899414062 424.758789062 473.211914062 440.311523438 445.325195312 c 1
 440.7265625 391.845703125 422.888671875 318.247070312 393.595703125 210.3515625 c 1
EndSplineSet
Substitution2: "'hwid' Halfwidth Bopomofo" uni3115.hw
EndChar

StartChar: uni3116
Encoding: 117 12566 116
Width: 1000
Flags: W
HStem: -19.5801 80.2168<298.509 539.25> -11.5566 80.2168<476.791 698.716 812.021 819.04> 691.596 80.2168<320.193 578.383> 694.76 85.0762<500.647 725.879>
VStem: 175.725 139.377<71.0837 689.348> 732.866 139.377<86.6876 687.114>
LayerCount: 2
Fore
SplineSet
175.724609375 659.223632812 m 2x0c
 175.724609375 706.336914062 134.095703125 749.504882812 143.21875 767.014648438 c 0
 148.384765625 776.928710938 145.0703125 796.63671875 198.442382812 787.845703125 c 0
 238.799804688 781.159179688 280.138671875 770.84765625 304.072265625 760.141601562 c 0
 315.1015625 755.127929688 320.115234375 745.1015625 319.11328125 730.061523438 c 2
 315.1015625 666.889648438 l 1
 315.1015625 208.18359375 l 2
 315.1015625 125.961914062 298.0546875 6.638671875 268.9765625 -57.53515625 c 1
 191.768554688 -57.53515625 l 1
 181.7421875 -20.4345703125 175.724609375 115.934570312 175.724609375 169.078125 c 2
 175.724609375 659.223632812 l 2x0c
786.924804688 795.87890625 m 1
 819.01171875 793.874023438 847.994140625 786.85546875 867.045898438 779.8359375 c 0
 880.100585938 774.500976562 881.422851562 747.541992188 882.213867188 735.408203125 c 0
 884.209960938 704.806640625 878.318359375 676.446289062 872.243164062 649.717773438 c 1
 872.243164062 208.18359375 l 2
 872.243164062 125.9609375 855.197265625 6.6376953125 826.118164062 -57.53515625 c 1
 748.911132812 -57.53515625 l 1
 738.883789062 -20.435546875 732.866210938 115.934570312 732.866210938 169.078125 c 2
 732.866210938 643.522460938 l 1
 737.924804688 673.888671875 707.754882812 696.64453125 683.776367188 694.759765625 c 0x1c
 596.075195312 693.240234375 420.5390625 693.879882812 392.375976562 691.595703125 c 0
 371.319335938 690.59375 333.21484375 683.57421875 313.161132812 678.560546875 c 1
 280.071289062 696.609375 245.98046875 725.689453125 223.920898438 751.759765625 c 0
 219.91015625 755.770507812 219.909179688 760.784179688 221.915039062 764.794921875 c 2
 229.936523438 780.837890625 l 1
 264.028320312 774.822265625 310.15234375 771.8125 337.225585938 771.8125 c 0x2c
 380.341796875 770.810546875 706.708984375 776.828125 751.831054688 779.8359375 c 1x1c
 786.924804688 795.87890625 l 1
733.809570312 84.703125 m 1
 765.896484375 82.697265625 812.021484375 75.6787109375 831.073242188 68.66015625 c 0
 839.094726562 65.6513671875 844.108398438 56.6259765625 844.108398438 47.6015625 c 0
 844.108398438 19.525390625 830.0703125 -6.5439453125 819.040039062 -13.5625 c 1
 800.991210938 -11.5576171875 746.845703125 -11.556640625 722.780273438 -11.556640625 c 0x4c
 685.6796875 -11.556640625 390.493164062 -16.572265625 353.393554688 -19.580078125 c 0
 332.3359375 -20.5830078125 294.232421875 -27.6025390625 274.178710938 -32.615234375 c 1
 241.088867188 -14.56640625 206.998046875 14.5126953125 184.938476562 40.583984375 c 0
 180.927734375 44.5947265625 180.926757812 49.6083984375 182.932617188 53.619140625 c 2
 190.954101562 69.662109375 l 1
 225.045898438 63.6455078125 271.169921875 60.63671875 298.243164062 60.63671875 c 0x8c
 341.359375 59.6337890625 653.59375 65.6513671875 698.715820312 68.66015625 c 1x4c
 733.809570312 84.703125 l 1
366.755859375 497.708984375 m 0
 353.077148438 527.431640625 351.560546875 543.440429688 385.903320312 542.266601562 c 1
 462.560546875 510.911132812 553.724609375 451.791992188 633.276367188 363.029296875 c 1
 666.056640625 281.484375 613.7890625 194.041992188 525.2421875 246.702148438 c 1
 479.926757812 287.626953125 413.540039062 402.278320312 366.755859375 497.708984375 c 0
EndSplineSet
Substitution2: "'hwid' Halfwidth Bopomofo" uni3116.hw
EndChar

StartChar: uni3117
Encoding: 118 12567 117
Width: 1000
Flags: W
HStem: 179.49 96.9844<643.238 691.494> 743.024 80.2168<232.511 502.26> 746.188 85.0762<482.086 704.275>
VStem: 302.143 139.377<20.5057 716.285>
LayerCount: 2
Fore
SplineSet
765.3203125 847.307617188 m 1xb0
 797.407226562 845.302734375 826.390625 838.284179688 845.44140625 831.264648438 c 0
 858.497070312 825.9296875 859.818359375 798.969726562 860.609375 786.834960938 c 0
 862.60546875 756.234375 856.71484375 727.874023438 850.638671875 701.145507812 c 1
 850.638671875 582.3046875 857.696289062 415.955078125 842.11328125 303.353515625 c 0
 836.639648438 271.924804688 828.133789062 239.163085938 815.998046875 204.166015625 c 0
 803.926757812 175.369140625 792.489257812 152.08203125 784.8671875 139.197265625 c 0
 724.942382812 64.1357421875 709.596679688 184.818359375 658.92578125 179.490234375 c 1
 543.278320312 220.982421875 515.326171875 253.588867188 548.39453125 276.474609375 c 1
 686.123046875 282.71875 699.224609375 286.319335938 704.33203125 332.208984375 c 0
 717.3125 428.615234375 709.61328125 593.095703125 711.26171875 694.950195312 c 1
 716.3203125 725.317382812 686.151367188 748.073242188 662.171875 746.188476562 c 0xb0
 574.471679688 744.668945312 338.934570312 745.30859375 310.772460938 743.024414062 c 0
 289.71484375 742.021484375 251.611328125 735.002929688 231.557617188 729.989257812 c 1
 198.467773438 748.038085938 164.376953125 777.118164062 142.317382812 803.188476562 c 0
 138.306640625 807.19921875 138.305664062 812.212890625 140.311523438 816.223632812 c 2
 148.333007812 832.266601562 l 1
 182.424804688 826.250976562 228.548828125 823.241210938 255.622070312 823.241210938 c 0xd0
 298.73828125 822.23828125 685.104492188 828.256835938 730.2265625 831.264648438 c 1
 765.3203125 847.307617188 l 1xb0
302.142578125 647.794921875 m 2
 302.142578125 694.907226562 260.513671875 738.076171875 269.63671875 755.5859375 c 0
 274.802734375 765.5 271.489257812 785.208007812 324.860351562 776.416015625 c 0
 365.21875 769.73046875 406.557617188 759.418945312 430.490234375 748.711914062 c 0
 441.51953125 743.698242188 446.534179688 733.672851562 445.53125 718.631835938 c 2
 441.51953125 655.459960938 l 1
 441.51953125 208.18359375 l 2
 441.51953125 125.9609375 424.47265625 6.6376953125 395.39453125 -57.53515625 c 1
 318.1875 -57.53515625 l 1
 308.16015625 -20.435546875 302.142578125 115.934570312 302.142578125 169.078125 c 2
 302.142578125 647.794921875 l 2
EndSplineSet
Substitution2: "'hwid' Halfwidth Bopomofo" uni3117.hw
EndChar

StartChar: uni3118
Encoding: 119 12568 118
Width: 1000
Flags: W
HStem: 350.014 80.5996<413.971 615.578> 643.276 80.2168<205.127 361.252> 651.3 80.2168<539.672 742.997 779.605 880.446> 727.56 20G<742.997 794.134>
VStem: 413.516 148.365<733.791 839.955>
LayerCount: 2
Fore
SplineSet
778.090820312 747.559570312 m 1x98
 810.177734375 745.5546875 856.302734375 738.536132812 875.354492188 731.516601562 c 0
 883.375976562 728.508789062 888.389648438 719.482421875 888.389648438 710.458007812 c 0
 888.389648438 682.3828125 874.350585938 656.313476562 863.321289062 649.293945312 c 1
 845.272460938 651.299804688 791.125976562 651.299804688 767.061523438 651.299804688 c 0xa8
 729.9609375 651.299804688 320.489257812 646.28515625 283.388671875 643.276367188 c 0
 262.33203125 642.274414062 224.227539062 635.254882812 204.173828125 630.241210938 c 1
 171.083984375 648.290039062 136.993164062 677.370117188 114.93359375 703.440429688 c 0
 110.922851562 707.451171875 110.921875 712.46484375 112.927734375 716.475585938 c 2
 120.94921875 732.518554688 l 1
 155.041015625 726.502929688 201.165039062 723.493164062 228.23828125 723.493164062 c 0xc8
 271.354492188 722.491210938 697.875 728.508789062 742.997070312 731.516601562 c 1xa8
 778.090820312 747.559570312 l 1x98
431.0078125 891.0390625 m 0
 437.336914062 891.09375 445.293945312 889.116210938 455.41015625 886.14453125 c 0
 555.010742188 851.013671875 549.873046875 824.758789062 561.880859375 795.171875 c 1
 555.719726562 742.046875 514.830078125 671.198242188 472.498046875 567.720703125 c 1
 452.325195312 530.8359375 441.661132812 491.501953125 413.97265625 451.912109375 c 1
 409.778320312 438.235351562 395.8046875 432.928710938 417.306640625 430.61328125 c 0
 522.166992188 432.41796875 609.650390625 435.267578125 636.541015625 437.060546875 c 1
 642.705078125 439.87890625 l 1
 656.060546875 451.51953125 659.249023438 467.918945312 683.392578125 458.35546875 c 0
 719.974609375 443.727539062 782.098632812 433.10546875 786.751953125 375.114257812 c 1
 777.73828125 322.3984375 747.212890625 290.236328125 699.3671875 189.189453125 c 1
 656.328125 119.673828125 610.241210938 33.37890625 532.33203125 -22.173828125 c 0
 500.103515625 -50.0478515625 441.974609375 -67.55078125 402.662109375 -51.279296875 c 1
 383.796875 -34.390625 444.295898438 19.2177734375 461.59375 45.33203125 c 0
 499.051757812 92.9990234375 528.04296875 155.1796875 553.767578125 198.4453125 c 0
 582.61328125 246.9609375 599.115234375 302.67578125 615.578125 356.12109375 c 1
 558.44921875 354.869140625 466.341796875 352.208984375 402.15234375 350.013671875 c 0
 356.22265625 350.627929688 341.217773438 309.20703125 312.33984375 314.095703125 c 0
 282.551757812 321.0859375 245.879882812 332.065429688 235.30078125 346.416015625 c 0
 184.666015625 419.810546875 231.4921875 392.211914062 273.064453125 480.888671875 c 0
 292.32421875 513.012695312 307.936523438 533.465820312 326.611328125 569.1171875 c 0
 364.752929688 641.932617188 390.072265625 728.580078125 413.810546875 801.9140625 c 0
 425.627929688 847.107421875 407.740234375 865.200195312 413.515625 878.52734375 c 0
 417.41796875 887.533203125 422.869140625 890.967773438 431.0078125 891.0390625 c 0
EndSplineSet
Substitution2: "'hwid' Halfwidth Bopomofo" uni3118.hw
EndChar

StartChar: uni3119
Encoding: 120 12569 119
Width: 1000
Flags: W
HStem: 1.61035 107.213<332.787 463.814>
VStem: 400.904 174.008<683.745 818.531>
LayerCount: 2
Fore
SplineSet
420.259765625 873.263671875 m 0
 426.108398438 873.254882812 433.303710938 871.954101562 442.13671875 870.041015625 c 0
 544.018554688 842.209960938 560.794921875 815.65234375 574.912109375 787.01171875 c 1
 572.612304688 733.580078125 531.6328125 609.5546875 496.900390625 503.284179688 c 1
 433.736328125 366.365234375 389.893554688 247.3515625 331.49609375 137.868164062 c 1
 330.73046875 125.35546875 347.4921875 108.50390625 362.505859375 108.823242188 c 0
 479.399414062 110.55078125 620.25390625 140.963867188 649.930664062 142.942382812 c 1
 685.024414062 158.985351562 l 1
 717.111328125 156.98046875 763.236328125 149.961914062 782.288085938 142.942382812 c 0
 790.309570312 139.934570312 795.323242188 130.908203125 795.323242188 121.883789062 c 0
 795.323242188 93.80859375 781.284179688 67.7392578125 770.254882812 60.7197265625 c 1
 752.206054688 62.7255859375 698.059570312 62.7255859375 673.995117188 62.7255859375 c 0
 641.473632812 62.7255859375 403.724609375 4.587890625 316.666992188 1.6103515625 c 0
 270.737304688 2.224609375 255.732421875 -39.1962890625 226.854492188 -34.3076171875 c 0
 197.06640625 -27.3173828125 160.39453125 -16.337890625 149.815429688 -1.9873046875 c 0
 127.1015625 28.8203125 139.053710938 75.1591796875 144.440429688 130.887695312 c 1
 173.124023438 163.639648438 l 1
 213.114257812 232.497070312 311.729492188 447.576171875 330.72265625 491.264648438 c 0
 363.495117188 566.649414062 388.373046875 708.165039062 406.7421875 783.0234375 c 0
 415.2578125 828.954101562 396.108398438 845.704101562 400.904296875 859.4140625 c 0
 404.504882812 869.708984375 410.51171875 873.279296875 420.259765625 873.263671875 c 0
644.135742188 325.963867188 m 1
 643.317382812 364.698242188 649.046875 382.801757812 684.7265625 365.333007812 c 1
 751.213867188 295.12890625 820.288085938 187.927734375 863.546875 54.0029296875 c 1
 860.784179688 -50.02734375 779.919921875 -114.6484375 710.647460938 -15.697265625 c 1
 681.641601562 50.1708984375 664.424804688 214.885742188 644.135742188 325.963867188 c 1
EndSplineSet
Substitution2: "'hwid' Halfwidth Bopomofo" uni3119.hw
EndChar

StartChar: uni311A
Encoding: 121 12570 120
Width: 1000
Flags: W
VStem: 456.075 139.377<20.5057 423.399>
LayerCount: 2
Fore
SplineSet
456.075195312 423.399414062 m 1
 456.075195312 423.399414062 191.208007812 642.411132812 165.201171875 675.162109375 c 0
 139.194335938 707.913085938 97.7275390625 829.736328125 237.452148438 806.98046875 c 1
 287.249023438 764.177734375 439.538085938 624.704101562 501.2421875 525.424804688 c 1
 541.840820312 579.94140625 667.881835938 724.958984375 703.431640625 784.35546875 c 1
 704.62890625 809.950195312 689.458984375 857.599609375 698.056640625 875.16796875 c 0
 707.7734375 895.024414062 752.34765625 886.1015625 770.780273438 863.79296875 c 1
 815.23828125 827.009765625 854.53125 802.349609375 858.555664062 765.56640625 c 1
 867.881835938 744.958984375 851.74609375 729.139648438 844.374023438 718.651367188 c 0
 788.291992188 638.868164062 651.775390625 481.151367188 595.452148438 439.561523438 c 1
 595.452148438 399.58203125 l 1
 595.452148438 208.18359375 l 2
 595.452148438 125.9609375 578.405273438 6.6376953125 549.327148438 -57.53515625 c 1
 472.120117188 -57.53515625 l 1
 462.092773438 -20.435546875 456.075195312 115.934570312 456.075195312 169.078125 c 2
 456.075195312 423.399414062 l 1
EndSplineSet
Substitution2: "'hwid' Halfwidth Bopomofo" uni311A.hw
EndChar

StartChar: uni311B
Encoding: 122 12571 121
Width: 1000
Flags: W
HStem: 18.3799 93.1797<410.726 601.1> 717.337 80.2168<205.127 398.161> 725.36 80.2168<525.225 742.997 779.605 880.446>
VStem: 151.479 168.723<198.572 373.767> 430.441 139.377<541.743 692.372>
LayerCount: 2
Fore
SplineSet
428.6875 754.694335938 m 0x98
 435.138671875 754.797851562 443.153320312 754.151367188 453.16015625 752.502929688 c 0
 493.517578125 745.817382812 534.856445312 735.504882812 558.7890625 724.797851562 c 0
 569.819335938 719.784179688 574.833007812 709.758789062 573.830078125 694.717773438 c 2
 569.818359375 631.545898438 l 1
 569.818359375 525.186523438 571.434570312 511.641601562 523.693359375 409.979492188 c 1
 476.0703125 410.203125 472.385742188 400.734375 437.607421875 451.170898438 c 1
 367.418945312 429.154296875 320.201171875 371.536132812 320.201171875 286.364257812 c 0
 320.201171875 175.728515625 399.856445312 111.559570312 506.06640625 111.559570312 c 0
 586.377929688 111.559570312 651.508789062 148.25 678.49609375 213.9765625 c 1
 709.147460938 310.342773438 916.282226562 358.313476562 831.055664062 177.564453125 c 1
 778.270507812 77.3447265625 651.995117188 18.3798828125 506.06640625 18.3798828125 c 0
 311.614257812 18.3798828125 151.478515625 121.325195312 151.478515625 286.364257812 c 0
 151.478515625 426.524414062 271.700195312 521.272460938 430.28515625 544.092773438 c 1
 429.936523438 569.125 430.34765625 595.237304688 430.44140625 623.881835938 c 0
 430.44140625 670.995117188 388.811523438 714.161132812 397.935546875 731.670898438 c 0
 402.1328125 739.7265625 400.733398438 754.248046875 428.6875 754.694335938 c 0x98
778.090820312 821.620117188 m 1
 810.177734375 819.614257812 856.302734375 812.595703125 875.354492188 805.577148438 c 0
 883.375976562 802.568359375 888.389648438 793.54296875 888.389648438 784.518554688 c 0
 888.389648438 756.442382812 874.350585938 730.373046875 863.321289062 723.354492188 c 1
 845.272460938 725.359375 791.125976562 725.360351562 767.061523438 725.360351562 c 0xb8
 729.9609375 725.360351562 320.489257812 720.344726562 283.388671875 717.336914062 c 0
 262.33203125 716.333984375 224.227539062 709.315429688 204.173828125 704.301757812 c 1
 171.083984375 722.350585938 136.993164062 751.430664062 114.93359375 777.500976562 c 0
 110.922851562 781.51171875 110.921875 786.525390625 112.927734375 790.536132812 c 2
 120.94921875 806.579101562 l 1
 155.041015625 800.5625 201.165039062 797.553710938 228.23828125 797.553710938 c 0xd8
 271.354492188 796.55078125 697.875 802.568359375 742.997070312 805.577148438 c 1xb8
 778.090820312 821.620117188 l 1
EndSplineSet
Substitution2: "'hwid' Halfwidth Bopomofo" uni311B.hw
EndChar

StartChar: uni311C
Encoding: 123 12572 122
Width: 1000
Flags: W
HStem: -20.8936 93.1797<410.726 601.1> 628.662 102.277<170.224 387.776> 641.697 80.2168<205.127 423.401> 649.721 80.2168<577.203 742.997 779.605 880.446>
VStem: 151.479 168.723<159.299 334.493> 430.441 139.377<503.971 802.222>
LayerCount: 2
Fore
SplineSet
428.6875 860.8828125 m 0x8c
 435.138671875 860.986328125 443.153320312 860.33984375 453.16015625 858.69140625 c 0
 493.517578125 852.005859375 534.856445312 841.693359375 558.7890625 830.986328125 c 0
 569.819335938 825.97265625 574.833007812 815.947265625 573.830078125 800.90625 c 2
 569.818359375 640.759765625 l 2
 569.818359375 534.400390625 571.434570312 472.3671875 523.693359375 370.706054688 c 1
 476.0703125 370.928710938 472.385742188 361.4609375 437.607421875 411.897460938 c 1
 367.418945312 389.879882812 320.201171875 332.262695312 320.201171875 247.090820312 c 0
 320.201171875 136.455078125 399.856445312 72.2861328125 506.06640625 72.2861328125 c 0
 586.377929688 72.2861328125 651.508789062 108.9765625 678.49609375 174.703125 c 1
 709.147460938 271.069335938 916.282226562 319.040039062 831.055664062 138.291015625 c 1
 778.270507812 38.0712890625 651.995117188 -20.8935546875 506.06640625 -20.8935546875 c 0
 311.614257812 -20.8935546875 151.478515625 82.0517578125 151.478515625 247.090820312 c 0
 151.478515625 387.25 271.700195312 481.998046875 430.28515625 504.819335938 c 1
 429.936523438 529.8515625 430.34765625 709.506835938 430.44140625 738.151367188 c 0
 430.44140625 785.264648438 388.811523438 820.349609375 397.935546875 837.859375 c 0
 402.1328125 845.915039062 400.733398438 860.436523438 428.6875 860.8828125 c 0x8c
778.090820312 745.98046875 m 1
 810.177734375 743.975585938 856.302734375 736.95703125 875.354492188 729.9375 c 0
 883.375976562 726.9296875 888.389648438 717.903320312 888.389648438 708.87890625 c 0
 888.389648438 680.803710938 874.350585938 654.734375 863.321289062 647.71484375 c 1
 845.272460938 649.720703125 791.125976562 649.720703125 767.061523438 649.720703125 c 0x9c
 729.9609375 649.720703125 320.489257812 644.706054688 283.388671875 641.697265625 c 0xac
 262.33203125 640.694335938 224.227539062 633.67578125 204.173828125 628.662109375 c 1
 171.083984375 646.7109375 136.993164062 675.791015625 114.93359375 701.861328125 c 0
 110.922851562 705.872070312 110.921875 710.885742188 112.927734375 714.896484375 c 2
 120.94921875 730.939453125 l 1xcc
 155.041015625 724.923828125 201.165039062 721.9140625 228.23828125 721.9140625 c 0xac
 271.354492188 720.911132812 697.875 726.9296875 742.997070312 729.9375 c 1x9c
 778.090820312 745.98046875 l 1
EndSplineSet
Substitution2: "'hwid' Halfwidth Bopomofo" uni311C.hw
EndChar

StartChar: uni311D
Encoding: 124 12573 123
Width: 1000
Flags: W
HStem: 31.3477 80.2168<348.534 747.894 784.502 885.342> 532.613 80.2168<156.64 216.565> 540.637 80.2168<767.363 791.484 828.092 928.933>
VStem: 218.159 136.789<104.668 711.818> 623.82 139.377<288.332 789.47>
LayerCount: 2
Fore
SplineSet
826.578125 636.896484375 m 1xb8
 858.665039062 634.890625 904.790039062 627.872070312 923.841796875 620.853515625 c 0
 931.86328125 617.844726562 936.876953125 608.819335938 936.876953125 599.794921875 c 0
 936.876953125 571.71875 922.837890625 545.649414062 911.80859375 538.630859375 c 1
 893.759765625 540.635742188 839.61328125 540.63671875 815.548828125 540.63671875 c 0xb8
 778.448242188 540.63671875 272.001953125 535.62109375 234.901367188 532.61328125 c 0
 213.844726562 531.610351562 175.740234375 524.590820312 155.686523438 519.578125 c 1
 122.596679688 537.626953125 88.505859375 566.706054688 66.4462890625 592.77734375 c 0
 62.435546875 596.788085938 62.4345703125 601.801757812 64.4404296875 605.8125 c 2
 72.4619140625 621.85546875 l 1
 106.553710938 615.838867188 152.677734375 612.830078125 179.750976562 612.830078125 c 0xd8
 222.8671875 611.827148438 746.362304688 617.844726562 791.484375 620.853515625 c 1
 826.578125 636.896484375 l 1xb8
183.594726562 754.612304688 m 0
 196.283203125 780.680664062 218.341796875 778.705078125 238.819335938 775.443359375 c 0
 279.176757812 768.756835938 320.515625 758.446289062 344.448242188 747.740234375 c 0
 355.478515625 742.7265625 360.4921875 732.700195312 359.489257812 717.659179688 c 2
 355.477539062 654.487304688 l 1
 355.477539062 523.431640625 356.92578125 370.450195312 354.948242188 243.35546875 c 0
 353.438476562 204.282226562 351.580078125 172.724609375 348.384765625 130.797851562 c 0
 345.336914062 113.745117188 348.833984375 104.209960938 366.510742188 104.5859375 c 0
 483.404296875 106.313476562 718.216796875 109.5859375 747.893554688 111.564453125 c 1
 782.987304688 127.607421875 l 1
 815.07421875 125.6015625 861.19921875 118.583007812 880.250976562 111.564453125 c 0
 888.272460938 108.555664062 893.286132812 99.5302734375 893.286132812 90.505859375 c 0
 893.286132812 62.4296875 879.247070312 36.3603515625 868.217773438 29.341796875 c 1
 850.168945312 31.3466796875 796.0234375 31.34765625 771.958007812 31.34765625 c 0
 739.436523438 31.34765625 477.443359375 27.4951171875 390.385742188 24.517578125 c 0
 344.456054688 25.1318359375 329.451171875 -16.2900390625 300.573242188 -11.4013671875 c 0
 270.78515625 -4.4111328125 234.11328125 6.5693359375 223.533203125 20.9189453125 c 0
 200.8203125 51.7275390625 212.772460938 98.06640625 218.159179688 153.794921875 c 1
 219.32421875 308.484375 220.859375 492.161132812 216.100585938 646.821289062 c 0
 216.100585938 693.934570312 174.471679688 737.103515625 183.594726562 754.612304688 c 0
623.8203125 720.979492188 m 2
 623.8203125 768.091796875 582.19140625 811.259765625 591.314453125 828.76953125 c 0
 596.48046875 838.68359375 593.166015625 858.391601562 646.538085938 849.600585938 c 0
 686.896484375 842.915039062 728.235351562 832.603515625 752.16796875 821.896484375 c 0
 763.197265625 816.8828125 768.211914062 806.857421875 767.208984375 791.81640625 c 2
 763.197265625 728.64453125 l 1
 763.197265625 476.009765625 l 2
 763.197265625 393.788085938 746.150390625 274.46484375 717.072265625 210.291015625 c 1
 639.865234375 210.291015625 l 1
 629.837890625 247.391601562 623.8203125 383.760742188 623.8203125 436.904296875 c 2
 623.8203125 720.979492188 l 2
EndSplineSet
Substitution2: "'hwid' Halfwidth Bopomofo" uni311D.hw
EndChar

StartChar: uni311E
Encoding: 125 12574 124
Width: 1000
Flags: W
HStem: 375.324 88.0273<326.773 408.098> 749.132 21G<204.023 230.595> 762.167 80.2168<221.521 488.402> 770.19 80.2168<518.9 733.677 770.285 871.125>
VStem: 230.785 143.659<592.012 719.204>
LayerCount: 2
Fore
SplineSet
768.770507812 866.450195312 m 1x98
 800.857421875 864.4453125 846.982421875 857.426757812 866.034179688 850.407226562 c 0
 874.055664062 847.399414062 879.069335938 838.373046875 879.069335938 829.348632812 c 0
 879.069335938 801.272460938 865.030273438 775.204101562 854.000976562 768.184570312 c 1
 835.952148438 770.190429688 781.805664062 770.190429688 757.741210938 770.190429688 c 0x98
 720.640625 770.190429688 336.8828125 765.174804688 299.782226562 762.166992188 c 0xa8
 278.725585938 761.1640625 240.622070312 754.145507812 220.567382812 749.131835938 c 1xc8
 187.478515625 767.180664062 153.38671875 796.260742188 131.327148438 822.331054688 c 0
 127.31640625 826.341796875 127.31640625 831.35546875 129.321289062 835.366210938 c 2
 137.342773438 851.409179688 l 1
 171.435546875 845.393554688 217.55859375 842.383789062 244.631835938 842.383789062 c 0xa8
 287.749023438 841.380859375 688.5546875 847.399414062 733.676757812 850.407226562 c 1
 768.770507812 866.450195312 l 1x98
746.990234375 484.373046875 m 1
 779.077148438 482.3671875 816.630859375 478.206054688 835.682617188 471.1875 c 0
 843.704101562 468.178710938 874.431640625 444.8671875 874.431640625 435.842773438 c 0
 865.993164062 343.358398438 851.133789062 167.275390625 771.841796875 40.1142578125 c 0
 752.150390625 8.7197265625 724.59375 -50.701171875 680.401367188 -15.806640625 c 0
 662.913085938 0.76171875 650.291992188 30.193359375 648.303710938 52.16796875 c 0
 640.470703125 91.32421875 647.918945312 123.286132812 674.194335938 176.096679688 c 0
 701.272460938 228.793945312 695.2890625 264.418945312 719.797851562 382.051757812 c 1
 691.452148438 389.176757812 431.380859375 380.708984375 315.053710938 375.32421875 c 0
 283.71875 373.874023438 262.96875 360.525390625 255.095703125 359.88671875 c 0
 189.512695312 364.921875 111.176757812 362.663085938 125.041015625 449.248046875 c 1
 141.611328125 455.760742188 158.122070312 462.392578125 169.427734375 479.43359375 c 0
 201.330078125 525.573242188 211.075195312 601.598632812 226.952148438 685.129882812 c 1
 241.1875 729.62109375 224.30078125 748.651367188 230.78515625 761.647460938 c 0
 238.576171875 777.26171875 250.305664062 775.0234375 273.028320312 766.995117188 c 0
 370.591796875 726.548828125 364.048828125 700.609375 374.444335938 670.41796875 c 1
 365.430664062 617.702148438 374.619140625 564.3984375 326.7734375 463.3515625 c 1
 364.849609375 464.327148438 691.578125 466.975585938 711.896484375 468.330078125 c 1
 746.990234375 484.373046875 l 1
668.793945312 660.693359375 m 1
 674.645507812 595.606445312 645.170898438 510.147460938 607.790039062 422.375 c 1
 492.25 236.34765625 484.185546875 140.499023438 284.852539062 1.7255859375 c 1
 244.192382812 -18.7138671875 156.685546875 -29.1455078125 123.40234375 -15.3701171875 c 1
 104.537109375 1.5185546875 199.322265625 66.5546875 216.619140625 92.6689453125 c 1
 324.711914062 211.55078125 338.059570312 257.8515625 402.092773438 372.125 c 1
 473.387695312 510.049804688 491.206054688 543.1015625 513.017578125 691.567382812 c 1
 527.252929688 736.059570312 510.366210938 755.088867188 516.850585938 768.084960938 c 0
 524.641601562 783.69921875 536.37109375 781.461914062 559.09375 773.432617188 c 0
 656.657226562 732.987304688 658.3984375 690.884765625 668.793945312 660.693359375 c 1
EndSplineSet
Substitution2: "'hwid' Halfwidth Bopomofo" uni311E.hw
EndChar

StartChar: uni311F
Encoding: 126 12575 125
Width: 1000
Flags: W
LayerCount: 2
Fore
SplineSet
420.576171875 836.354492188 m 0
 459.602539062 834.885742188 482.625976562 805.137695312 504.716796875 751.736328125 c 1
 552.411132812 672.5078125 540.8828125 664.838867188 665.676757812 449.978515625 c 0
 740.947265625 320.383789062 843.418945312 266.478515625 938.212890625 152.404296875 c 1
 964.081054688 51.6044921875 866.234375 -45.1845703125 772.484375 30.98046875 c 1
 686.025390625 88.7255859375 619.533203125 197.038085938 550.150390625 350.46875 c 0
 483.005859375 498.953125 453.5859375 591.849609375 429.521484375 660.529296875 c 1
 386.126953125 598.068359375 329.818359375 534.56640625 261.095703125 483.225585938 c 0
 233.634765625 461.892578125 200.245117188 446.950195312 151.671875 475.16015625 c 0
 130.805664062 491.03515625 101.9453125 522.376953125 76.736328125 554.59375 c 0
 43.4423828125 597.224609375 62.3271484375 603.759765625 68.552734375 613.044921875 c 0
 79.548828125 629.444335938 131.751953125 632.729492188 178.73828125 636.171875 c 0
 250.438476562 641.424804688 307.666992188 714.866210938 357.594726562 771.090820312 c 0
 375.844726562 791.643554688 362.409179688 821.799804688 387.611328125 832.60546875 c 0
 390.388671875 833.795898438 417.543945312 836.342773438 420.576171875 836.354492188 c 0
EndSplineSet
Substitution2: "'hwid' Halfwidth Bopomofo" uni311F.hw
EndChar

StartChar: uni3120
Encoding: 127 12576 126
Width: 1000
Flags: W
HStem: 3.9502 108.643<427.197 515.791> 372.522 108.642<370.053 421.172>
VStem: 673.705 155.064<115.653 350.752>
LayerCount: 2
Fore
SplineSet
639.419921875 824.17578125 m 0
 645.268554688 824.166992188 652.463867188 822.866210938 661.296875 820.953125 c 0
 763.178710938 793.122070312 779.955078125 766.564453125 794.072265625 737.923828125 c 1
 788.411132812 630.387695312 684.791015625 550.655273438 638.177734375 455.711914062 c 1
 568.734375 351.856445312 498.1875 244.182617188 427.228515625 131.637695312 c 1
 426.461914062 119.125 431.224609375 112.272460938 446.23828125 112.592773438 c 0
 563.130859375 114.3203125 653.69921875 134.733398438 683.376953125 136.711914062 c 1
 718.470703125 152.754882812 l 1
 750.557617188 150.749023438 796.682617188 143.73046875 815.734375 136.711914062 c 0
 823.755859375 133.704101562 828.76953125 124.677734375 828.76953125 115.653320312 c 0
 828.76953125 87.5771484375 814.73046875 61.5078125 803.701171875 54.4892578125 c 1
 785.65234375 56.494140625 731.505859375 56.4951171875 707.44140625 56.4951171875 c 0
 674.919921875 56.4951171875 440.02734375 6.927734375 352.969726562 3.9501953125 c 0
 307.040039062 4.5654296875 292.036132812 -36.8564453125 263.157226562 -31.9677734375 c 0
 233.369140625 -24.9765625 196.698242188 -13.9970703125 186.118164062 0.353515625 c 0
 163.405273438 31.1611328125 161.071289062 28.9287109375 166.458007812 84.65625 c 1
 217.999023438 108.837890625 l 1
 257.98828125 177.694335938 465.17578125 441.345703125 484.168945312 485.034179688 c 0
 516.940429688 560.41796875 584.67578125 656.219726562 625.90234375 733.935546875 c 1
 634.41796875 779.866210938 615.268554688 796.616210938 620.064453125 810.326171875 c 0
 623.665039062 820.62109375 629.671875 824.190429688 639.419921875 824.17578125 c 0
673.705078125 350.751953125 m 0
 672.88671875 389.486328125 678.616210938 407.58984375 714.295898438 390.12109375 c 1
 780.783203125 319.916992188 849.857421875 212.715820312 893.116210938 78.791015625 c 1
 890.354492188 -25.2392578125 795.204101562 -95.5751953125 725.931640625 3.376953125 c 1
 696.877929688 69.1962890625 679.35546875 225.03515625 673.705078125 350.751953125 c 0
322.27734375 884.17578125 m 0
 328.125976562 884.166992188 335.321289062 882.866210938 344.154296875 880.953125 c 0
 446.036132812 853.122070312 462.8125 826.564453125 476.9296875 797.923828125 c 1
 471.268554688 690.387695312 473.362304688 719.2265625 426.75 624.283203125 c 2
 370.084960938 500.208984375 l 1
 369.319335938 487.696289062 374.081054688 480.844726562 389.094726562 481.1640625 c 0
 420.950195312 484.2734375 433.69921875 483.3046875 463.376953125 485.283203125 c 1
 498.470703125 501.326171875 l 1
 530.557617188 499.321289062 576.682617188 492.302734375 595.734375 485.283203125 c 0
 603.755859375 482.275390625 608.76953125 473.249023438 608.76953125 464.224609375 c 0
 608.76953125 436.1484375 594.73046875 410.079101562 583.701171875 403.060546875 c 1
 565.65234375 405.06640625 511.505859375 405.06640625 487.44140625 405.06640625 c 0
 454.919921875 405.06640625 382.884765625 375.499023438 295.827148438 372.522460938 c 0
 249.897460938 373.13671875 234.892578125 331.715820312 206.014648438 336.604492188 c 0
 176.2265625 343.594726562 139.555664062 354.57421875 128.975585938 368.924804688 c 0
 106.262695312 399.732421875 103.928710938 397.5 109.315429688 453.228515625 c 1
 160.85546875 477.409179688 l 1
 200.845703125 546.265625 234.263671875 609.696289062 252.740234375 653.60546875 c 0
 276.043945312 708.989257812 311.424804688 793.935546875 308.759765625 793.935546875 c 1
 317.275390625 839.866210938 298.125976562 856.616210938 302.921875 870.326171875 c 0
 306.522460938 880.62109375 312.528320312 884.190429688 322.27734375 884.17578125 c 0
EndSplineSet
Substitution2: "'hwid' Halfwidth Bopomofo" uni3120.hw
EndChar

StartChar: uni3121
Encoding: 128 12577 127
Width: 1000
Flags: W
HStem: 52.9766 54.2861<132.19 165.703> 733.026 80.2168<202.77 466.537> 736.189 85.0771<446.899 610.44>
LayerCount: 2
Fore
SplineSet
187.057617188 540.836914062 m 1x80
 175.649414062 577.862304688 176.1953125 596.842773438 215.297851562 589.826171875 c 0
 297.072265625 566.87890625 351.278320312 556.940429688 576.682617188 387.54296875 c 0
 762.072265625 248.216796875 855.678710938 176.936523438 883.91015625 134.7890625 c 1
 909.778320312 33.98828125 860.416992188 -42.5986328125 766.666992188 33.5673828125 c 1
 680.208007812 91.3125 652.510742188 163.540039062 525.1953125 273.748046875 c 0
 321.900390625 449.724609375 276.526367188 453.100585938 187.057617188 540.836914062 c 1x80
724.151367188 837.309570312 m 1
 756.23828125 835.303710938 785.220703125 828.28515625 804.272460938 821.266601562 c 0
 817.328125 815.931640625 818.649414062 788.97265625 819.440429688 776.837890625 c 0
 821.436523438 746.237304688 809.469726562 691.147460938 809.469726562 691.147460938 c 1
 774.955078125 537.276367188 675.752929688 406.927734375 558.041992188 283.310546875 c 1
 471.90625 208.627929688 315.999023438 88.251953125 191.916992188 52.9765625 c 1
 151.64453125 30.2021484375 75.990234375 42.341796875 137.56640625 107.262695312 c 1
 341.825195312 252.934570312 456.961914062 389.098632812 487.236328125 432.776367188 c 0
 537.951171875 505.944335938 610.403320312 600.841796875 612.950195312 696.380859375 c 1
 618.008789062 726.747070312 582.125 738.075195312 558.145507812 736.189453125 c 0xa0
 470.4453125 734.669921875 309.194335938 735.309570312 281.03125 733.026367188 c 0
 259.974609375 732.0234375 221.870117188 725.004882812 201.81640625 719.991210938 c 1
 168.7265625 738.040039062 134.635742188 767.120117188 112.576171875 793.190429688 c 0
 108.565429688 797.201171875 108.564453125 802.21484375 110.5703125 806.225585938 c 2
 118.591796875 822.268554688 l 1
 152.68359375 816.251953125 198.807617188 813.243164062 225.880859375 813.243164062 c 0xc0
 268.997070312 812.240234375 643.935546875 818.258789062 689.057617188 821.266601562 c 1xa0
 724.151367188 837.309570312 l 1
EndSplineSet
Substitution2: "'hwid' Halfwidth Bopomofo" uni3121.hw
EndChar

StartChar: uni3122
Encoding: 129 12578 128
Width: 1000
Flags: W
HStem: 354.776 88.0264<336.615 575.702> 734.228 80.2168<209.243 471.272> 737.392 85.0771<461.075 673.094>
VStem: 240.627 143.659<571.463 698.656>
LayerCount: 2
Fore
SplineSet
746.788085938 838.510742188 m 1xb0
 778.874023438 836.505859375 807.857421875 829.487304688 826.908203125 822.46875 c 0
 839.963867188 817.1328125 841.28515625 790.173828125 842.077148438 778.040039062 c 0
 844.073242188 747.438476562 832.106445312 692.349609375 832.106445312 692.349609375 c 1
 813.283203125 608.4375 774.45703125 517.37890625 720.278320312 444.734375 c 1
 566.440429688 435.999023438 l 1
 617.155273438 509.166992188 669.405273438 602.043945312 671.952148438 697.583007812 c 1
 677.010742188 727.94921875 667.390625 739.276367188 643.411132812 737.391601562 c 0xb0
 555.7109375 735.872070312 315.66796875 736.51171875 287.504882812 734.227539062 c 0
 266.448242188 733.225585938 228.34375 726.206054688 208.290039062 721.193359375 c 1
 175.200195312 739.2421875 141.109375 768.321289062 119.049804688 794.392578125 c 0
 115.0390625 798.403320312 115.038085938 803.416015625 117.043945312 807.427734375 c 2
 125.065429688 823.469726562 l 1
 159.157226562 817.454101562 205.28125 814.444335938 232.354492188 814.444335938 c 0xd0
 275.470703125 813.442382812 666.572265625 819.459960938 711.694335938 822.46875 c 1
 746.788085938 838.510742188 l 1xb0
756.83203125 463.825195312 m 1
 788.91796875 461.819335938 826.47265625 457.658203125 845.5234375 450.638671875 c 0
 853.545898438 447.630859375 884.2734375 424.319335938 884.2734375 415.294921875 c 0
 875.834960938 322.810546875 816.529296875 195.21484375 737.236328125 68.0537109375 c 0
 717.544921875 36.6591796875 689.98828125 -22.7626953125 645.795898438 12.1328125 c 0
 628.307617188 28.701171875 615.6875 58.1328125 613.698242188 80.1064453125 c 0
 605.865234375 119.263671875 605.232421875 122.940429688 631.5078125 175.751953125 c 0
 658.586914062 228.44921875 705.129882812 243.87109375 729.639648438 361.50390625 c 1
 701.293945312 368.627929688 441.22265625 360.161132812 324.895507812 354.776367188 c 0
 293.560546875 353.325195312 272.810546875 339.9765625 264.9375 339.338867188 c 0
 199.354492188 344.374023438 121.018554688 342.115234375 134.8828125 428.700195312 c 1
 151.453125 435.211914062 167.962890625 441.844726562 179.26953125 458.884765625 c 0
 211.171875 505.025390625 220.916015625 581.05078125 236.793945312 664.581054688 c 1
 251.028320312 709.073242188 234.142578125 728.102539062 240.626953125 741.099609375 c 0
 248.41796875 756.712890625 260.146484375 754.475585938 282.870117188 746.446289062 c 0
 380.43359375 706.000976562 373.889648438 680.060546875 384.286132812 649.870117188 c 1
 375.272460938 597.154296875 384.4609375 543.849609375 336.615234375 442.802734375 c 1
 374.690429688 443.779296875 701.418945312 446.426757812 721.73828125 447.78125 c 1
 756.83203125 463.825195312 l 1
EndSplineSet
Substitution2: "'hwid' Halfwidth Bopomofo" uni3122.hw
EndChar

StartChar: uni3123
Encoding: 130 12579 129
Width: 1000
Flags: W
HStem: 391.775 88.0273<344.177 583.159>
LayerCount: 2
Fore
SplineSet
732.068359375 521.02734375 m 1
 764.155273438 519.021484375 801.709960938 494.657226562 820.760742188 487.638671875 c 0
 828.782226562 484.629882812 859.510742188 461.318359375 859.510742188 452.293945312 c 0
 851.072265625 359.809570312 776.296875 163.236328125 697.00390625 36.0751953125 c 0
 677.3125 4.6806640625 649.755859375 -54.740234375 605.564453125 -19.845703125 c 1
 578.25 8.224609375 580.307617188 100.510742188 591.276367188 143.7734375 c 1
 618.354492188 196.470703125 648.04296875 280.870117188 672.551757812 398.50390625 c 1
 644.206054688 405.627929688 448.784179688 397.161132812 332.458007812 391.775390625 c 0
 301.123046875 390.325195312 264.209960938 356.7734375 256.336914062 356.134765625 c 0
 190.75390625 361.169921875 128.580078125 379.114257812 142.444335938 465.69921875 c 1
 159.014648438 472.211914062 175.525390625 478.84375 186.83203125 495.884765625 c 0
 218.733398438 542.024414062 285.046875 698.862304688 300.923828125 782.392578125 c 1
 315.159179688 826.884765625 298.272460938 845.9140625 304.7578125 858.911132812 c 0
 312.548828125 874.524414062 324.27734375 872.287109375 347.000976562 864.2578125 c 0
 444.564453125 823.8125 438.020507812 797.872070312 448.416015625 767.681640625 c 1
 439.403320312 714.965820312 392.022460938 580.849609375 344.176757812 479.802734375 c 1
 382.252929688 480.778320312 676.65625 483.426757812 696.974609375 484.78125 c 1
 732.068359375 521.02734375 l 1
EndSplineSet
Substitution2: "'hwid' Halfwidth Bopomofo" uni3123.hw
EndChar

StartChar: uni3124
Encoding: 131 12580 130
Width: 1000
Flags: W
HStem: -13.0088 82.2227<638.242 752.489> -8.99707 105.285<796.608 908.72> 573.599 102.277<182.289 398.554> 586.634 80.2168<217.191 398.554> 594.657 80.2168<558.2 755.062 791.669 892.51>
VStem: 504.857 133.302<71.7726 421.241>
LayerCount: 2
Fore
SplineSet
790.155273438 690.916992188 m 1x0c
 822.2421875 688.912109375 868.3671875 681.893554688 887.418945312 674.874023438 c 0
 895.440429688 671.866210938 900.454101562 662.83984375 900.454101562 653.815429688 c 0
 900.454101562 625.740234375 886.416015625 599.670898438 875.385742188 592.651367188 c 1
 857.336914062 594.657226562 803.19140625 594.657226562 779.125976562 594.657226562 c 0x0c
 742.025390625 594.657226562 332.553710938 589.642578125 295.453125 586.633789062 c 0x14
 274.396484375 585.631835938 236.29296875 578.612304688 216.23828125 573.598632812 c 1
 183.149414062 591.647460938 149.057617188 620.727539062 126.998046875 646.797851562 c 0
 122.987304688 650.80859375 122.987304688 655.822265625 124.9921875 659.833007812 c 2
 133.013671875 675.875976562 l 1x24
 167.106445312 669.860351562 213.229492188 666.850585938 240.302734375 666.850585938 c 0x14
 283.419921875 665.848632812 709.939453125 671.866210938 755.061523438 674.874023438 c 1
 790.155273438 690.916992188 l 1x0c
425.723632812 722.185546875 m 0
 433.3359375 768.678710938 384.094726562 812.466796875 393.21875 829.975585938 c 0
 398.384765625 839.889648438 395.0703125 859.59765625 448.442382812 850.806640625 c 0
 488.799804688 844.12109375 530.138671875 833.809570312 554.071289062 823.102539062 c 0
 565.1015625 818.088867188 570.115234375 808.063476562 569.112304688 793.022460938 c 2
 565.100585938 729.850585938 l 1
 532.775390625 541.930664062 488.4609375 354.279296875 423.6796875 230.739257812 c 0
 371.703125 131.619140625 238.888671875 17.0478515625 135.118164062 -10.736328125 c 1
 70.0322265625 25.62890625 l 1
 141.536132812 73.35546875 232.677734375 172.006835938 272.180664062 248.202148438 c 0
 377.22265625 450.813476562 402.266601562 578.911132812 425.723632812 722.185546875 c 0
460.73828125 490.192382812 m 0
 507.865234375 490.192382812 584.012695312 484.176757812 620.110351562 476.155273438 c 0
 633.145507812 473.147460938 640.165039062 464.122070312 640.165039062 449.081054688 c 2
 638.159179688 391.926757812 l 1
 638.159179688 94.2822265625 l 2
 638.159179688 77.236328125 645.177734375 69.2138671875 662.223632812 69.2138671875 c 2x84
 752.489257812 72.2216796875 l 1
 796.608398438 96.2880859375 l 1
 832.705078125 97.291015625 884.846679688 93.2783203125 909.915039062 87.2626953125 c 0
 922.950195312 84.25390625 929.967773438 75.23046875 929.967773438 63.1982421875 c 0
 929.967773438 30.1083984375 919.940429688 6.0439453125 911.918945312 -1.9775390625 c 0
 906.905273438 -6.9912109375 898.884765625 -8.9970703125 889.860351562 -8.9970703125 c 2x44
 610.083007812 -13.0087890625 l 2x84
 528.86328125 -12.005859375 504.857421875 20.08203125 504.857421875 83.2529296875 c 2
 504.857421875 404.961914062 l 1
 488.814453125 420.002929688 461.740234375 436.045898438 435.669921875 446.073242188 c 1
 443.69140625 480.165039062 l 2
 444.694335938 485.178710938 450.7109375 490.192382812 460.73828125 490.192382812 c 0
EndSplineSet
Substitution2: "'hwid' Halfwidth Bopomofo" uni3124.hw
EndChar

StartChar: uni3125
Encoding: 132 12581 131
Width: 1000
Flags: W
HStem: 29.0459 80.2168<361.972 733.797 770.405 871.245>
VStem: 391.266 174.008<625.243 782.479>
LayerCount: 2
Fore
SplineSet
410.62109375 837.211914062 m 0
 416.469726562 837.203125 423.665039062 835.90234375 432.498046875 833.989257812 c 0
 534.379882812 806.158203125 551.15625 779.600585938 565.2734375 750.959960938 c 1
 551.369140625 524.159179688 436.326171875 357.142578125 355.68359375 152.616210938 c 1
 359.420898438 125.298828125 375.046875 101.3984375 416.658203125 102.284179688 c 0
 533.55078125 104.01171875 704.119140625 107.284179688 733.796875 109.262695312 c 1
 768.890625 125.305664062 l 1
 800.977539062 123.30078125 847.102539062 116.282226562 866.154296875 109.262695312 c 0
 874.17578125 106.254882812 879.189453125 97.228515625 879.189453125 88.2041015625 c 0
 879.189453125 60.1279296875 865.150390625 34.0595703125 854.12109375 27.0400390625 c 1
 836.072265625 29.0458984375 781.92578125 29.0458984375 757.861328125 29.0458984375 c 0
 725.33984375 29.0458984375 396.161132812 25.193359375 309.103515625 22.2158203125 c 0
 263.173828125 22.8310546875 248.168945312 -1.4501953125 219.291015625 3.4384765625 c 0
 158.834960938 17.8271484375 97.447265625 52.505859375 129.705078125 128.309570312 c 1
 141.74609375 139.96484375 169.0625 158.299804688 192.58203125 182.286132812 c 1
 282.250976562 360.439453125 365.056640625 543.151367188 397.103515625 746.971679688 c 0
 405.619140625 792.90234375 386.469726562 809.65234375 391.265625 823.362304688 c 0
 394.866210938 833.657226562 400.872070312 837.227539062 410.62109375 837.211914062 c 0
EndSplineSet
Substitution2: "'hwid' Halfwidth Bopomofo" uni3125.hw
EndChar

StartChar: uni3126
Encoding: 133 12582 132
Width: 1000
Flags: W
HStem: -19.4082 85.6494<714.904 805.979> -15.1924 109.619<851.967 968.618> -15.1924 100.172<853.739 971.722>
VStem: 567.534 147.174<68.8813 706.255>
LayerCount: 2
Fore
SplineSet
407.6328125 724.58203125 m 1x10
 407.6328125 724.58203125 407.399414062 604.734375 391.315429688 451.236328125 c 0
 370.3125 250.267578125 347.279296875 141.5078125 258.741210938 35.869140625 c 0
 228.525390625 -0.669921875 149.512695312 -47.28125 112.036132812 -48.140625 c 1
 86.97265625 -39.9423828125 150.05859375 61.791015625 155.602539062 93.880859375 c 1
 191.673828125 174.689453125 254.369140625 432.418945312 254.056640625 685.387695312 c 1
 248.981445312 733.794921875 224.93359375 744.803710938 225.63671875 759.950195312 c 0
 226.573242188 778.064453125 238.67578125 780.875 263.66015625 782.749023438 c 0
 373.591796875 785.090820312 385.069335938 748.94140625 407.6328125 724.58203125 c 1x10
566.909179688 770.802734375 m 0
 573.624023438 770.880859375 581.900390625 770.178710938 592.362304688 768.4609375 c 0
 634.3671875 761.51171875 677.38671875 750.815429688 702.293945312 739.650390625 c 0
 713.771484375 734.418945312 719.001953125 723.95703125 717.987304688 708.341796875 c 2
 714.708007812 657.436523438 l 1
 714.708007812 92.3193359375 l 2
 714.708007812 74.517578125 722.046875 66.2412109375 739.76953125 66.2412109375 c 0x90
 797.234375 65.1484375 746.484375 67.255859375 805.978515625 69.3642578125 c 1
 851.966796875 94.4267578125 l 1x50
 889.520507812 95.4423828125 943.784179688 91.2255859375 969.861328125 84.9794921875 c 0x30
 983.447265625 81.8564453125 990.786132812 72.4873046875 990.786132812 59.9169921875 c 0
 990.786132812 25.4853515625 980.32421875 0.423828125 971.969726562 -7.9306640625 c 0
 966.73828125 -13.162109375 958.383789062 -15.1923828125 949.014648438 -15.1923828125 c 2x50
 685.506835938 -19.408203125 l 2x90
 600.950195312 -18.3154296875 567.534179688 15.0224609375 567.534179688 80.841796875 c 2
 567.534179688 648.69140625 l 1
 560.819335938 692.1015625 526.309570312 730.359375 534.897460938 746.833984375 c 0
 539.26953125 755.1875 537.786132812 770.334960938 566.909179688 770.802734375 c 0
EndSplineSet
Substitution2: "'hwid' Halfwidth Bopomofo" uni3126.hw
EndChar

StartChar: uni3127
Encoding: 134 12583 133
Width: 1000
Flags: W
HStem: 374.376 80.2168<205.127 473.839> 382.399 80.2168<525.225 742.997 779.605 880.446>
LayerCount: 2
Fore
SplineSet
778.090820312 478.659179688 m 1x40
 810.177734375 476.653320312 856.302734375 469.634765625 875.354492188 462.616210938 c 0
 883.375976562 459.608398438 888.389648438 450.58203125 888.389648438 441.557617188 c 0
 888.389648438 413.481445312 874.350585938 387.412109375 863.321289062 380.393554688 c 1
 845.272460938 382.399414062 791.125976562 382.399414062 767.061523438 382.399414062 c 0x40
 729.9609375 382.399414062 320.489257812 377.383789062 283.388671875 374.375976562 c 0
 262.33203125 373.373046875 224.227539062 366.354492188 204.173828125 361.340820312 c 1
 171.083984375 379.389648438 136.993164062 408.469726562 114.93359375 434.540039062 c 0
 110.922851562 438.55078125 110.921875 443.564453125 112.927734375 447.575195312 c 2
 120.94921875 463.618164062 l 1
 155.041015625 457.6015625 201.165039062 454.592773438 228.23828125 454.592773438 c 0x80
 271.354492188 453.58984375 697.875 459.608398438 742.997070312 462.616210938 c 1
 778.090820312 478.659179688 l 1x40
EndSplineSet
Substitution2: "'hwid' Halfwidth Bopomofo" uni3127.hw
EndChar

StartChar: uni3128
Encoding: 135 12584 134
Width: 1000
Flags: W
LayerCount: 2
Fore
SplineSet
770.038085938 739.395507812 m 0
 791.924804688 677.634765625 727.926757812 582.29296875 669.451171875 479.8671875 c 0
 568.645507812 297.35546875 459.40625 102.40625 273.030273438 -16.9248046875 c 0
 237.555664062 -36.9775390625 161.208007812 -47.212890625 132.168945312 -33.697265625 c 1
 115.709960938 -17.1279296875 198.407226562 46.6787109375 213.499023438 72.2998046875 c 1
 327.749023438 188.934570312 406.69921875 318.453125 475.029296875 430.567382812 c 1
 547.4921875 563.668945312 595.104492188 646.108398438 631.634765625 743.970703125 c 0
 644.0546875 787.62109375 629.321289062 806.291992188 634.979492188 819.041992188 c 0
 641.776367188 834.361328125 652.009765625 832.166015625 671.834960938 824.288085938 c 0
 756.956054688 784.607421875 760.967773438 769.015625 770.038085938 739.395507812 c 0
184.448242188 718.112304688 m 0
 174.495117188 754.4375 174.971679688 773.060546875 209.086914062 766.17578125 c 1
 255.504882812 735.252929688 397.825195312 586.719726562 574.240234375 393.921875 c 0
 673.66796875 285.260742188 822.641601562 111.612304688 847.272460938 70.2607421875 c 1
 869.841796875 -28.6337890625 826.775390625 -103.772460938 744.981445312 -29.046875 c 1
 669.547851562 27.6064453125 573.7890625 172.036132812 476.970703125 296.293945312 c 0
 323.220703125 493.619140625 205.811523438 646.262695312 184.448242188 718.112304688 c 0
EndSplineSet
Substitution2: "'hwid' Halfwidth Bopomofo" uni3128.hw
EndChar

StartChar: uni3129
Encoding: 136 12585 135
Width: 1000
Flags: W
HStem: 1.5498 80.2168<321.069 673.327 786.634 793.651>
VStem: 190.694 136.789<74.8712 707.413> 701.663 139.377<98.3757 710.571>
LayerCount: 2
Fore
SplineSet
156.129882812 750.208007812 m 0
 168.818359375 776.275390625 190.876953125 774.299804688 211.354492188 771.038085938 c 0
 251.711914062 764.3515625 293.05078125 754.041015625 316.983398438 743.334960938 c 0
 328.012695312 738.321289062 333.02734375 728.294921875 332.024414062 713.254882812 c 2
 328.012695312 650.083007812 l 1
 328.012695312 519.026367188 329.4609375 340.653320312 327.483398438 213.557617188 c 0
 325.97265625 174.484375 324.115234375 142.926757812 320.919921875 101 c 0
 317.872070312 83.9482421875 321.369140625 74.412109375 339.045898438 74.7890625 c 0
 455.939453125 76.5166015625 643.650390625 79.7880859375 673.327148438 81.7666015625 c 1
 708.420898438 97.8095703125 l 1
 740.5078125 95.8046875 786.633789062 88.7861328125 805.684570312 81.7666015625 c 0
 813.70703125 78.7587890625 818.720703125 69.732421875 818.720703125 60.7080078125 c 0
 818.720703125 32.6318359375 804.681640625 6.5634765625 793.651367188 -0.4560546875 c 1
 775.603515625 1.5498046875 721.45703125 1.5498046875 697.391601562 1.5498046875 c 0
 664.87109375 1.5498046875 449.977539062 -2.302734375 362.919921875 -5.2802734375 c 0
 316.991210938 -4.6650390625 301.986328125 -46.087890625 273.107421875 -41.19921875 c 0
 243.319335938 -34.208984375 206.647460938 -23.228515625 196.068359375 -8.8779296875 c 0
 173.35546875 21.9296875 185.307617188 68.2685546875 190.694335938 123.997070312 c 1
 191.858398438 278.6875 193.39453125 487.755859375 188.635742188 642.416992188 c 0
 188.635742188 689.529296875 147.005859375 732.698242188 156.129882812 750.208007812 c 0
701.663085938 642.080078125 m 2
 701.663085938 689.193359375 660.034179688 732.361328125 669.158203125 749.87109375 c 0
 674.32421875 759.78515625 671.009765625 779.493164062 724.381835938 770.702148438 c 0
 764.739257812 764.016601562 806.078125 753.705078125 830.010742188 742.998046875 c 0
 841.041015625 737.984375 846.0546875 727.958984375 845.051757812 712.91796875 c 2
 841.040039062 649.74609375 l 1
 841.040039062 191.040039062 l 2
 841.040039062 108.818359375 823.994140625 6.6376953125 794.915039062 -57.53515625 c 1
 717.708007812 -57.53515625 l 1
 707.680664062 -20.435546875 701.663085938 98.791015625 701.663085938 151.934570312 c 2
 701.663085938 642.080078125 l 2
EndSplineSet
Substitution2: "'hwid' Halfwidth Bopomofo" uni3129.hw
EndChar

StartChar: uni3105.hw
Encoding: 137 -1 136
Width: 500
Flags: W
HStem: 31.4775 75.9541<172.612 223.872>
VStem: 333.595 137.49<363.221 509.437>
LayerCount: 2
Fore
SplineSet
360.786132812 608.682617188 m 1
 392.873046875 606.676757812 438.998046875 599.658203125 458.049804688 592.639648438 c 0
 466.071289062 589.631835938 471.084960938 580.60546875 471.084960938 571.581054688 c 0
 471.745117188 479.978515625 441.825195312 285.15625 409.241210938 197.09375 c 0
 376.65625 109.03125 340.732421875 -12.9423828125 307.790039062 -43.3251953125 c 1
 228.813476562 -97.98828125 248.813476562 22.01171875 198.750976562 31.4775390625 c 0
 97.56640625 54.154296875 85.53125 89.3662109375 124.046875 107.431640625 c 1
 232.697265625 104.102539062 232.586914062 118.809570312 258.701171875 151.58984375 c 1
 296.850585938 241.592773438 335.125 382.0703125 333.594726562 506.361328125 c 1
 297.61328125 515.405273438 186.02734375 507.407226562 148.926757812 504.399414062 c 2
 69.7119140625 491.364257812 l 1
 40.0537109375 521.106445312 19.828125 530.47265625 33.0146484375 573.557617188 c 1
 49.5849609375 580.0703125 66.0947265625 586.702148438 77.4013671875 603.743164062 c 0
 109.303710938 649.8828125 128.397460938 725.908203125 144.274414062 809.439453125 c 1
 158.509765625 853.930664062 141.623046875 872.9609375 148.107421875 885.95703125 c 0
 155.8984375 901.571289062 167.627929688 899.333007812 190.350585938 891.3046875 c 0
 287.9140625 850.858398438 271.268554688 824.918945312 281.665039062 794.727539062 c 1
 272.651367188 742.01171875 260.369140625 688.708007812 212.5234375 587.661132812 c 1
 250.599609375 588.63671875 305.374023438 591.28515625 325.692382812 592.639648438 c 1
 360.786132812 608.682617188 l 1
EndSplineSet
EndChar

StartChar: uni3106.hw
Encoding: 138 -1 137
Width: 500
Flags: W
HStem: 509.295 78.3652<213.355 289.164>
VStem: 144.273 137.391<712.852 849.43>
LayerCount: 2
Fore
SplineSet
164.916015625 897.53515625 m 0
 171.462890625 897.55859375 179.700195312 895.068359375 190.3515625 891.3046875 c 0
 287.915039062 850.859375 271.268554688 824.918945312 281.6640625 794.728515625 c 1
 272.650390625 742.012695312 260.369140625 688.70703125 212.5234375 587.66015625 c 1
 250.599609375 588.63671875 305.375 591.284179688 325.693359375 592.638671875 c 1
 326.615234375 593.060546875 l 1
 351.111328125 613.376953125 l 1
 380.98046875 617.083984375 424.100585938 618.966796875 443.435546875 616.6875 c 0
 457.6875 614.955078125 464.205078125 604.729492188 469.751953125 592.890625 c 0
 480.3828125 570.201171875 490.140625 536.813476562 486.810546875 524.412109375 c 0
 480.447265625 500.715820312 471.563476562 491.673828125 463.333984375 466.705078125 c 0
 424.174804688 328.944335938 278.935546875 117.493164062 169.68359375 12.396484375 c 1
 123.919921875 -17.693359375 63.20703125 -55.77734375 31.5625 -47.87890625 c 0
 0.0009765625 -40.0009765625 44.3017578125 25.6591796875 66.57421875 49.15625 c 1
 167.811523438 218.723632812 254.213867188 312.983398438 312.609375 501.41796875 c 1
 289.1640625 509.294921875 l 1
 242.309570312 513.165039062 180.60546875 506.966796875 148.927734375 504.3984375 c 2
 69.712890625 491.36328125 l 1
 40.0546875 521.106445312 19.8271484375 530.473632812 33.013671875 573.55859375 c 1
 49.583984375 580.0703125 66.09375 586.701171875 77.400390625 603.7421875 c 0
 109.302734375 649.881835938 128.396484375 725.908203125 144.2734375 809.439453125 c 1
 158.508789062 853.930664062 141.622070312 872.9609375 148.107421875 885.95703125 c 0
 152.24609375 894.251953125 157.49609375 897.508789062 164.916015625 897.53515625 c 0
72.537109375 425.572265625 m 1
 71.2548828125 460.138671875 76.111328125 476.381835938 108.2109375 461.294921875 c 0
 173.4296875 422.609375 218.442382812 370.170898438 300.038085938 269.466796875 c 0
 370.03125 183.083007812 466.965820312 97.30078125 481.572265625 54.4296875 c 1
 480.588867188 -38.4765625 420.323242188 -93.1181640625 357.07421875 -5.7705078125 c 1
 295.856445312 64.0068359375 274.426757812 109.717773438 229.340820312 183.229492188 c 0
 157.23828125 300.791015625 129.419921875 329.236328125 72.537109375 425.572265625 c 1
EndSplineSet
EndChar

StartChar: uni3107.hw
Encoding: 139 -1 138
Width: 500
Flags: W
VStem: 49.1777 139.377<20.5061 689.348> 334.891 139.377<20.5057 684.463>
LayerCount: 2
Fore
SplineSet
49.177734375 659.223632812 m 2
 49.177734375 706.336914062 7.548828125 749.504882812 16.671875 767.014648438 c 0
 21.837890625 776.928710938 18.5244140625 796.63671875 71.8955078125 787.845703125 c 0
 112.25390625 781.159179688 153.592773438 770.84765625 177.525390625 760.141601562 c 0
 188.5546875 755.127929688 193.569335938 745.1015625 192.56640625 730.061523438 c 2
 188.5546875 666.889648438 l 1
 188.5546875 208.18359375 l 2
 188.5546875 125.961914062 171.5078125 6.638671875 142.4296875 -57.53515625 c 1
 65.22265625 -57.53515625 l 1
 55.1953125 -20.4345703125 49.177734375 115.934570312 49.177734375 169.078125 c 2
 49.177734375 659.223632812 l 2
388.94921875 795.87890625 m 1
 421.036132812 793.874023438 450.018554688 786.85546875 469.0703125 779.8359375 c 0
 482.125976562 774.500976562 483.447265625 747.541992188 484.23828125 735.408203125 c 0
 486.234375 704.806640625 480.34375 676.446289062 474.267578125 649.717773438 c 1
 474.267578125 208.18359375 l 2
 474.267578125 125.9609375 457.221679688 6.6376953125 428.142578125 -57.53515625 c 1
 350.935546875 -57.53515625 l 1
 340.909179688 -20.435546875 334.890625 115.934570312 334.890625 169.078125 c 2
 334.890625 643.522460938 l 1
 339.94921875 673.888671875 309.780273438 693.788085938 285.80078125 691.90234375 c 0
 257.739257812 690 237.739257812 690 186.614257812 678.560546875 c 1
 153.524414062 696.609375 119.43359375 725.689453125 97.3740234375 751.759765625 c 0
 93.36328125 755.770507812 93.36328125 760.784179688 95.3681640625 764.794921875 c 2
 103.389648438 780.837890625 l 1
 137.481445312 774.822265625 183.60546875 771.8125 210.678710938 771.8125 c 0
 253.794921875 770.810546875 308.734375 776.828125 353.85546875 779.8359375 c 1
 388.94921875 795.87890625 l 1
EndSplineSet
EndChar

StartChar: uni3108.hw
Encoding: 140 -1 139
Width: 500
Flags: W
HStem: -41.25 82.2227<190.118 308.521> -37.2383 105.285<352.64 464.752> 653.444 88.2393<192.321 340.606 377.214 474.072> 653.444 80.2168<192.321 338.491> 737.727 20G<340.606 391.744>
VStem: 47.8135 139.377<43.5314 648.663>
LayerCount: 2
Fore
SplineSet
15.3076171875 743.325195312 m 0x84
 26.1298828125 765.55859375 46.0205078125 769.454101562 70.5322265625 764.155273438 c 0
 110.889648438 757.469726562 152.228515625 747.159179688 176.161132812 736.452148438 c 0
 187.19140625 731.438476562 192.205078125 721.412109375 191.202148438 706.372070312 c 2
 187.190429688 643.200195312 l 1
 187.190429688 210.20703125 l 2
 187.190429688 177.866210938 192.245117188 110.935546875 190.036132812 62.376953125 c 0
 191.709960938 47.87890625 198.005859375 40.97265625 213.772460938 40.97265625 c 0x84
 268.921875 39.9697265625 251.366210938 41.9755859375 308.520507812 43.98046875 c 1
 352.639648438 68.046875 l 1
 388.737304688 69.0498046875 440.87890625 65.0380859375 465.946289062 59.021484375 c 0
 478.981445312 56.013671875 485.999023438 46.990234375 485.999023438 34.95703125 c 0
 485.999023438 1.8681640625 475.97265625 -22.197265625 467.950195312 -30.21875 c 0
 462.936523438 -35.232421875 454.916015625 -37.23828125 445.891601562 -37.23828125 c 2x44
 161.631835938 -41.25 l 2
 80.412109375 -40.2470703125 48.3251953125 -8.1591796875 48.3251953125 55.01171875 c 0
 48.353515625 92.890625 49.546875 130.057617188 47.8134765625 171.1015625 c 2
 47.8134765625 635.534179688 l 2
 47.8134765625 682.646484375 6.18359375 725.815429688 15.3076171875 743.325195312 c 0x84
375.700195312 757.7265625 m 1x0c
 407.787109375 755.721679688 453.913085938 748.703125 472.963867188 741.68359375 c 0
 480.986328125 738.67578125 485.999023438 729.649414062 485.999023438 720.625976562 c 0
 485.999023438 692.549804688 471.9609375 666.48046875 460.930664062 659.4609375 c 1
 442.881835938 661.466796875 388.736328125 661.466796875 364.670898438 661.466796875 c 0
 327.571289062 661.466796875 298.538085938 656.452148438 261.4375 653.444335938 c 0x24
 240.380859375 652.44140625 202.27734375 645.421875 182.223632812 640.408203125 c 1
 149.133789062 658.45703125 115.04296875 687.537109375 92.982421875 713.607421875 c 0
 88.9716796875 717.619140625 88.9716796875 722.631835938 90.9775390625 726.643554688 c 2
 98.9990234375 742.685546875 l 1
 133.090820312 736.669921875 179.21484375 733.661132812 206.288085938 733.661132812 c 0x14
 249.404296875 732.658203125 295.484375 738.67578125 340.606445312 741.68359375 c 1x24
 375.700195312 757.7265625 l 1x0c
EndSplineSet
EndChar

StartChar: uni3109.hw
Encoding: 141 -1 140
Width: 500
Flags: W
VStem: 133.383 143.658<344.604 489.37> 347.65 123.491<288.358 509.227>
LayerCount: 2
Fore
SplineSet
360.842773438 608.682617188 m 1
 392.928710938 606.676757812 439.0546875 599.658203125 458.106445312 592.639648438 c 0
 466.127929688 589.631835938 471.141601562 580.60546875 471.141601562 571.581054688 c 0
 472.458984375 420.567382812 490.483398438 263.248046875 447.76171875 99.0615234375 c 0
 437.3125 58.90234375 415.467773438 -6.2255859375 397.845703125 -43.3251953125 c 1
 318.870117188 -97.98828125 328.870117188 22.01171875 278.807617188 31.4775390625 c 0
 177.623046875 54.154296875 221.586914062 89.3662109375 260.102539062 107.431640625 c 0
 280.055664062 120 292.764648438 118.809570312 318.87890625 151.58984375 c 1
 357.028320312 241.592773438 349.180664062 382.0703125 347.650390625 506.361328125 c 1
 311.668945312 515.405273438 186.083007812 507.407226562 148.983398438 504.399414062 c 2
 69.7685546875 491.364257812 l 1
 40.109375 521.106445312 19.8837890625 530.47265625 33.0703125 573.557617188 c 1
 49.640625 580.0703125 66.1513671875 586.702148438 77.45703125 603.743164062 c 0
 109.359375 649.8828125 128.453125 725.908203125 144.330078125 809.439453125 c 1
 158.565429688 853.930664062 141.678710938 872.9609375 148.1640625 885.95703125 c 0
 155.955078125 901.571289062 167.68359375 899.333007812 190.407226562 891.3046875 c 0
 287.970703125 850.858398438 271.325195312 824.918945312 281.720703125 794.727539062 c 1
 272.70703125 742.01171875 260.424804688 688.708007812 212.579101562 587.661132812 c 1
 250.655273438 588.63671875 305.430664062 591.28515625 325.749023438 592.639648438 c 1
 360.842773438 608.682617188 l 1
277.041015625 440.583984375 m 1
 242.555664062 287.508789062 229.744140625 105.978515625 133.149414062 -5.927734375 c 1
 100.920898438 -33.8017578125 68.79296875 -51.3046875 29.4794921875 -35.033203125 c 1
 14.578125 -19.259765625 32.6494140625 15.55078125 51.103515625 54.2060546875 c 1
 96.1572265625 196 116.157226562 360 133.3828125 531.813476562 c 1
 141.173828125 547.427734375 152.90234375 545.189453125 175.625976562 537.161132812 c 0
 273.189453125 496.71484375 266.645507812 470.775390625 277.041015625 440.583984375 c 1
EndSplineSet
EndChar

StartChar: uni310A.hw
Encoding: 142 -1 141
Width: 500
Flags: W
HStem: 492.717 88.2402<103.347 218.709 381.385 478.243> 492.717 80.2168<103.347 162.056>
VStem: 190.642 159.658<638.981 835.943>
LayerCount: 2
Fore
SplineSet
379.87109375 597 m 1xa0
 411.958007812 594.995117188 458.083007812 587.9765625 477.134765625 580.95703125 c 0
 485.15625 577.94921875 490.169921875 568.922851562 490.169921875 559.8984375 c 0
 490.169921875 531.823242188 476.130859375 505.75390625 465.1015625 498.734375 c 1
 447.052734375 500.740234375 392.90625 500.740234375 368.841796875 500.740234375 c 0
 331.741210938 500.740234375 218.708984375 495.725585938 181.608398438 492.716796875 c 0xa0
 160.551757812 491.71484375 122.447265625 484.6953125 102.393554688 479.681640625 c 1
 69.3037109375 497.73046875 35.212890625 526.810546875 13.1533203125 552.880859375 c 0
 9.142578125 556.891601562 9.1416015625 561.905273438 11.1474609375 565.916015625 c 2
 19.1689453125 581.958984375 l 1
 53.2607421875 575.943359375 99.384765625 572.93359375 126.458007812 572.93359375 c 0x60
 169.57421875 571.931640625 299.655273438 577.94921875 344.77734375 580.95703125 c 1
 379.87109375 597 l 1xa0
207.450195312 886.10546875 m 0
 213.997070312 886.12890625 222.234375 883.63671875 232.885742188 879.873046875 c 0
 290.848632812 865.827148438 338.59765625 839.501953125 350.299804688 808.440429688 c 1
 344.090820312 675.755859375 322.629882812 613.110351562 297.950195312 522.025390625 c 0
 272.118164062 426.690429688 199.565429688 209.446289062 185.73828125 105.252929688 c 0
 185.53515625 104.713867188 274.594726562 119.361328125 333.063476562 160.073242188 c 1
 365.209960938 160.493164062 377.446289062 131.256835938 396.97265625 125.694335938 c 0
 405.19921875 123.299804688 410.87890625 114.677734375 411.55859375 105.678710938 c 0
 413.67578125 77.68359375 401.643554688 50.62890625 391.173828125 42.7978515625 c 1
 373.025390625 43.4375 350.462890625 39.35546875 326.465820312 37.5400390625 c 1
 257.908203125 -1.328125 244.379882812 -4.259765625 192.401367188 -36.568359375 c 1
 133.936523438 -62.5126953125 25.71875 -30.326171875 16.9541015625 50.716796875 c 0
 13.3486328125 63.25390625 20.1064453125 78.8974609375 38.4541015625 93.123046875 c 1
 57.9482421875 177.40234375 131.453125 438.670898438 166.189453125 522.551757812 c 1
 184.739257812 599.844726562 190.409179688 624.547851562 206.807617188 760.865234375 c 0
 215.713867188 822.0390625 184.15625 861.53125 190.641601562 874.52734375 c 0
 194.780273438 882.822265625 200.030273438 886.079101562 207.450195312 886.10546875 c 0
377.799804688 292.170898438 m 1
 414.958007812 225.950195312 442.834960938 165.672851562 474.564453125 79.779296875 c 0
 488.443359375 42.01953125 484.083007812 8.83203125 462.6953125 -20.060546875 c 0
 421.891601562 -64.962890625 363.655273438 -79.03125 329.412109375 -11.3974609375 c 1
 303.97265625 22.990234375 311.094726562 69.416015625 303.173828125 134.059570312 c 0
 301.672851562 161.294921875 313.6875 273.75390625 325.45703125 305.338867188 c 1
 346.377929688 344.98046875 377.799804688 292.170898438 377.799804688 292.170898438 c 1
EndSplineSet
EndChar

StartChar: uni310B.hw
Encoding: 143 -1 142
Width: 500
Flags: W
HStem: 31.4785 75.9531<186.392 237.651> 525.826 20G<339.473 390.61> 727.465 80.2168<70.6681 248.625>
VStem: 347.373 137.492<338.852 446.939>
LayerCount: 2
Fore
SplineSet
313.736328125 831.748046875 m 1
 345.823242188 829.7421875 403.948242188 822.723632812 423 815.705078125 c 0
 431.021484375 812.697265625 436.03515625 803.670898438 436.03515625 794.646484375 c 0
 434.787109375 762.615234375 418.030273438 742.018554688 393.255859375 726.640625 c 1
 374.573242188 681.811523438 334.903320312 602.53515625 283.4453125 524.802734375 c 1
 339.47265625 529.783203125 l 1
 374.56640625 545.826171875 l 1
 406.653320312 543.8203125 452.778320312 536.801757812 471.830078125 529.783203125 c 0
 479.8515625 526.775390625 484.865234375 517.749023438 484.865234375 508.724609375 c 0
 485.524414062 417.122070312 455.603515625 285.15625 423.01953125 197.09375 c 0
 390.435546875 109.03125 354.510742188 -12.94140625 321.568359375 -43.32421875 c 1
 242.592773438 -97.9873046875 262.59375 22.0126953125 212.53125 31.478515625 c 0
 111.346679688 54.154296875 99.310546875 89.3662109375 137.826171875 107.431640625 c 1
 246.475585938 104.102539062 246.366210938 118.809570312 272.48046875 151.58984375 c 1
 310.629882812 241.592773438 348.903320312 319.211914062 347.373046875 443.50390625 c 1
 311.391601562 452.546875 256.950195312 444.55078125 219.849609375 441.54296875 c 2
 140.634765625 428.5078125 l 1
 110.975585938 458.250976562 90.7490234375 467.616210938 103.935546875 510.701171875 c 1
 120.505859375 517.212890625 137.017578125 523.845703125 148.32421875 540.88671875 c 0
 178.408203125 584.3984375 208.668945312 651.951171875 249.634765625 731.955078125 c 1
 241.623046875 733.236328125 l 1
 182.772460938 731.518554688 208.032226562 729.177734375 186.90234375 727.46484375 c 0
 165.845703125 726.461914062 89.7412109375 719.443359375 69.6875 714.4296875 c 1
 36.59765625 732.478515625 40.5068359375 761.55859375 18.447265625 787.62890625 c 0
 14.4365234375 791.639648438 14.435546875 796.653320312 16.44140625 800.6640625 c 2
 24.462890625 816.70703125 l 1
 58.5546875 810.690429688 104.678710938 807.681640625 131.751953125 807.681640625 c 0
 174.868164062 806.678710938 253.520507812 812.697265625 298.642578125 815.705078125 c 1
 313.736328125 831.748046875 l 1
EndSplineSet
EndChar

StartChar: uni310C.hw
Encoding: 144 -1 143
Width: 500
Flags: W
VStem: 273.383 129.373<728.202 842.265> 347.65 123.491<217.37 440.585>
LayerCount: 2
Fore
SplineSet
360.842773438 540.040039062 m 1x40
 392.928710938 538.034179688 439.0546875 531.015625 458.106445312 523.997070312 c 0
 466.127929688 520.989257812 471.141601562 511.962890625 471.141601562 502.938476562 c 0
 472.458984375 351.92578125 490.483398438 271.748046875 447.76171875 107.5625 c 0
 437.3125 67.40234375 415.467773438 2.2744140625 397.845703125 -34.82421875 c 1
 318.870117188 -89.4873046875 328.870117188 30.5126953125 278.807617188 39.9775390625 c 0
 177.623046875 62.654296875 221.586914062 97.8671875 260.102539062 115.931640625 c 0
 280.055664062 128.5 292.764648438 127.309570312 318.87890625 160.08984375 c 1
 357.028320312 250.09375 349.180664062 313.427734375 347.650390625 437.719726562 c 1
 311.668945312 446.762695312 186.083007812 438.764648438 148.983398438 435.756835938 c 2
 69.7685546875 422.721679688 l 1
 40.109375 452.463867188 19.8837890625 461.830078125 33.0703125 504.915039062 c 1
 49.640625 511.427734375 48.1513671875 518.059570312 59.45703125 535.100585938 c 1
 86.0068359375 628.00390625 58.29296875 738.364257812 82.44921875 811.600585938 c 0
 90.240234375 827.213867188 87.68359375 830.690429688 110.407226562 822.662109375 c 0
 161.013671875 801.682617188 180.891601562 784.60546875 189.754882812 768.814453125 c 0
 213.69140625 709.755859375 191.892578125 599.651367188 180.293945312 519.018554688 c 1
 218.370117188 519.994140625 305.430664062 522.642578125 325.749023438 523.997070312 c 1
 360.842773438 540.040039062 l 1x40
402.755859375 780.512695312 m 1x80
 383.471679688 694.916015625 319.52734375 470.770507812 276.865234375 334.3046875 c 0
 249.8984375 248.041992188 187.159179688 80.474609375 144.578125 31.14453125 c 1
 112.349609375 3.2705078125 68.79296875 -42.8037109375 29.4794921875 -26.5322265625 c 1
 14.578125 -10.759765625 32.6494140625 24.05078125 51.103515625 62.7060546875 c 1
 71.8154296875 127.889648438 140.1171875 252.635742188 181.763671875 406.7109375 c 0
 230.712890625 587.796875 264.076171875 784.626953125 273.3828125 877.45703125 c 1
 281.173828125 893.0703125 292.90234375 890.833007812 315.625976562 882.803710938 c 0
 413.189453125 842.358398438 392.359375 810.704101562 402.755859375 780.512695312 c 1x80
EndSplineSet
EndChar

StartChar: uni310D.hw
Encoding: 145 -1 144
Width: 500
Flags: W
VStem: 116.683 143.66<610.288 834.731> 153.838 126.909<-9.51476 99.4012> 314.673 143.66<610.288 834.731> 351.828 126.908<-9.51476 99.4012>
LayerCount: 2
Fore
SplineSet
133.493164062 888.752929688 m 0x80
 140.040039062 888.776367188 148.275390625 886.286132812 158.926757812 882.522460938 c 0
 256.490234375 842.076171875 249.947265625 816.13671875 260.342773438 785.946289062 c 1x80
 241.515625 635.674804688 244.9765625 547.233398438 166.975585938 418.848632812 c 1
 143.033203125 391.83984375 139.532226562 384.926757812 156.649414062 359.2421875 c 1
 196.072265625 272.163085938 269.194335938 151.857421875 280.747070312 64.7158203125 c 1
 307.013671875 -33.419921875 202.697265625 -91.6044921875 153.837890625 -10.1513671875 c 1x40
 127.060546875 101.84375 132.627929688 183.978515625 44.447265625 350.555664062 c 1
 24.1357421875 362.497070312 12.654296875 383.358398438 18.69921875 421.110351562 c 1
 35.26953125 427.622070312 51.779296875 434.254882812 63.0859375 451.295898438 c 0
 130.752929688 565.17578125 83.701171875 748.489257812 116.682617188 877.174804688 c 0
 120.821289062 885.469726562 126.073242188 888.725585938 133.493164062 888.752929688 c 0x80
331.483398438 888.752929688 m 0
 338.030273438 888.776367188 346.265625 886.286132812 356.916992188 882.522460938 c 0
 454.48046875 842.076171875 447.936523438 816.13671875 458.333007812 785.946289062 c 1x20
 439.505859375 635.674804688 442.965820312 547.233398438 364.965820312 418.848632812 c 1
 341.0234375 391.83984375 337.522460938 384.926757812 354.638671875 359.2421875 c 1
 394.0625 272.163085938 467.184570312 151.857421875 478.736328125 64.7158203125 c 1
 505.00390625 -33.419921875 400.6875 -91.6044921875 351.828125 -10.1513671875 c 1x10
 325.05078125 101.84375 330.6171875 183.978515625 242.436523438 350.555664062 c 1
 222.125976562 362.497070312 210.643554688 383.358398438 216.688476562 421.110351562 c 1
 233.258789062 427.622070312 249.76953125 434.254882812 261.075195312 451.295898438 c 0
 328.7421875 565.17578125 281.690429688 748.489257812 314.672851562 877.174804688 c 0x20
 318.811523438 885.469726562 324.063476562 888.725585938 331.483398438 888.752929688 c 0
EndSplineSet
EndChar

